<svg xmlns="http://www.w3.org/2000/svg" xmlns:xlink="http://www.w3.org/1999/xlink" width="375" height="812" viewBox="0 0 375 812">
  <defs>
    <linearGradient id="linear-gradient" x1="1" x2="0" y2="1" gradientUnits="objectBoundingBox">
      <stop offset="0" stop-color="#0a80f5"/>
      <stop offset="1" stop-color="#0bcceb"/>
    </linearGradient>
    <clipPath id="clip-Flash_and_Loading_Screen">
      <rect width="375" height="812"/>
    </clipPath>
  </defs>
  <g id="Flash_and_Loading_Screen" data-name="Flash and Loading Screen" clip-path="url(#clip-Flash_and_Loading_Screen)">
    <rect width="375" height="812" fill="url(#linear-gradient)"/>
    <text id="Chronos" transform="translate(188 442)" fill="#fff" font-size="42" font-family="SegoeUI-Bold, Segoe UI" font-weight="700"><tspan x="-81.642" y="0">Chronos</tspan></text>
    <g id="loading" transform="translate(45 -47)">
      <rect id="Rectangle_100" data-name="Rectangle 100" width="238" height="5" rx="2.5" transform="translate(24 580)" fill="#fff" opacity="0.5"/>
      <rect id="Rectangle_101" data-name="Rectangle 101" width="149" height="5" rx="2.5" transform="translate(24 580)" fill="#fff"/>
    </g>
    <g id="icon">
      <g id="Layer_1_65_" transform="translate(141 274)">
        <g id="Group_10448" data-name="Group 10448">
          <path id="Path_10226" data-name="Path 10226" d="M92.84,38.084a1.957,1.957,0,0,0-1.773-1.126H85.274a42.968,42.968,0,1,0-5.031,29.328,3.909,3.909,0,0,0-6.767-3.917,35.218,35.218,0,1,1,3.8-25.409H71.528a1.955,1.955,0,0,0-1.5,3.206L79.8,51.893a1.955,1.955,0,0,0,3,0l9.773-11.727A1.954,1.954,0,0,0,92.84,38.084Z" transform="translate(0 -1.775)" fill="#fff"/>
          <path id="Path_10227" data-name="Path 10227" d="M25.11,6.713A3.908,3.908,0,0,0,21.2,10.622V34.341a6.834,6.834,0,0,0,3.911,12.443A6.755,6.755,0,0,0,28,46.124l13.6,7.848a3.868,3.868,0,0,0,1.952.526A3.908,3.908,0,0,0,45.5,47.2l-13.611-7.86a6.808,6.808,0,0,0-2.868-5V10.622A3.917,3.917,0,0,0,25.11,6.713Zm0,36.159a2.93,2.93,0,1,1,2.931-2.929A2.934,2.934,0,0,1,25.11,42.872Z" transform="translate(17.891 3.06)" fill="#fff"/>
        </g>
      </g>
    </g>
    <g id="Status_Bar_Dark" data-name="Status Bar Dark">
      <rect id="Rectangle" width="375" height="44" fill="none"/>
      <g id="Battery" transform="translate(336 17)">
        <g id="Border" transform="translate(0 0.333)" fill="none" stroke="#000" stroke-miterlimit="10" stroke-width="1" opacity="0.35">
          <rect width="22" height="11.333" rx="2.667" stroke="none"/>
          <rect x="0.5" y="0.5" width="21" height="10.333" rx="2.167" fill="none"/>
        </g>
        <path id="Cap" d="M0,0V4A2.17,2.17,0,0,0,1.328,2,2.17,2.17,0,0,0,0,0" transform="translate(23 4)" opacity="0.4"/>
        <rect id="Capacity" width="18" height="7.333" rx="1.333" transform="translate(2 2.333)" fill="#fff"/>
      </g>
      <path id="Wifi" d="M7.637,10.966a.313.313,0,0,1-.221-.093l-2-2.016a.313.313,0,0,1,.01-.456,3.421,3.421,0,0,1,4.419,0,.311.311,0,0,1,.1.226.315.315,0,0,1-.094.23l-2,2.016A.308.308,0,0,1,7.637,10.966Zm3.508-3.538a.312.312,0,0,1-.214-.085,4.9,4.9,0,0,0-6.585,0,.312.312,0,0,1-.214.085.308.308,0,0,1-.22-.091L2.758,6.17a.322.322,0,0,1,0-.459,7.158,7.158,0,0,1,9.752,0,.322.322,0,0,1,.1.229.326.326,0,0,1-.094.23L11.364,7.337A.309.309,0,0,1,11.145,7.428ZM13.8,4.743a.3.3,0,0,1-.214-.087,8.64,8.64,0,0,0-11.907,0,.3.3,0,0,1-.214.087.308.308,0,0,1-.22-.091L.094,3.486a.322.322,0,0,1,0-.456,10.9,10.9,0,0,1,15.08,0,.325.325,0,0,1,.1.228.319.319,0,0,1-.094.229L14.023,4.652A.307.307,0,0,1,13.8,4.743Z" transform="translate(315.694 17.331)" fill="#fff"/>
      <path id="Cellular_Connection" data-name="Cellular Connection" d="M16,10.667H15a1,1,0,0,1-1-1V1a1,1,0,0,1,1-1h1a1,1,0,0,1,1,1V9.667A1,1,0,0,1,16,10.667Zm-4.667,0h-1a1,1,0,0,1-1-1V3.334a1,1,0,0,1,1-1h1a1,1,0,0,1,1,1V9.667A1,1,0,0,1,11.334,10.667Zm-4.667,0h-1a1,1,0,0,1-1-1v-4a1,1,0,0,1,1-1h1a1,1,0,0,1,1,1v4A1,1,0,0,1,6.666,10.667ZM2,10.667H1a1,1,0,0,1-1-1v-2a1,1,0,0,1,1-1H2a1,1,0,0,1,1,1v2A1,1,0,0,1,2,10.667Z" transform="translate(293.667 17.667)" fill="#fff"/>
      <g id="Time_Style" data-name="Time Style" transform="translate(21 13)">
        <rect id="Time_Style_background" data-name="Time Style background" width="54" height="21" fill="rgba(0,0,0,0)"/>
        <text id="_Time" data-name="↳ Time" transform="translate(0 2)" fill="#fff" font-size="14" font-family="SegoeUI, Segoe UI"><tspan x="14.582" y="15" letter-spacing="-0.02em">9:4</tspan><tspan y="15">1</tspan></text>
      </g>
    </g>
    <g id="Home_Indicator_-_On_Dark" data-name="Home Indicator - On Dark" transform="translate(-415 408)">
      <g id="Bars_Home_Indicator_Home_Indicator_-_On_Dark" data-name="Bars/Home Indicator/Home Indicator - On Dark" transform="translate(13 24)">
        <rect id="Background" width="375" height="34" transform="translate(402 346)" fill="none"/>
        <rect id="Bar" width="134" height="5" rx="2.5" transform="translate(523 366)" fill="#fff"/>
      </g>
    </g>
  </g>
</svg>
