<svg xmlns="http://www.w3.org/2000/svg" xmlns:xlink="http://www.w3.org/1999/xlink" width="375" height="812" viewBox="0 0 375 812">
  <defs>
    <linearGradient id="linear-gradient" x1="1" y1="-0.334" x2="0" y2="1" gradientUnits="objectBoundingBox">
      <stop offset="0" stop-color="#0a80f5"/>
      <stop offset="1" stop-color="#0bcceb"/>
    </linearGradient>
    <filter id="Rectangle_132" x="-9" y="-6" width="393" height="126.216" filterUnits="userSpaceOnUse">
      <feOffset dy="3" input="SourceAlpha"/>
      <feGaussianBlur stdDeviation="3" result="blur"/>
      <feFlood flood-opacity="0.161"/>
      <feComposite operator="in" in2="blur"/>
      <feComposite in="SourceGraphic"/>
    </filter>
    <filter id="Rectangle_150" x="-7.5" y="727.5" width="390" height="90" filterUnits="userSpaceOnUse">
      <feOffset dy="-2" input="SourceAlpha"/>
      <feGaussianBlur stdDeviation="2.5" result="blur-2"/>
      <feFlood flood-opacity="0.071"/>
      <feComposite operator="in" in2="blur-2"/>
      <feComposite in="SourceGraphic"/>
    </filter>
    <clipPath id="clip-path">
      <rect width="551" height="216" fill="none"/>
    </clipPath>
    <filter id="Rectangle_137" x="-88" y="541" width="186" height="181" filterUnits="userSpaceOnUse">
      <feOffset dy="3" input="SourceAlpha"/>
      <feGaussianBlur stdDeviation="3" result="blur-3"/>
      <feFlood flood-opacity="0.161"/>
      <feComposite operator="in" in2="blur-3"/>
      <feComposite in="SourceGraphic"/>
    </filter>
    <filter id="Path_10425" x="-40" y="510" width="91" height="91" filterUnits="userSpaceOnUse">
      <feOffset dy="7" input="SourceAlpha"/>
      <feGaussianBlur stdDeviation="3" result="blur-4"/>
      <feFlood flood-opacity="0.161"/>
      <feComposite operator="in" in2="blur-4"/>
      <feComposite in="SourceGraphic"/>
    </filter>
    <filter id="Path_10426" x="-5" y="539" width="22" height="22" filterUnits="userSpaceOnUse">
      <feOffset dy="1" input="SourceAlpha"/>
      <feGaussianBlur stdDeviation="2" result="blur-5"/>
      <feFlood flood-opacity="0.161"/>
      <feComposite operator="in" in2="blur-5"/>
      <feComposite in="SourceGraphic"/>
    </filter>
    <filter id="Rectangle_137-2" x="98" y="541" width="186" height="181" filterUnits="userSpaceOnUse">
      <feOffset dy="3" input="SourceAlpha"/>
      <feGaussianBlur stdDeviation="3" result="blur-6"/>
      <feFlood flood-opacity="0.161"/>
      <feComposite operator="in" in2="blur-6"/>
      <feComposite in="SourceGraphic"/>
    </filter>
    <filter id="Path_10425-2" x="146" y="510" width="91" height="91" filterUnits="userSpaceOnUse">
      <feOffset dy="7" input="SourceAlpha"/>
      <feGaussianBlur stdDeviation="3" result="blur-7"/>
      <feFlood flood-opacity="0.161"/>
      <feComposite operator="in" in2="blur-7"/>
      <feComposite in="SourceGraphic"/>
    </filter>
    <filter id="Path_10426-2" x="181" y="539" width="22" height="22" filterUnits="userSpaceOnUse">
      <feOffset dy="1" input="SourceAlpha"/>
      <feGaussianBlur stdDeviation="2" result="blur-8"/>
      <feFlood flood-opacity="0.161"/>
      <feComposite operator="in" in2="blur-8"/>
      <feComposite in="SourceGraphic"/>
    </filter>
    <filter id="Rectangle_137-3" x="284" y="541" width="186" height="181" filterUnits="userSpaceOnUse">
      <feOffset dy="3" input="SourceAlpha"/>
      <feGaussianBlur stdDeviation="3" result="blur-9"/>
      <feFlood flood-opacity="0.161"/>
      <feComposite operator="in" in2="blur-9"/>
      <feComposite in="SourceGraphic"/>
    </filter>
    <filter id="Path_10425-3" x="332" y="510" width="91" height="91" filterUnits="userSpaceOnUse">
      <feOffset dy="7" input="SourceAlpha"/>
      <feGaussianBlur stdDeviation="3" result="blur-10"/>
      <feFlood flood-opacity="0.161"/>
      <feComposite operator="in" in2="blur-10"/>
      <feComposite in="SourceGraphic"/>
    </filter>
    <filter id="Path_10426-3" x="367" y="539" width="22" height="22" filterUnits="userSpaceOnUse">
      <feOffset dy="1" input="SourceAlpha"/>
      <feGaussianBlur stdDeviation="2" result="blur-11"/>
      <feFlood flood-opacity="0.161"/>
      <feComposite operator="in" in2="blur-11"/>
      <feComposite in="SourceGraphic"/>
    </filter>
    <clipPath id="clip-Home_1">
      <rect width="375" height="812"/>
    </clipPath>
  </defs>
  <g id="Home_1" data-name="Home – 1" clip-path="url(#clip-Home_1)">
    <rect width="375" height="812" fill="#666"/>
    <path id="Subtraction_6" data-name="Subtraction 6" d="M2098.968-1088.429h-375v-600.316a329.556,329.556,0,0,0,38.193,9.614,258.91,258.91,0,0,0,47.354,4.613c21.553,0,41.63-3.18,59.672-9.452a220.512,220.512,0,0,1,72.548-12.385,213.576,213.576,0,0,1,28.717,1.935,198.82,198.82,0,0,1,22.036,4.257,130.406,130.406,0,0,1,19.105,6.193,265.923,265.923,0,0,0,28.194,12.694,225.709,225.709,0,0,0,27.516,8.728,127.2,127.2,0,0,0,29.6,3.969h.009c.692,0,1.385-.008,2.06-.025v570.175Z" transform="translate(-1723.968 1900.43)" fill="url(#linear-gradient)"/>
    <g id="Ellipse_3207" data-name="Ellipse 3207" transform="translate(105 146)" fill="#fff" stroke="#f2f2f2" stroke-width="8">
      <circle cx="82.5" cy="82.5" r="82.5" stroke="none"/>
      <circle cx="82.5" cy="82.5" r="78.5" fill="none"/>
    </g>
    <g id="Status_Bar_Dark" data-name="Status Bar Dark">
      <rect id="Rectangle" width="375" height="44" fill="none"/>
      <g id="Battery" transform="translate(336 17)">
        <g id="Border" transform="translate(0 0.333)" fill="none" stroke="#000" stroke-miterlimit="10" stroke-width="1" opacity="0.35">
          <rect width="22" height="11.333" rx="2.667" stroke="none"/>
          <rect x="0.5" y="0.5" width="21" height="10.333" rx="2.167" fill="none"/>
        </g>
        <path id="Cap" d="M0,0V4A2.17,2.17,0,0,0,1.328,2,2.17,2.17,0,0,0,0,0" transform="translate(23 4)" opacity="0.4"/>
        <rect id="Capacity" width="18" height="7.333" rx="1.333" transform="translate(2 2.333)" fill="#fff"/>
      </g>
      <path id="Wifi" d="M7.637,10.966a.313.313,0,0,1-.221-.093l-2-2.016a.313.313,0,0,1,.01-.456,3.421,3.421,0,0,1,4.419,0,.311.311,0,0,1,.1.226.315.315,0,0,1-.094.23l-2,2.016A.308.308,0,0,1,7.637,10.966Zm3.508-3.538a.312.312,0,0,1-.214-.085,4.9,4.9,0,0,0-6.585,0,.312.312,0,0,1-.214.085.308.308,0,0,1-.22-.091L2.758,6.17a.322.322,0,0,1,0-.459,7.158,7.158,0,0,1,9.752,0,.322.322,0,0,1,.1.229.326.326,0,0,1-.094.23L11.364,7.337A.309.309,0,0,1,11.145,7.428ZM13.8,4.743a.3.3,0,0,1-.214-.087,8.64,8.64,0,0,0-11.907,0,.3.3,0,0,1-.214.087.308.308,0,0,1-.22-.091L.094,3.486a.322.322,0,0,1,0-.456,10.9,10.9,0,0,1,15.08,0,.325.325,0,0,1,.1.228.319.319,0,0,1-.094.229L14.023,4.652A.307.307,0,0,1,13.8,4.743Z" transform="translate(315.694 17.331)" fill="#fff"/>
      <path id="Cellular_Connection" data-name="Cellular Connection" d="M16,10.667H15a1,1,0,0,1-1-1V1a1,1,0,0,1,1-1h1a1,1,0,0,1,1,1V9.667A1,1,0,0,1,16,10.667Zm-4.667,0h-1a1,1,0,0,1-1-1V3.334a1,1,0,0,1,1-1h1a1,1,0,0,1,1,1V9.667A1,1,0,0,1,11.334,10.667Zm-4.667,0h-1a1,1,0,0,1-1-1v-4a1,1,0,0,1,1-1h1a1,1,0,0,1,1,1v4A1,1,0,0,1,6.666,10.667ZM2,10.667H1a1,1,0,0,1-1-1v-2a1,1,0,0,1,1-1H2a1,1,0,0,1,1,1v2A1,1,0,0,1,2,10.667Z" transform="translate(293.667 17.667)" fill="#fff"/>
      <g id="Time_Style" data-name="Time Style" transform="translate(21 13)">
        <rect id="Time_Style_background" data-name="Time Style background" width="54" height="21" fill="rgba(0,0,0,0)"/>
        <text id="_Time" data-name="↳ Time" transform="translate(0 2)" fill="#fff" font-size="14" font-family="SegoeUI, Segoe UI"><tspan x="14.582" y="15" letter-spacing="-0.02em">9:4</tspan><tspan y="15">1</tspan></text>
      </g>
    </g>
    <g id="Home_Indicator_-_On_Dark" data-name="Home Indicator - On Dark" transform="translate(-415 408)">
      <g id="Bars_Home_Indicator_Home_Indicator_-_On_Dark" data-name="Bars/Home Indicator/Home Indicator - On Dark" transform="translate(13 24)">
        <rect id="Background" width="375" height="34" transform="translate(402 346)" fill="none"/>
        <rect id="Bar" width="134" height="5" rx="2.5" transform="translate(523 366)" fill="#fff"/>
      </g>
    </g>
    <g id="Header">
      <g transform="matrix(1, 0, 0, 1, 0, 0)" filter="url(#Rectangle_132)">
        <rect id="Rectangle_132-2" data-name="Rectangle 132" width="375" height="108.216" fill="#0a89f3"/>
      </g>
      <g id="Navigator" transform="translate(36.5 52)">
        <text id="HOME" transform="translate(151.5 15)" fill="#fff" font-size="14" font-family="Oxygen-Regular, Oxygen"><tspan x="-20.761" y="0">HOME</tspan></text>
        <g id="Add_button" data-name="Add button" transform="translate(-351.5 -78)">
          <path id="Path_10400" data-name="Path 10400" d="M14.9,0A14.9,14.9,0,1,1,0,14.9,14.9,14.9,0,0,1,14.9,0Z" transform="translate(335 72)" fill="none"/>
          <path id="Path_10401" data-name="Path 10401" d="M-1791,1985.658v-14.9" transform="translate(2140.904 -1891.302)" fill="none" stroke="#fff" stroke-linecap="round" stroke-width="2"/>
          <path id="Path_10402" data-name="Path 10402" d="M0,14.9V0" transform="translate(357.356 86.904) rotate(90)" fill="none" stroke="#fff" stroke-linecap="round" stroke-width="2"/>
        </g>
        <g id="settings-work-tool" transform="translate(300.491 0)">
          <g id="Group_10462" data-name="Group 10462" transform="translate(0.003 0)">
            <path id="Path_10409" data-name="Path 10409" d="M17.712,7.9a.578.578,0,0,0-.571-.437A1.961,1.961,0,0,1,15.8,4.045a.493.493,0,0,0,.054-.67,8.789,8.789,0,0,0-1.407-1.421.494.494,0,0,0-.675.055,2.047,2.047,0,0,1-2.215.5,1.973,1.973,0,0,1-1.2-1.928A.493.493,0,0,0,9.919.059a8.868,8.868,0,0,0-2-.005.494.494,0,0,0-.44.508,1.976,1.976,0,0,1-1.216,1.9,2.053,2.053,0,0,1-2.2-.5A.5.5,0,0,0,3.4,1.9,8.823,8.823,0,0,0,1.958,3.321.494.494,0,0,0,2.011,4a1.968,1.968,0,0,1,.5,2.216,2.054,2.054,0,0,1-1.933,1.2.483.483,0,0,0-.513.436,8.9,8.9,0,0,0,0,2.02.588.588,0,0,0,.582.437,1.948,1.948,0,0,1,1.828,1.217,1.975,1.975,0,0,1-.5,2.2.494.494,0,0,0-.054.669,8.821,8.821,0,0,0,1.405,1.422A.494.494,0,0,0,4,15.757a2.044,2.044,0,0,1,2.214-.5,1.97,1.97,0,0,1,1.2,1.928.493.493,0,0,0,.436.519,8.84,8.84,0,0,0,2,.005.494.494,0,0,0,.44-.509A1.974,1.974,0,0,1,11.5,15.308a2.05,2.05,0,0,1,2.2.5.5.5,0,0,0,.67.056,8.843,8.843,0,0,0,1.437-1.421.493.493,0,0,0-.053-.675,1.968,1.968,0,0,1-.5-2.216,1.989,1.989,0,0,1,1.817-1.2l.11,0a.494.494,0,0,0,.52-.435A8.89,8.89,0,0,0,17.712,7.9ZM8.9,11.864A2.963,2.963,0,1,1,11.862,8.9,2.966,2.966,0,0,1,8.9,11.864Z" transform="translate(-0.003 0)" fill="#fff" fill-rule="evenodd"/>
          </g>
        </g>
      </g>
    </g>
    <g id="navigator-2" data-name="navigator">
      <g id="Group_10463" data-name="Group 10463" transform="translate(33)">
        <g id="Group_10465" data-name="Group 10465" transform="translate(2880 -1547)">
          <path id="Union_1" data-name="Union 1" d="M12.5,25h-.024a12.575,12.575,0,0,1-2.5-.254,12.432,12.432,0,0,1-4.47-1.881,12.536,12.536,0,0,1-4.529-5.5,12.436,12.436,0,0,1-.728-2.346,12.621,12.621,0,0,1,0-5.038,12.432,12.432,0,0,1,1.881-4.47A12.536,12.536,0,0,1,7.634.982,12.436,12.436,0,0,1,9.981.254a12.621,12.621,0,0,1,5.038,0,12.432,12.432,0,0,1,4.47,1.881,12.536,12.536,0,0,1,4.529,5.5,12.436,12.436,0,0,1,.728,2.346A12.585,12.585,0,0,1,25,12.5a2.5,2.5,0,1,1-5,0A7.5,7.5,0,1,0,12.5,20a2.5,2.5,0,1,1,0,5Z" transform="translate(-2852 2297.043)" fill="#fff"/>
          <g id="Group_10464" data-name="Group 10464" transform="translate(-0.498 1)">
            <path id="Path_10411" data-name="Path 10411" d="M-2839.5,2309.543v-3.94" fill="none" stroke="#fff" stroke-linecap="round" stroke-width="2"/>
            <path id="Path_10412" data-name="Path 10412" d="M-2839.5,2309.543v-3.94" transform="translate(-529.929 5149.075) rotate(90)" fill="none" stroke="#fff" stroke-linecap="round" stroke-width="2"/>
          </g>
        </g>
      </g>
      <g id="Group_10468" data-name="Group 10468" transform="translate(2921.715 -1535.278)">
        <path id="Subtraction_2" data-name="Subtraction 2" d="M12.142,24.284A12.232,12.232,0,0,1,9.7,24.038a12.076,12.076,0,0,1-4.342-1.827,12.178,12.178,0,0,1-4.4-5.342,12.081,12.081,0,0,1-.708-2.279,12.261,12.261,0,0,1,0-4.894A12.076,12.076,0,0,1,2.074,5.353,12.178,12.178,0,0,1,7.416.954,12.081,12.081,0,0,1,9.7.247a12.261,12.261,0,0,1,4.894,0,12.076,12.076,0,0,1,4.342,1.827,12.178,12.178,0,0,1,4.4,5.342A12.082,12.082,0,0,1,24.038,9.7a12.261,12.261,0,0,1,0,4.894,12.076,12.076,0,0,1-1.827,4.342,12.178,12.178,0,0,1-5.342,4.4,12.081,12.081,0,0,1-2.279.708A12.232,12.232,0,0,1,12.142,24.284Zm0-22.261A10.119,10.119,0,1,0,22.261,12.142,10.13,10.13,0,0,0,12.142,2.024Z" transform="translate(-2783 2286.993)" fill="#fff"/>
        <g id="Group_10466" data-name="Group 10466" transform="translate(-2771.02 2293.407)">
          <path id="Path_10413" data-name="Path 10413" d="M-2655,2283.443v-6.215" transform="translate(2655 -2277.228)" fill="none" stroke="#fff" stroke-linecap="round" stroke-width="2"/>
          <path id="Path_10414" data-name="Path 10414" d="M0,6.215V0" transform="translate(6.264 6.264) rotate(90)" fill="none" stroke="#fff" stroke-linecap="round" stroke-width="2"/>
        </g>
        <path id="Path_10415" data-name="Path 10415" d="M-2767.221,2276.289l6.021-2.529" transform="matrix(0.966, -0.259, 0.259, 0.966, -700.024, -625.911)" fill="none" stroke="#fff" stroke-linecap="round" stroke-width="2"/>
        <path id="Path_10416" data-name="Path 10416" d="M-2761.2,2276.289l-6.021-2.529" transform="matrix(0.966, 0.259, -0.259, 0.966, 498.186, 804.95)" fill="none" stroke="#fff" stroke-linecap="round" stroke-width="2"/>
      </g>
      <g id="Group_10471" data-name="Group 10471" transform="translate(3013 -1441.257)">
        <path id="Union_2" data-name="Union 2" d="M9.7,22.03A11.113,11.113,0,0,1,4.075,19,11.147,11.147,0,0,1,1.69,15.46a11.088,11.088,0,0,1-.87-4.035H.556a.557.557,0,0,1,0-1.113H3a.557.557,0,1,1,0,1.113H2.676a9.274,9.274,0,1,0,9.269-9.571v0a.914.914,0,0,1-.816-.925A.913.913,0,0,1,11.945,0V0h.1a11.26,11.26,0,0,1,2.14.225A11.075,11.075,0,0,1,18.167,1.9,11.163,11.163,0,0,1,22.2,6.8a11.075,11.075,0,0,1,.648,2.089,11.143,11.143,0,0,1-6.57,12.5,11.051,11.051,0,0,1-2.089.648,11.2,11.2,0,0,1-4.486,0Z" transform="translate(-2800 2193)" fill="#fff"/>
        <g id="Group_10469" data-name="Group 10469" transform="translate(-2791.542 2199.589)">
          <path id="Path_10418" data-name="Path 10418" d="M-2639,2250.475v-6.191" transform="translate(2642.095 -2244.284)" fill="none" stroke="#fff" stroke-linecap="round" stroke-width="2"/>
          <path id="Path_10419" data-name="Path 10419" d="M0,6.191V0" transform="translate(6.191 6.209) rotate(90)" fill="none" stroke="#fff" stroke-linecap="round" stroke-width="2"/>
        </g>
      </g>
      <g id="Group_10473" data-name="Group 10473" transform="translate(2767.504 -1633.496)">
        <path id="Subtraction_4" data-name="Subtraction 4" d="M11.273,22.547A11.356,11.356,0,0,1,9,22.318a11.211,11.211,0,0,1-4.031-1.7,11.307,11.307,0,0,1-4.084-4.96,11.214,11.214,0,0,1-.657-2.116A11.383,11.383,0,0,1,.229,9a11.211,11.211,0,0,1,1.7-4.031A11.373,11.373,0,0,1,2.955,3.665H5.768a9.39,9.39,0,1,0,5.505-1.786V0a11.356,11.356,0,0,1,2.272.229,11.213,11.213,0,0,1,4.031,1.7,11.306,11.306,0,0,1,4.084,4.96A11.219,11.219,0,0,1,22.318,9a11.383,11.383,0,0,1,0,4.544,11.214,11.214,0,0,1-1.7,4.031,11.308,11.308,0,0,1-4.96,4.084,11.221,11.221,0,0,1-2.116.657A11.356,11.356,0,0,1,11.273,22.547Z" transform="translate(-2479 2386)" fill="#fff"/>
        <ellipse id="Ellipse_3221" data-name="Ellipse 3221" cx="0.902" cy="0.939" rx="0.902" ry="0.939" transform="translate(-2468.553 2386)" fill="#fff"/>
        <rect id="Rectangle_134" data-name="Rectangle 134" width="3.608" height="1.127" rx="0.564" transform="translate(-2476.081 2388.346) rotate(23)" fill="#fff"/>
        <path id="Path_10418-2" data-name="Path 10418" d="M0,6.272V0" transform="matrix(0.695, 0.719, -0.719, 0.695, -2464.965, 2391.453)" fill="none" stroke="#fff" stroke-linecap="round" stroke-width="2"/>
        <path id="Path_10419-2" data-name="Path 10419" d="M0,6.069V0" transform="translate(-2466.75 2397.273) rotate(49)" fill="none" stroke="#fff" stroke-linecap="round" stroke-width="2"/>
      </g>
      <g transform="matrix(1, 0, 0, 1, 0, 0)" filter="url(#Rectangle_150)">
        <rect id="Rectangle_150-2" data-name="Rectangle 150" width="375" height="75" transform="translate(0 737)" fill="rgba(255,255,255,0.07)"/>
      </g>
    </g>
    <path id="Subtraction_5" data-name="Subtraction 5" d="M6.8,22.721c-.874,0-1.764-.66-2.646-1.96A15.046,15.046,0,0,1,3,18.672c-.347-.748-.685-1.591-1.006-2.506-.3-.846-.576-1.749-.83-2.682-.238-.874-.449-1.754-.627-2.616-.171-.827-.3-1.6-.4-2.31A14.081,14.081,0,0,1,0,6.8a6.847,6.847,0,0,1,.138-1.37A6.76,6.76,0,0,1,1.161,3,6.817,6.817,0,0,1,4.151.534a6.763,6.763,0,0,1,1.276-.4,6.863,6.863,0,0,1,2.74,0A6.76,6.76,0,0,1,10.6,1.161a6.817,6.817,0,0,1,2.463,2.99,6.763,6.763,0,0,1,.4,1.276,6.847,6.847,0,0,1,.138,1.37,14.081,14.081,0,0,1-.138,1.762c-.092.705-.226,1.482-.4,2.31-.178.862-.389,1.743-.627,2.616-.254.933-.533,1.835-.83,2.682-.32.915-.659,1.758-1.006,2.506A15.046,15.046,0,0,1,9.443,20.76C8.561,22.061,7.671,22.721,6.8,22.721Zm0-18.642A2.719,2.719,0,1,0,9.516,6.8,2.722,2.722,0,0,0,6.8,4.078Z" transform="translate(20 403.251)" fill="#fff"/>
    <g id="Group_10458" data-name="Group 10458" transform="translate(-3 1)">
      <path id="Path_10403" data-name="Path 10403" d="M-1947.5,2100.318v-55.044" transform="translate(2135 -1858.818)" fill="none" stroke="#000" stroke-linecap="round" stroke-width="3"/>
      <path id="Path_10404" data-name="Path 10404" d="M-1947.5,2099.146v-53.871" transform="translate(2979.719 879.017) rotate(60)" fill="none" stroke="#3c82ff" stroke-linecap="round" stroke-width="3"/>
    </g>
    <text id="_12:10" data-name="12:10" transform="translate(188 382)" fill="#fff" font-size="58" font-family="Oxygen-Light, Oxygen" font-weight="300" letter-spacing="0.024em"><tspan x="-60.388" y="0">12:10</tspan></text>
    <text id="Malden_MA" data-name="Malden, MA" transform="translate(109 427)" fill="#fff" font-size="29" font-family="Oxygen-Regular, Oxygen"><tspan x="0" y="0">Malden, MA</tspan></text>
    <g id="Repeat_Grid_1" data-name="Repeat Grid 1" transform="translate(-88 506)" clip-path="url(#clip-path)">
      <g id="Group_10474" data-name="Group 10474" transform="translate(3205 -1799)">
        <g transform="matrix(1, 0, 0, 1, -3117, 1293)" filter="url(#Rectangle_137)">
          <rect id="Rectangle_137-4" data-name="Rectangle 137" width="168" height="163" rx="4" transform="translate(-79 547)" fill="#fff"/>
        </g>
        <g transform="matrix(1, 0, 0, 1, -3117, 1293)" filter="url(#Path_10425)">
          <path id="Path_10425-4" data-name="Path 10425" d="M36.5,0A36.5,36.5,0,1,1,0,36.5,36.5,36.5,0,0,1,36.5,0Z" transform="translate(-31 512)" fill="#fff"/>
        </g>
        <path id="Path_10423" data-name="Path 10423" d="M-3109.787,1843.65l9.4-7.2,5.641-4.322" transform="translate(-17.704 10)" fill="none" stroke="#3c82ff" stroke-linecap="round" stroke-width="2"/>
        <path id="Path_10424" data-name="Path 10424" d="M-3111,1842v-15.236" transform="translate(0 -3)" fill="none" stroke="#000" stroke-linecap="round" stroke-width="2"/>
        <g transform="matrix(1, 0, 0, 1, -3117, 1293)" filter="url(#Path_10426)">
          <path id="Path_10426-4" data-name="Path 10426" d="M5,0A5,5,0,1,1,0,5,5,5,0,0,1,5,0Z" transform="translate(1 544)" fill="#ececec"/>
        </g>
        <text id="_1:28" data-name="1:28" transform="translate(-3142 1919)" fill="#3c82ff" font-size="35" font-family="Oxygen-Regular, Oxygen" letter-spacing="0.024em"><tspan x="0" y="0" fill="#000">1:</tspan><tspan y="0" fill="#3c82ff">28</tspan></text>
        <text id="SAT_FEBURARY_23" data-name="SAT FEBURARY 23" transform="translate(-3167 1947)" fill="#8b959a" font-size="14" font-family="SegoeUI, Segoe UI"><tspan x="0" y="0">SAT FEBURARY 23</tspan></text>
        <text id="ALARM_NAME" data-name="ALARM NAME" transform="translate(-3145 1966)" font-size="10" font-family="Oxygen-Bold, Oxygen" font-weight="700"><tspan x="0" y="0">ALARM NAME</tspan></text>
      </g>
      <g id="Group_10474-2" data-name="Group 10474" transform="translate(3391 -1799)">
        <g transform="matrix(1, 0, 0, 1, -3303, 1293)" filter="url(#Rectangle_137-2)">
          <rect id="Rectangle_137-5" data-name="Rectangle 137" width="168" height="163" rx="4" transform="translate(107 547)" fill="#fff"/>
        </g>
        <g transform="matrix(1, 0, 0, 1, -3303, 1293)" filter="url(#Path_10425-2)">
          <path id="Path_10425-5" data-name="Path 10425" d="M36.5,0A36.5,36.5,0,1,1,0,36.5,36.5,36.5,0,0,1,36.5,0Z" transform="translate(155 512)" fill="#fff"/>
        </g>
        <path id="Path_10423-2" data-name="Path 10423" d="M-3109.787,1843.65l9.4-7.2,5.641-4.322" transform="translate(-17.704 10)" fill="none" stroke="#3c82ff" stroke-linecap="round" stroke-width="2"/>
        <path id="Path_10424-2" data-name="Path 10424" d="M-3111,1842v-15.236" transform="translate(0 -3)" fill="none" stroke="#000" stroke-linecap="round" stroke-width="2"/>
        <g transform="matrix(1, 0, 0, 1, -3303, 1293)" filter="url(#Path_10426-2)">
          <path id="Path_10426-5" data-name="Path 10426" d="M5,0A5,5,0,1,1,0,5,5,5,0,0,1,5,0Z" transform="translate(187 544)" fill="#ececec"/>
        </g>
        <text id="_1:28-2" data-name="1:28" transform="translate(-3142 1919)" fill="#3c82ff" font-size="35" font-family="Oxygen-Regular, Oxygen" letter-spacing="0.024em"><tspan x="0" y="0" fill="#000">1:</tspan><tspan y="0" fill="#3c82ff">28</tspan></text>
        <text id="SAT_FEBURARY_23-2" data-name="SAT FEBURARY 23" transform="translate(-3167 1947)" fill="#8b959a" font-size="14" font-family="SegoeUI, Segoe UI"><tspan x="0" y="0">SAT FEBURARY 23</tspan></text>
        <text id="ALARM_NAME-2" data-name="ALARM NAME" transform="translate(-3145 1966)" font-size="10" font-family="Oxygen-Bold, Oxygen" font-weight="700"><tspan x="0" y="0">ALARM NAME</tspan></text>
      </g>
      <g id="Group_10474-3" data-name="Group 10474" transform="translate(3577 -1799)">
        <g transform="matrix(1, 0, 0, 1, -3489, 1293)" filter="url(#Rectangle_137-3)">
          <rect id="Rectangle_137-6" data-name="Rectangle 137" width="168" height="163" rx="4" transform="translate(293 547)" fill="#fff"/>
        </g>
        <g transform="matrix(1, 0, 0, 1, -3489, 1293)" filter="url(#Path_10425-3)">
          <path id="Path_10425-6" data-name="Path 10425" d="M36.5,0A36.5,36.5,0,1,1,0,36.5,36.5,36.5,0,0,1,36.5,0Z" transform="translate(341 512)" fill="#fff"/>
        </g>
        <path id="Path_10423-3" data-name="Path 10423" d="M-3109.787,1843.65l9.4-7.2,5.641-4.322" transform="translate(-17.704 10)" fill="none" stroke="#3c82ff" stroke-linecap="round" stroke-width="2"/>
        <path id="Path_10424-3" data-name="Path 10424" d="M-3111,1842v-15.236" transform="translate(0 -3)" fill="none" stroke="#000" stroke-linecap="round" stroke-width="2"/>
        <g transform="matrix(1, 0, 0, 1, -3489, 1293)" filter="url(#Path_10426-3)">
          <path id="Path_10426-6" data-name="Path 10426" d="M5,0A5,5,0,1,1,0,5,5,5,0,0,1,5,0Z" transform="translate(373 544)" fill="#ececec"/>
        </g>
        <text id="_1:28-3" data-name="1:28" transform="translate(-3142 1919)" fill="#3c82ff" font-size="35" font-family="Oxygen-Regular, Oxygen" letter-spacing="0.024em"><tspan x="0" y="0" fill="#000">1:</tspan><tspan y="0" fill="#3c82ff">28</tspan></text>
        <text id="SAT_FEBURARY_23-3" data-name="SAT FEBURARY 23" transform="translate(-3167 1947)" fill="#8b959a" font-size="14" font-family="SegoeUI, Segoe UI"><tspan x="0" y="0">SAT FEBURARY 23</tspan></text>
        <text id="ALARM_NAME-3" data-name="ALARM NAME" transform="translate(-3145 1966)" font-size="10" font-family="Oxygen-Bold, Oxygen" font-weight="700"><tspan x="0" y="0">ALARM NAME</tspan></text>
      </g>
    </g>
  </g>
</svg>
