<svg xmlns="http://www.w3.org/2000/svg" xmlns:xlink="http://www.w3.org/1999/xlink" width="375" height="812" viewBox="0 0 375 812">
  <defs>
    <filter id="Rectangle_31" x="14" y="661" width="346.295" height="78" filterUnits="userSpaceOnUse">
      <feOffset dy="3" input="SourceAlpha"/>
      <feGaussianBlur stdDeviation="3" result="blur"/>
      <feFlood flood-opacity="0.161"/>
      <feComposite operator="in" in2="blur"/>
      <feComposite in="SourceGraphic"/>
    </filter>
    <clipPath id="clip-Login">
      <rect width="375" height="812"/>
    </clipPath>
  </defs>
  <g id="Login" clip-path="url(#clip-Login)">
    <rect width="375" height="812" fill="#fff"/>
    <g id="Group_10420" data-name="Group 10420" transform="translate(-9362 15005)">
      <g id="Rectangle_31-2" data-name="Rectangle 31" transform="translate(9377 -14692)" fill="#fff" stroke="#e2e6ea" stroke-miterlimit="10" stroke-width="1">
        <rect width="345" height="60" rx="5" stroke="none"/>
        <rect x="0.5" y="0.5" width="344" height="59" rx="4.5" fill="none"/>
      </g>
      <text id="Enter_your_full_name" data-name="Enter your full name" transform="translate(9392 -14656)" fill="#979797" font-size="17" font-family="SegoeUI, Segoe UI"><tspan x="0" y="0">Password</tspan></text>
    </g>
    <g id="Group_10421" data-name="Group 10421" transform="translate(-9362 15005)">
      <g id="Rectangle_31-3" data-name="Rectangle 31" transform="translate(9377 -14772)" fill="#fff" stroke="#e2e6ea" stroke-miterlimit="10" stroke-width="1">
        <rect width="345" height="60" rx="5" stroke="none"/>
        <rect x="0.5" y="0.5" width="344" height="59" rx="4.5" fill="none"/>
      </g>
      <text id="Enter_your_full_name-2" data-name="Enter your full name" transform="translate(9392 -14736)" fill="#979797" font-size="17" font-family="SegoeUI, Segoe UI"><tspan x="0" y="0">Email</tspan></text>
    </g>
    <g id="Group_10422" data-name="Group 10422" transform="translate(-9362 15065)">
      <g id="Rectangle_31-4" data-name="Rectangle 31" transform="translate(9377 -14612)" fill="#0ab5f5" stroke="#e2e6ea" stroke-miterlimit="10" stroke-width="1">
        <rect width="345" height="60" rx="5" stroke="none"/>
        <rect x="0.5" y="0.5" width="344" height="59" rx="4.5" fill="none"/>
      </g>
      <text id="Enter_your_full_name-3" data-name="Enter your full name" transform="translate(9528.763 -14576)" fill="#fff" font-size="17" font-family="SegoeUI, Segoe UI"><tspan x="0" y="0">Login</tspan></text>
    </g>
    <g id="Group_10424" data-name="Group 10424" transform="translate(-516 3176)">
      <g id="Group_10423" data-name="Group 10423" transform="translate(-8846 11625)">
        <g id="Checked" transform="translate(9377 -14408)">
          <text id="Checked-2" data-name="Checked" transform="translate(30 2)" fill="#696969" font-size="15" font-family="SegoeUI, Segoe UI"><tspan x="0" y="16">Remember me</tspan></text>
          <g id="Ellipse_3138" data-name="Ellipse 3138" fill="#fff" stroke="#3c82ff" stroke-width="2">
            <circle cx="10" cy="10" r="10" stroke="none"/>
            <circle cx="10" cy="10" r="9" fill="none"/>
          </g>
          <g id="Ellipse_3139" data-name="Ellipse 3139" transform="translate(5 5)" fill="#3c82ff" stroke="#3c82ff" stroke-width="2">
            <circle cx="5" cy="5" r="5" stroke="none"/>
            <circle cx="5" cy="5" r="4" fill="none"/>
          </g>
        </g>
      </g>
    </g>
    <text id="Checked-3" data-name="Checked" transform="translate(210 395)" fill="#696969" font-size="15" font-family="SegoeUI, Segoe UI"><tspan x="32.278" y="16">Forgot password?</tspan></text>
    <text id="Don_t_have_an_acooun" data-name="Don’t have an acooun" transform="translate(188 545)" fill="#a3a3a3" font-size="13" font-family="SegoeUI, Segoe UI" letter-spacing="-0.024em"><tspan x="-92.668" y="0">Don’t have an acoount ? </tspan><tspan y="0" xml:space="preserve" fill="#404040">  </tspan><tspan y="0" fill="#13a6dd">Sign Up</tspan></text>
    <g id="pre-header" transform="translate(76 105)">
      <text id="Login_Now" data-name="Login Now" transform="translate(51 24)" font-size="26" font-family="SegoeUI, Segoe UI"><tspan x="0" y="0">Login Now</tspan></text>
      <text id="Please_login_to_cont" data-name="Please login to cont" transform="translate(-9 54)" fill="#8b959a" font-size="14" font-family="SegoeUI, Segoe UI"><tspan x="0" y="0">Please login to continue using our app.</tspan></text>
    </g>
    <g id="connect_via_google">
      <g transform="matrix(1, 0, 0, 1, 0, 0)" filter="url(#Rectangle_31)">
        <rect id="Rectangle_31-5" data-name="Rectangle 31" width="328.295" height="60" rx="5" transform="translate(23 667)" fill="#fff"/>
      </g>
      <g id="search" transform="translate(86 683)">
        <path id="Path_10222" data-name="Path 10222" d="M6.237,147.674l-.98,3.657-3.58.076a14.095,14.095,0,0,1-.1-13.139h0l3.187.584,1.4,3.168a8.4,8.4,0,0,0,.079,5.654Z" transform="translate(0 -130.669)" fill="#fbbb00"/>
        <path id="Path_10223" data-name="Path 10223" d="M275.143,208.176a14.065,14.065,0,0,1-5.016,13.6h0l-4.015-.2-.568-3.547a8.386,8.386,0,0,0,3.608-4.282h-7.524v-5.566h13.515Z" transform="translate(-247.248 -196.734)" fill="#518ef8"/>
        <path id="Path_10224" data-name="Path 10224" d="M51.71,317.445h0a14.075,14.075,0,0,1-21.2-4.3l4.56-3.733a8.368,8.368,0,0,0,12.059,4.284Z" transform="translate(-28.832 -292.403)" fill="#28b446"/>
        <path id="Path_10225" data-name="Path 10225" d="M50.1,3.239,45.544,6.971a8.367,8.367,0,0,0-12.336,4.381L28.625,7.6h0A14.073,14.073,0,0,1,50.1,3.239Z" transform="translate(-27.051)" fill="#f14336"/>
      </g>
      <text id="Connect_via_Google-2" data-name="Connect via Google" transform="translate(142 704)" font-size="17" font-family="SegoeUI, Segoe UI"><tspan x="0" y="0">Connect via Google</tspan></text>
    </g>
    <g id="Status_Bar_White" data-name="Status Bar White">
      <rect id="Rectangle" width="375" height="44" fill="none"/>
      <g id="Battery" transform="translate(336 17)">
        <g id="Border" transform="translate(0 0.333)" fill="none" stroke="#000" stroke-miterlimit="10" stroke-width="1" opacity="0.35">
          <rect width="22" height="11.333" rx="2.667" stroke="none"/>
          <rect x="0.5" y="0.5" width="21" height="10.333" rx="2.167" fill="none"/>
        </g>
        <path id="Cap" d="M0,0V4A2.17,2.17,0,0,0,1.328,2,2.17,2.17,0,0,0,0,0" transform="translate(23 4)" opacity="0.4"/>
        <rect id="Capacity" width="18" height="7.333" rx="1.333" transform="translate(2 2.333)"/>
      </g>
      <path id="Wifi" d="M7.637,10.966a.313.313,0,0,1-.221-.093l-2-2.016a.313.313,0,0,1,.01-.456,3.421,3.421,0,0,1,4.419,0,.311.311,0,0,1,.1.226.315.315,0,0,1-.094.23l-2,2.016A.308.308,0,0,1,7.637,10.966Zm3.508-3.538a.312.312,0,0,1-.214-.085,4.9,4.9,0,0,0-6.585,0,.312.312,0,0,1-.214.085.308.308,0,0,1-.22-.091L2.758,6.17a.322.322,0,0,1,0-.459,7.158,7.158,0,0,1,9.752,0,.322.322,0,0,1,.1.229.326.326,0,0,1-.094.23L11.364,7.337A.309.309,0,0,1,11.145,7.428ZM13.8,4.743a.3.3,0,0,1-.214-.087,8.64,8.64,0,0,0-11.907,0,.3.3,0,0,1-.214.087.308.308,0,0,1-.22-.091L.094,3.486a.322.322,0,0,1,0-.456,10.9,10.9,0,0,1,15.08,0,.325.325,0,0,1,.1.228.319.319,0,0,1-.094.229L14.023,4.652A.307.307,0,0,1,13.8,4.743Z" transform="translate(315.694 17.331)"/>
      <path id="Cellular_Connection" data-name="Cellular Connection" d="M16,10.667H15a1,1,0,0,1-1-1V1a1,1,0,0,1,1-1h1a1,1,0,0,1,1,1V9.667A1,1,0,0,1,16,10.667Zm-4.667,0h-1a1,1,0,0,1-1-1V3.334a1,1,0,0,1,1-1h1a1,1,0,0,1,1,1V9.667A1,1,0,0,1,11.334,10.667Zm-4.667,0h-1a1,1,0,0,1-1-1v-4a1,1,0,0,1,1-1h1a1,1,0,0,1,1,1v4A1,1,0,0,1,6.666,10.667ZM2,10.667H1a1,1,0,0,1-1-1v-2a1,1,0,0,1,1-1H2a1,1,0,0,1,1,1v2A1,1,0,0,1,2,10.667Z" transform="translate(293.667 17.667)"/>
      <g id="Time_Style" data-name="Time Style" transform="translate(21 13)">
        <rect id="Time_Style_background" data-name="Time Style background" width="54" height="21" fill="rgba(0,0,0,0)"/>
        <text id="_Time" data-name="↳ Time" transform="translate(0 2)" font-size="14" font-family="SegoeUI, Segoe UI"><tspan x="14.582" y="15" letter-spacing="-0.02em">9:4</tspan><tspan y="15">1</tspan></text>
      </g>
    </g>
    <g id="Home_Indidcator" data-name="Home Indidcator" transform="translate(-13 432)">
      <rect id="Background" width="375" height="34" transform="translate(13 346)" fill="none"/>
      <rect id="Bar" width="134" height="5" rx="2.5" transform="translate(134 366)"/>
    </g>
  </g>
</svg>
