<svg xmlns="http://www.w3.org/2000/svg" xmlns:xlink="http://www.w3.org/1999/xlink" width="375" height="812" viewBox="0 0 375 812">
  <defs>
    <linearGradient id="linear-gradient" x1="0.5" y1="1" x2="0.5" y2="0.001" gradientUnits="objectBoundingBox">
      <stop offset="0" stop-color="gray" stop-opacity="0.251"/>
      <stop offset="0.54" stop-color="gray" stop-opacity="0.122"/>
      <stop offset="1" stop-color="gray" stop-opacity="0.102"/>
    </linearGradient>
    <linearGradient id="linear-gradient-2" x1="0.5" y1="1" x2="0.5" y2="0" xlink:href="#linear-gradient"/>
    <clipPath id="clip-Overview_-_3">
      <rect width="375" height="812"/>
    </clipPath>
  </defs>
  <g id="Overview_-_3" data-name="Overview - 3" clip-path="url(#clip-Overview_-_3)">
    <rect width="375" height="812" fill="#fff"/>
    <g id="Status_Bar_White" data-name="Status Bar White">
      <rect id="Rectangle" width="375" height="44" fill="none"/>
      <g id="Battery" transform="translate(336 17)">
        <g id="Border" transform="translate(0 0.333)" fill="none" stroke="#000" stroke-miterlimit="10" stroke-width="1" opacity="0.35">
          <rect width="22" height="11.333" rx="2.667" stroke="none"/>
          <rect x="0.5" y="0.5" width="21" height="10.333" rx="2.167" fill="none"/>
        </g>
        <path id="Cap" d="M0,0V4A2.17,2.17,0,0,0,1.328,2,2.17,2.17,0,0,0,0,0" transform="translate(23 4)" opacity="0.4"/>
        <rect id="Capacity" width="18" height="7.333" rx="1.333" transform="translate(2 2.333)"/>
      </g>
      <path id="Wifi" d="M7.637,10.966a.313.313,0,0,1-.221-.093l-2-2.016a.313.313,0,0,1,.01-.456,3.421,3.421,0,0,1,4.419,0,.311.311,0,0,1,.1.226.315.315,0,0,1-.094.23l-2,2.016A.308.308,0,0,1,7.637,10.966Zm3.508-3.538a.312.312,0,0,1-.214-.085,4.9,4.9,0,0,0-6.585,0,.312.312,0,0,1-.214.085.308.308,0,0,1-.22-.091L2.758,6.17a.322.322,0,0,1,0-.459,7.158,7.158,0,0,1,9.752,0,.322.322,0,0,1,.1.229.326.326,0,0,1-.094.23L11.364,7.337A.309.309,0,0,1,11.145,7.428ZM13.8,4.743a.3.3,0,0,1-.214-.087,8.64,8.64,0,0,0-11.907,0,.3.3,0,0,1-.214.087.308.308,0,0,1-.22-.091L.094,3.486a.322.322,0,0,1,0-.456,10.9,10.9,0,0,1,15.08,0,.325.325,0,0,1,.1.228.319.319,0,0,1-.094.229L14.023,4.652A.307.307,0,0,1,13.8,4.743Z" transform="translate(315.694 17.331)"/>
      <path id="Cellular_Connection" data-name="Cellular Connection" d="M16,10.667H15a1,1,0,0,1-1-1V1a1,1,0,0,1,1-1h1a1,1,0,0,1,1,1V9.667A1,1,0,0,1,16,10.667Zm-4.667,0h-1a1,1,0,0,1-1-1V3.334a1,1,0,0,1,1-1h1a1,1,0,0,1,1,1V9.667A1,1,0,0,1,11.334,10.667Zm-4.667,0h-1a1,1,0,0,1-1-1v-4a1,1,0,0,1,1-1h1a1,1,0,0,1,1,1v4A1,1,0,0,1,6.666,10.667ZM2,10.667H1a1,1,0,0,1-1-1v-2a1,1,0,0,1,1-1H2a1,1,0,0,1,1,1v2A1,1,0,0,1,2,10.667Z" transform="translate(293.667 17.667)"/>
      <g id="Time_Style" data-name="Time Style" transform="translate(21 13)">
        <rect id="Time_Style_background" data-name="Time Style background" width="54" height="21" fill="rgba(0,0,0,0)"/>
        <text id="_Time" data-name="↳ Time" transform="translate(0 2)" font-size="14" font-family="SegoeUI, Segoe UI"><tspan x="14.582" y="15" letter-spacing="-0.02em">9:4</tspan><tspan y="15">1</tspan></text>
      </g>
    </g>
    <g id="pre-header" transform="translate(110 105)">
      <text id="Login_Now" data-name="Login Now" transform="translate(5 24)" font-size="26" font-family="SegoeUI, Segoe UI"><tspan x="0" y="0">Components</tspan></text>
      <text id="Please_login_to_cont" data-name="Please login to cont" transform="translate(-41 54)" fill="#8b959a" font-size="14" font-family="SegoeUI, Segoe UI"><tspan x="0" y="0">What made and power our application</tspan></text>
    </g>
    <text id="Lorem_ipsum_dolor_sit_amet_consectetur_adipiscing_elit._Suspendisse_laoreet_sollicitudin_tristique._Maecenas_eget_euismod_ligula._Ut_arcu_dolor_pretium_in_justo_porta_elementum_rhoncus_ipsum._Fusce_rutrum" data-name="Lorem ipsum dolor sit amet, consectetur adipiscing elit. Suspendisse laoreet sollicitudin tristique. Maecenas eget euismod ligula. Ut arcu dolor, pretium in justo porta, elementum rhoncus ipsum. Fusce rutrum" transform="translate(36 473)" fill="#8b959a" font-size="14" font-family="SegoeUI, Segoe UI"><tspan x="26.528" y="15">Lorem ipsum dolor sit amet, consectetur </tspan><tspan x="8.727" y="34">adipiscing elit. Suspendisse laoreet sollicitudin </tspan><tspan x="2.824" y="53">tristique. Maecenas eget euismod ligula. Ut arcu </tspan><tspan x="25.284" y="72">dolor, pretium in justo porta, elementum </tspan><tspan x="61.9" y="91">rhoncus ipsum. Fusce rutrum</tspan></text>
    <g id="overview-bar" transform="translate(70 -64)">
      <g id="Ellipse_3174" data-name="Ellipse 3174" transform="translate(91 754)" fill="none" stroke="#13a6dd" stroke-width="1">
        <circle cx="7" cy="7" r="7" stroke="none"/>
        <circle cx="7" cy="7" r="6.5" fill="none"/>
      </g>
      <g id="Ellipse_3175" data-name="Ellipse 3175" transform="translate(111 754)" fill="none" stroke="#13a6dd" stroke-width="1">
        <circle cx="7" cy="7" r="7" stroke="none"/>
        <circle cx="7" cy="7" r="6.5" fill="none"/>
      </g>
      <g id="Ellipse_3206" data-name="Ellipse 3206" transform="translate(151 754)" fill="none" stroke="#13a6dd" stroke-width="1">
        <circle cx="7" cy="7" r="7" stroke="none"/>
        <circle cx="7" cy="7" r="6.5" fill="none"/>
      </g>
      <g id="Ellipse_3176" data-name="Ellipse 3176" transform="translate(131 754)" fill="#0ab5f5" stroke="#13a6dd" stroke-width="1">
        <circle cx="7" cy="7" r="7" stroke="none"/>
        <circle cx="7" cy="7" r="6.5" fill="none"/>
      </g>
    </g>
    <g id="undraw_product_teardown_elol" transform="translate(46 181.836)">
      <ellipse id="Ellipse_3180" data-name="Ellipse 3180" cx="36.279" cy="6.241" rx="36.279" ry="6.241" transform="translate(193.708 223.961)" fill="#0ab5f5" opacity="0.1"/>
      <ellipse id="Ellipse_3181" data-name="Ellipse 3181" cx="53.711" cy="3.799" rx="53.711" ry="3.799" transform="translate(66.431 220.298)" fill="#0ab5f5" opacity="0.1"/>
      <path id="Path_10258" data-name="Path 10258" d="M223.526,50.43c9.619-8.572,24.719-10.318,38.452-9.634,43.164,2.136,82.126,22.983,115.83,46.552,12.207,8.545,24.213,17.728,32.132,29.48,16.122,23.92,11.34,57.068-11.078,76.761-7.629,6.714-16.873,11.844-26.367,16.4-16.876,8.1-35.1,14.606-54.242,16.455-13.66,1.321-27.49.247-41.071-1.593C239.242,219.7,202,208.325,170.794,188.858c-13.69-8.545-26.6-19.153-32.239-32.959s-2.029-31.317,11.948-39.493c5.8-3.381,12.7-4.907,19.464-6.342,9.961-2.112,20.084-4.193,29.074-8.484,9.29-4.437,20.276-13.01,18.445-22.818C215.5,68.23,213.919,58.99,223.526,50.43Z" transform="translate(-135.748 -40.66)" fill="#0ab5f5" opacity="0.1"/>
      <line id="Line_9" data-name="Line 9" x1="2.298" transform="translate(47.751 53.99)" fill="#0ab5f5"/>
      <g id="Group_10449" data-name="Group 10449" transform="translate(72.952 35.639)" opacity="0.1">
        <path id="Path_10259" data-name="Path 10259" d="M427.63,570.624a6.032,6.032,0,0,0,5.078,3.278c3.534,0,6.409-3.745,6.409-8.368s-2.884-8.337-6.409-8.337a5.649,5.649,0,0,0-4.318,2.194,8.273,8.273,0,0,0-1.09,1.706l-.061.363a2.819,2.819,0,0,1-3.223.095V534.448H397.551a2.136,2.136,0,0,1-.32-2A2.551,2.551,0,0,1,398.424,531a6.036,6.036,0,0,0,3.281-5.078c0-3.534-3.748-6.409-8.368-6.409s-8.368,2.866-8.368,6.409a5.658,5.658,0,0,0,2.2,4.321,8.319,8.319,0,0,0,1.7,1.086l.037.061a2.6,2.6,0,0,1,.51,3.052H377.48v50.2a11.9,11.9,0,0,0,11.9,11.9h34.644V569.9a2.109,2.109,0,0,1,2.158-.458A2.527,2.527,0,0,1,427.63,570.624Z" transform="translate(-376.482 -409.015)"/>
        <path id="Path_10260" data-name="Path 10260" d="M380.817,282.116h4.144a8.365,8.365,0,0,1-3.268-6.564c0-4.758,4.15-8.612,9.268-8.612s9.271,3.854,9.271,8.612a8.365,8.365,0,0,1-3.268,6.564h24.841V255.374a2.136,2.136,0,0,1,2.158-.458,2.542,2.542,0,0,1,1.459,1.193,6.024,6.024,0,0,0,5.078,3.278c3.534,0,6.409-3.744,6.409-8.365s-2.863-8.368-6.409-8.368a5.66,5.66,0,0,0-4.321,2.194,8.431,8.431,0,0,0-1.09,1.706l-.058.037a2.606,2.606,0,0,1-3.226.43v-27.1H396.326a2.136,2.136,0,0,1-.32-2,2.536,2.536,0,0,1,1.193-1.456,6.028,6.028,0,0,0,3.278-5.078c0-3.534-3.745-6.409-8.365-6.409s-8.368,2.866-8.368,6.409a5.66,5.66,0,0,0,2.194,4.321,8.434,8.434,0,0,0,1.706,1.089l.037.058a2.6,2.6,0,0,1,.51,3.052h-7.373v-1.373h5.444A8.362,8.362,0,0,1,383,211.987c0-4.758,4.15-8.615,9.271-8.615s9.268,3.857,9.268,8.615a8.362,8.362,0,0,1-3.281,6.561h23.529V191.479a2.118,2.118,0,0,1,2.161-.458,2.545,2.545,0,0,1,1.456,1.193,6.028,6.028,0,0,0,5.078,3.278c3.534,0,6.409-3.745,6.409-8.368s-2.863-8.365-6.409-8.365a5.65,5.65,0,0,0-4.321,2.194,8.265,8.265,0,0,0-1.089,1.706l-.058.363a2.823,2.823,0,0,1-3.226.095V157.87H387.156a11.9,11.9,0,0,0-11.9,11.9v12.885h-.18a.7.7,0,0,0-.7.7v6.1a.7.7,0,0,0,.7.7h.18v6.232h-.235a.7.7,0,0,0-.7.7v11.655a.7.7,0,0,0,.7.7h.235v4.578h-.192a.7.7,0,0,0-.7.7v3.754h-.153v7.91a.7.7,0,0,0,.7.7h.208v55.035Z" transform="translate(-374.21 -157.739)"/>
        <path id="Path_10261" data-name="Path 10261" d="M585.3,200.793a.7.7,0,0,0-.7-.7h-.421v-.766h-.229V168.884A11.441,11.441,0,0,0,572.5,157.44H538.17v23.193a8.469,8.469,0,0,1,6.714-3.372c4.794,0,8.682,4.153,8.682,9.274s-3.888,9.274-8.682,9.274a8.463,8.463,0,0,1-6.714-3.372v25.736h27.771a8.384,8.384,0,0,1-3.262-6.57c0-4.764,4.141-8.624,9.253-8.624a9.6,9.6,0,0,1,6.216,2.24,8.154,8.154,0,0,1,0,12.741v.2h6.027v-.021h1.12Z" transform="translate(-488.133 -157.44)"/>
        <path id="Path_10262" data-name="Path 10262" d="M575.326,532.168v-3.052h0a5.782,5.782,0,0,0,.345-.571,5.084,5.084,0,0,0,.629-2.426,5,5,0,0,0-.287-1.66,5.494,5.494,0,0,0-.687-1.337h0a8.968,8.968,0,0,0-7.391-3.4c-4.623,0-8.368,2.866-8.368,6.409a5.66,5.66,0,0,0,2.194,4.321,8.428,8.428,0,0,0,1.706,1.089l.037.058a2.606,2.606,0,0,1,.51,3.052H537.09v25.024a8.365,8.365,0,0,1,6.644-3.357c4.758,0,8.612,4.15,8.612,9.268s-3.854,9.271-8.612,9.271a8.365,8.365,0,0,1-6.644-3.357v20.2h30.893a7.343,7.343,0,0,0,7.343-7.324V534.658h0v49.683a7.343,7.343,0,0,1-7.343,7.343H537.09v4.883h32.043a11.9,11.9,0,0,0,11.9-11.9V534.658h0v-1.312h-5.71Z" transform="translate(-487.383 -409.161)"/>
      </g>
      <path id="Path_10263" data-name="Path 10263" d="M391.532,621.65a7.342,7.342,0,0,1-7.343-7.342V564.46h-5.71v50.186a11.9,11.9,0,0,0,11.9,11.9h34.644v-4.883Z" transform="translate(-304.225 -404.608)" fill="#3a3768"/>
      <path id="Path_10264" data-name="Path 10264" d="M440.162,565.443a2.527,2.527,0,0,1,1.456,1.193,6.032,6.032,0,0,0,5.078,3.278c3.534,0,6.409-3.745,6.409-8.368s-2.872-8.35-6.4-8.35a5.649,5.649,0,0,0-4.318,2.194A8.265,8.265,0,0,0,441.3,557.1l-.061.363a2.819,2.819,0,0,1-3.223.095V530.448H411.552a2.136,2.136,0,0,1-.32-2A2.552,2.552,0,0,1,412.424,527a6.035,6.035,0,0,0,3.281-5.078c0-3.534-3.748-6.409-8.368-6.409s-8.368,2.866-8.368,6.409a5.658,5.658,0,0,0,2.2,4.321,8.318,8.318,0,0,0,1.7,1.086l.037.061a2.6,2.6,0,0,1,.51,3.052H397.19V580.3a7.343,7.343,0,0,0,7.343,7.343h33.493V565.9A2.109,2.109,0,0,1,440.162,565.443Z" transform="translate(-317.225 -370.596)" fill="#0ab5f5"/>
      <rect id="Rectangle_119" data-name="Rectangle 119" width="0.906" height="1.477" transform="translate(73.248 95.127)" fill="#3a3768"/>
      <rect id="Rectangle_120" data-name="Rectangle 120" width="4.953" height="1.477" transform="translate(74.912 95.127)" fill="#3a3768"/>
      <rect id="Rectangle_121" data-name="Rectangle 121" width="0.757" height="1.477" transform="translate(74.155 95.127)" fill="#3a3768"/>
      <path id="Path_10265" data-name="Path 10265" d="M537.09,566.33" transform="translate(-414.43 -405.907)" fill="#0ab5f5"/>
      <path id="Path_10266" data-name="Path 10266" d="M375.858,364.335h.208V357.2h-.916v6.436a.7.7,0,0,0,.708.7Z" transform="translate(-301.911 -260.599)" fill="#3a3768"/>
      <path id="Path_10267" data-name="Path 10267" d="M383.86,357.2h-4.953v6.436a.7.7,0,0,1-.7.7h-.055v55.06h5.71Z" transform="translate(-303.995 -260.599)" fill="#3a3768"/>
      <path id="Path_10268" data-name="Path 10268" d="M378.15,364.335h.055a.7.7,0,0,0,.7-.7V357.2h-.757Z" transform="translate(-303.995 -260.599)" fill="#3a3768"/>
      <path id="Path_10269" data-name="Path 10269" d="M397.736,378.807c0-4.758,4.15-8.612,9.268-8.612s9.271,3.854,9.271,8.612a8.365,8.365,0,0,1-3.268,6.577h24.841V358.641a2.136,2.136,0,0,1,2.158-.458,2.542,2.542,0,0,1,1.459,1.193,6.024,6.024,0,0,0,5.078,3.278c3.534,0,6.409-3.745,6.409-8.365s-2.863-8.368-6.409-8.368a5.66,5.66,0,0,0-4.321,2.194,8.434,8.434,0,0,0-1.089,1.706l-.058.037a2.606,2.606,0,0,1-3.226.43v-27.1H412.369a2.136,2.136,0,0,1-.32-2,2.536,2.536,0,0,1,1.193-1.456,6.028,6.028,0,0,0,3.278-5.078c0-3.534-3.745-6.409-8.365-6.409s-8.368,2.866-8.368,6.409a5.66,5.66,0,0,0,2.194,4.321,8.433,8.433,0,0,0,1.706,1.089l.037.058a2.6,2.6,0,0,1,.51,3.052H396.86v62.2H401A8.365,8.365,0,0,1,397.736,378.807Z" transform="translate(-316.995 -226.587)" fill="#0ab5f5"/>
      <path id="Path_10270" data-name="Path 10270" d="M379.407,338.149a.7.7,0,0,0-.7-.7h-.055V342h.757Z" transform="translate(-304.343 -246.876)" fill="#3a3768"/>
      <path id="Path_10271" data-name="Path 10271" d="M376.621,235.07h-.153a.7.7,0,0,0-.7.7v6.1a.7.7,0,0,0,.7.7h.18v-7.5Z" transform="translate(-302.342 -175.74)" fill="#3a3768"/>
      <path id="Path_10272" data-name="Path 10272" d="M376.282,280.05a.7.7,0,0,0-.7.7V292.4a.7.7,0,0,0,.7.7h.235V280.05Z" transform="translate(-302.21 -206.993)" fill="#3a3768"/>
      <path id="Path_10273" data-name="Path 10273" d="M376.607,337.78h-.2a.7.7,0,0,0-.7.7v3.854h.916Z" transform="translate(-302.3 -247.105)" fill="#3a3768"/>
      <path id="Path_10274" data-name="Path 10274" d="M378.636,165.769v12.885a.7.7,0,0,1,.671.7v6.1a.7.7,0,0,1-.671.7v6.232h.107a.7.7,0,0,1,.7.7v11.655a.7.7,0,0,1-.7.7h-.113v4.578h.055a.7.7,0,0,1,.7.7v3.839h4.953V166.117a7.343,7.343,0,0,1,7.339-7.343h9.952v1.276a6.046,6.046,0,0,0,6.046,6.046h17.508V162.1h-8.06a1.187,1.187,0,0,1-1.181-1.175v-.256a1.184,1.184,0,0,1,1.181-1.181h8.044V153.87H390.532a11.9,11.9,0,0,0-11.9,11.9Z" transform="translate(-304.329 -119.32)" fill="#3a3768"/>
      <path id="Path_10275" data-name="Path 10275" d="M379.321,241.869v-6.1a.7.7,0,0,0-.671-.7v7.492a.7.7,0,0,0,.671-.693Z" transform="translate(-304.343 -175.74)" fill="#3a3768"/>
      <path id="Path_10276" data-name="Path 10276" d="M379.462,292.4V280.749a.7.7,0,0,0-.7-.7h-.113V293.1h.107a.7.7,0,0,0,.7-.7Z" transform="translate(-304.343 -206.993)" fill="#3a3768"/>
      <path id="Path_10277" data-name="Path 10277" d="M399.386,219.132c0-4.758,4.15-8.615,9.271-8.615s9.268,3.857,9.268,8.615a8.362,8.362,0,0,1-3.281,6.561h23.529V198.624a2.118,2.118,0,0,1,2.161-.458,2.545,2.545,0,0,1,1.456,1.193,6.028,6.028,0,0,0,5.078,3.278c3.534,0,6.409-3.745,6.409-8.368s-2.863-8.365-6.409-8.365a5.65,5.65,0,0,0-4.321,2.194,8.266,8.266,0,0,0-1.089,1.706l-.058.363a2.823,2.823,0,0,1-3.226.095V177.231h-17.5a6.046,6.046,0,0,1-6.03-6.046V169.91H404.7a7.343,7.343,0,0,0-7.34,7.352v48.431h5.292A8.362,8.362,0,0,1,399.386,219.132Z" transform="translate(-317.343 -130.465)" fill="#0ab5f5"/>
      <path id="Path_10278" data-name="Path 10278" d="M502.081,172.26a1.184,1.184,0,0,0-1.181,1.181v.266a1.187,1.187,0,0,0,1.181,1.184h8.044v-2.621Z" transform="translate(-389.285 -132.098)" fill="#e6e8ec"/>
      <path id="Path_10279" data-name="Path 10279" d="M683.17,291.419v18.115h2.06V290.69h-1.114A.86.86,0,0,0,683.17,291.419Z" transform="translate(-515.93 -214.386)" fill="#3a3768"/>
      <rect id="Rectangle_122" data-name="Rectangle 122" width="2.441" height="5.493" transform="translate(123.294 34.419)" fill="#3a3768"/>
      <rect id="Rectangle_123" data-name="Rectangle 123" width="2.441" height="3.967" transform="translate(123.294 42.658)" fill="#3a3768"/>
      <rect id="Rectangle_124" data-name="Rectangle 124" width="2.441" height="2.747" transform="translate(123.294 39.912)" fill="#e6e8ec"/>
      <path id="Path_10280" data-name="Path 10280" d="M689.994,293.2h-.574v18.057h1.273V293.9a.7.7,0,0,0-.7-.7Z" transform="translate(-520.273 -216.13)" fill="#3a3768"/>
      <path id="Path_10281" data-name="Path 10281" d="M546.472,158.933c.65.146,1.221,1.331,1.221,1.331v.256s-.574,1.181-1.221,1.16h0v3.967h13.791a6.049,6.049,0,0,0,6.046-6.049v-1.276h10.376a7.339,7.339,0,0,1,7.324,7.34v35.556a8.154,8.154,0,0,1,0,12.741v.2h4.272V196.253a.088.088,0,0,1,.092-.089h1.434V164.884a11.441,11.441,0,0,0-11.444-11.444H546.17v5.493Zm4.62-.027a1.486,1.486,0,1,1-1.486,1.486,1.486,1.486,0,0,1,1.486-1.486Z" transform="translate(-420.739 -119.021)" fill="#3a3768"/>
      <path id="Path_10282" data-name="Path 10282" d="M545.834,184.375c4.794,0,8.682,4.153,8.682,9.274s-3.888,9.274-8.682,9.274a8.463,8.463,0,0,1-6.714-3.372v25.736h27.771a8.383,8.383,0,0,1-3.262-6.57c0-4.764,4.141-8.624,9.253-8.624a9.6,9.6,0,0,1,6.232,2.243V176.78a7.34,7.34,0,0,0-7.324-7.339H561.413v1.276a6.049,6.049,0,0,1-6.046,6.049H539.135v10.986A8.469,8.469,0,0,1,545.834,184.375Z" transform="translate(-415.841 -130.139)" fill="#0ab5f5"/>
      <path id="Path_10283" data-name="Path 10283" d="M546.465,174.187a1.221,1.221,0,0,0,1.221-1.16v-.256a1.526,1.526,0,0,0-1.221-1.331h-.305v2.747Z" transform="translate(-420.733 -131.528)" fill="#e6e8ec"/>
      <circle id="Ellipse_3182" data-name="Ellipse 3182" cx="1.486" cy="1.486" r="1.486" transform="translate(128.648 40.134) rotate(-9.22)" fill="#e6e8ec"/>
      <path id="Path_10284" data-name="Path 10284" d="M663.38,535.915v-3.052a5.1,5.1,0,0,0,0-5.994Z" transform="translate(-502.18 -378.489)" fill="#3a3768"/>
      <rect id="Rectangle_125" data-name="Rectangle 125" width="5.71" height="1.312" transform="translate(161.2 158.604)" fill="#3a3768"/>
      <path id="Path_10285" data-name="Path 10285" d="M652.843,548.6a2.545,2.545,0,0,0-1.193,1.456,2.136,2.136,0,0,0,.32,2h3.177V550.74h-1.221a9.146,9.146,0,0,0,1.221-1.178V546.51a7.228,7.228,0,0,1-2.3,2.087Z" transform="translate(-493.947 -392.136)" fill="#0ab5f5"/>
      <path id="Path_10286" data-name="Path 10286" d="M659.36,557.688h1.221V556.51A9.15,9.15,0,0,1,659.36,557.688Z" transform="translate(-499.387 -399.084)" fill="#0ab5f5"/>
      <path id="Path_10287" data-name="Path 10287" d="M664.354,529.887a5.21,5.21,0,0,0-.974-3v5.991A5.221,5.221,0,0,0,664.354,529.887Z" transform="translate(-502.18 -378.503)" fill="#3a3768"/>
      <path id="Path_10288" data-name="Path 10288" d="M582.035,564.67v50.021a11.9,11.9,0,0,1-11.9,11.9H538.09V621.71h30.893a7.342,7.342,0,0,0,7.343-7.342v-49.7Z" transform="translate(-415.125 -404.754)" fill="#3a3768"/>
      <path id="Path_10289" data-name="Path 10289" d="M572.828,528.673a2.546,2.546,0,0,1,1.193-1.456,7.225,7.225,0,0,0,2.3-2.084v-5.991a8.968,8.968,0,0,0-7.391-3.4c-4.623,0-8.368,2.866-8.368,6.409a5.66,5.66,0,0,0,2.194,4.321,8.431,8.431,0,0,0,1.706,1.089l.037.058a2.606,2.606,0,0,1,.51,3.052H538.09v25.025a8.365,8.365,0,0,1,6.644-3.357c4.758,0,8.612,4.15,8.612,9.268s-3.854,9.271-8.612,9.271a8.365,8.365,0,0,1-6.644-3.357v20.2h30.893a7.343,7.343,0,0,0,7.343-7.324V530.672h-3.168A2.136,2.136,0,0,1,572.828,528.673Z" transform="translate(-415.125 -370.756)" fill="#0ab5f5"/>
      <path id="Path_10290" data-name="Path 10290" d="M842.18,287.6a5.763,5.763,0,0,0,3.394-3.711,4.681,4.681,0,0,0,.116-.61,5.425,5.425,0,0,0,.2-.583,5.613,5.613,0,0,0-1.166-4.846l-2.231,8.545h0Z" transform="translate(-626.414 -205.464)" fill="url(#linear-gradient)"/>
      <path id="Path_10291" data-name="Path 10291" d="M768.343,210.828c-.348-2.042-6.793-6.464-6.793-6.464a18.091,18.091,0,0,1-4.355-3.29c-.964-1.123-1.267-1.111-1.358-.958a.458.458,0,0,0-.208-.07c-.061-.043-.119-.082-.174-.128h0a.412.412,0,0,0-.241-.418c-.073-.043-.146-.1-.22-.15a6.917,6.917,0,0,1-.72-3c-.073-1.279-1.526-.958-2.023-.815-.342-.641-.674-1.306-.989-1.971a3.62,3.62,0,0,0,.345-.687c.9-1.95.7-4.187,1.093-6.25a18.13,18.13,0,0,0,.751-4.5v-.085a3.855,3.855,0,0,0-.247-1.062c-.259-.653-.711-1.221-.915-1.9-.327-.986-.119-2.072-.391-3.07a4.588,4.588,0,0,0-2.615-2.8,13,13,0,0,0-3.879-.916c-3.311-.415-6.83-.662-9.851.729a1.77,1.77,0,0,1-.916.247,2.81,2.81,0,0,1-.836-.388,2.544,2.544,0,0,0-2.557.391,7.354,7.354,0,0,0-1.7,2.063,6.421,6.421,0,0,1-1.755,2.017c-.882.589-2.048.787-2.747,1.581a2.554,2.554,0,0,0-.568,1.318v-.021a1.654,1.654,0,0,0,0,.174v.641a8.329,8.329,0,0,0,.589,2.167,3.014,3.014,0,0,0,.8,1.361c1.062.864,2.747.049,4.028.531.113.04.22.092.327.14a.608.608,0,0,1-.049.15,10.13,10.13,0,0,0-.412,2.872,10.5,10.5,0,0,0,10.626,10.376,5.821,5.821,0,0,0,.653-.024c.03.113.064.229.091.339a11.254,11.254,0,0,1,.305,3.882l-.064-.568a2.819,2.819,0,0,0-.443-.168,3.948,3.948,0,0,0-1.318-.2c-1.443-.018-3.616.562-5.936,3.375,0,0-2.96,1.645-3.83,2.042a.408.408,0,0,0-.162.183h0s-3.958,5.978-4.367,8.252-.916,4.883-.916,4.883-.989,2.948-1.627,4.254a14.025,14.025,0,0,0-1.276,3.119,2.692,2.692,0,0,1-.989,2.606c-1.221.793-1.526,2.948-1.526,2.948s-.61.574-1.474,1.3h-.03l3.189-12.228.571.143a.733.733,0,0,0,.751-.256.681.681,0,0,0,.125-.253l.644-2.478.259-.986.052-.2.375-1.437-1.27-.305-1.486-.369-4.2-1.059.366-1.4h0l.305-1.19h0l1.92-7.367h0l.305-1.187a10.059,10.059,0,0,0-5.554-3.461c-4.608-1.144-9.07.717-9.967,4.156a4.685,4.685,0,0,0-.119.61,4.454,4.454,0,0,0-.192.58,4.907,4.907,0,0,0-.122,1.831q.018.15.046.305a6.282,6.282,0,0,0,1.169,2.615,8.337,8.337,0,0,0,1.425,1.48l.021.067a2.786,2.786,0,0,1,.4,1.221v.189a2.809,2.809,0,0,1-.366.513l-28.156-7-.305,1.187h0l-6.342,24.368h0a9.19,9.19,0,0,1,2.747-1.45,8.945,8.945,0,0,1,1.19-.305l.143-.024a8.5,8.5,0,0,1,3.412.14,8.73,8.73,0,0,1,6.476,7.48,9.1,9.1,0,0,1,.076,1.358,9.568,9.568,0,0,1-.183,1.724,9.191,9.191,0,0,1-10.767,6.3,8.545,8.545,0,0,1-5.768-4.929l-.305,1.19h0L661.8,269.449l24.936,6.2h0l.268-1.2h.04a8.286,8.286,0,0,1-1.721-6.6.351.351,0,0,1,.04-.116c.031-.089.064-.174.1-.259a8.4,8.4,0,0,1,.61-1.205c.122-.2.25-.391.388-.577q.128-.174.266-.339a8.667,8.667,0,0,1,1.492-1.422l.177-.128c.2-.143.409-.281.61-.409.125-.073.253-.146.382-.214a9.9,9.9,0,0,1,4.8-1.144,10.534,10.534,0,0,1,2.38.305,9.869,9.869,0,0,1,5.887,4.092,8.912,8.912,0,0,1,.5.854,8.354,8.354,0,0,1,.864,2.789,7.9,7.9,0,0,1-.061,2.335,8.307,8.307,0,0,1-3.229,4.178l-.305,1.147h.034l-.046.034-.305,1.144,5.695,1.416,8.066-30.838c2.176-.253,3.29-1.221,3.29-1.361a15.959,15.959,0,0,1,4.065-1.987c.72-.2,1.553-.336,2.216-.476-.781,3.879-1.526,7.629-1.459,7.849.021.085.162-.049.375-.342a1.65,1.65,0,0,0-.028.342c0,.058.082.015.189-.1l-.015.073s-4.529,8.762-4.883,9.766.086,3.574,1.48,4.425a2.984,2.984,0,0,1,.714.632l-.165.327a6.6,6.6,0,0,0-.9,2.954,4,4,0,0,1-.61,2.637s-3.922,12.119-3.833,15.607-1.395,11.142-1.395,11.142-1.611,4.932-.653,6.335,2.048,7.529,2.048,7.529a6.212,6.212,0,0,1,.7,2.594,12.826,12.826,0,0,0,.7,3.357l2.441,8.8a7.805,7.805,0,0,0,.653,4c.916,1.657.827,1.147.391,4.041s.525,5.569,2.091,6.409a.957.957,0,0,1,.452,1.325h0c-.4-.156-.732.671-.931,1.34l-.2.192.134.034c-.086.305-.134.562-.134.562s-4.092,3.4-4.355,4.636S712.9,354,712.9,354a50.575,50.575,0,0,0-5.493,1.785,2.075,2.075,0,0,0-1.2,1.651,4.526,4.526,0,0,0,.159,1.666c.433,1.743,6.531,1.913,9.46,1.447s8.969-2.17,8.969-2.17,6.36-.61,8.24-1.361.391-2.722.391-2.722v-.183c.046-.711.177-3.29-.275-3.967a5.766,5.766,0,0,1-.281-2.661c1.273-2.289-1.459-9.155-1.459-9.155s.522-6.714.174-7.7-1.831-9.314-1.831-9.314-.915-3.784-.565-4.422-.22-2.469-.22-2.469-1.492-2.036-1.358-2.676a3.812,3.812,0,0,0-.436-1.785s4.443-6.635,4.05-7.867a7.087,7.087,0,0,1,.177-3.232s.558-.94,1.221-2.066c.824-1.379,1.831-3.03,2.161-3.546a44.54,44.54,0,0,0,2.029-5.057c.244-.684.409-1.154.409-1.154s.7,12.512,1.306,13.779,1.526,11.356,1.526,11.356a6.9,6.9,0,0,1,.436,2.808c-.086,1.572,1.395,8.42,1.395,8.42s.653,4.846.217,6.122-.085,10.681-.085,10.681-2.4,1.831-3.006,3.232.086,5.231.086,5.231l.281.131a8.078,8.078,0,0,0-.5,1.654c-.085.809-1.395,4.468-1.263,4.977s-.565,2.084-.653,2.89-1.175,2-1.263,2.426a10.387,10.387,0,0,1-.479,1.12,10.679,10.679,0,0,0-.565,1.727c-.436,1.788,4.745,2.084,4.745,2.084,7.666,1.4,9.061-4.337,9.061-4.337s.958-5.1,1.306-5.493a.61.61,0,0,0,.058-.485h0a6.471,6.471,0,0,0-1.1-2.4,2.859,2.859,0,0,1-.22-1.666,3.848,3.848,0,0,0,.656-.122c3.091-.891,1.831-6.039,1.831-6.039s2.091-3.4,2.091-4.718a52.249,52.249,0,0,1,.742-5.359c2.658-4.764,1.611-16.33,2.048-17.267s-.915-4.422-2.005-6-.653-5.826,0-7.059-.653-5.493-.653-5.493,1.263-8.24,1.221-9.528a27.663,27.663,0,0,1,1.089-5.06s1.132-1.956.87-2.551.87-2.136.568-2.808.259-2.765.827-4a22.67,22.67,0,0,0,.916-3.918c.031-.171.061-.342.088-.51,1.27.8,2.441,1.4,2.857,1.239.778-.305-.461-4.272-1.309-6.744.146-.11.207-.192.146-.229-.522-.342.058-1.874.058-1.874,3.079-1.813,2.033-3.174,1.047-3.967s-.348-3.052-.641-3.967.351-5.045.873-8.051a5.759,5.759,0,0,0-.015-1.971c.558-.851,1.135-1.743,1.642-2.567,1.74-2.835,5.457-16.33,5.457-16.33l-.024-.07c.363-.717.635-1.3.781-1.688C770.781,221.726,768.691,212.876,768.343,210.828Zm-27.063-7.77.079-.037v.064Zm-55.493,71.106Zm38.6,73.654a1.4,1.4,0,0,1-.552-.11Z" transform="translate(-501.082 -131.899)" fill="url(#linear-gradient-2)"/>
      <path id="Path_10292" data-name="Path 10292" d="M755.129,411.153c2.512.952,8.35,1.056,10.944,1.056h1.276l1.663-3.387L767.349,406s-1.526-.421-3.552-.787c-2.991-.537-7.083-.958-9.033.25C751.491,407.485,751.858,409.911,755.129,411.153Z" transform="translate(-564.092 -293.589)" fill="#fec2be"/>
      <path id="Path_10293" data-name="Path 10293" d="M791.824,413.418H793.1l1.663-3.387-1.66-2.823s-1.526-.421-3.552-.787C791.195,407.629,795.15,410.259,791.824,413.418Z" transform="translate(-589.846 -294.798)" opacity="0.1"/>
      <path id="Path_10294" data-name="Path 10294" d="M818.632,291.188l-.732-.848s-3.781,5.981-4.178,8.24-.915,4.852-.915,4.852-.958,2.936-1.581,4.233a14.032,14.032,0,0,0-1.239,3.1,2.723,2.723,0,0,1-.961,2.6c-1.187.79-1.465,2.936-1.465,2.936s-4.291,4.175-6.549,4.272-8.746,1.242-8.521,2.371-2.707,1.8-3.894,2.087,7.629,3.662,2.484,8.014c0,0,3.271.677,3.61,1.465s3.781-.449,3.781-.449a3.577,3.577,0,0,1,3.275-1.865c2.539-.113,3.836-1.242,3.836-1.41a14.346,14.346,0,0,1,3.967-1.974c1.428-.394,3.271-.565,3.33-.961s8.466-36.679,8.466-36.679Z" transform="translate(-589.106 -214.143)" fill="#4c4981"/>
      <path id="Path_10295" data-name="Path 10295" d="M818.632,291.188l-.732-.848s-3.781,5.981-4.178,8.24-.915,4.852-.915,4.852-.958,2.936-1.581,4.233a14.032,14.032,0,0,0-1.239,3.1,2.723,2.723,0,0,1-.961,2.6c-1.187.79-1.465,2.936-1.465,2.936s-4.291,4.175-6.549,4.272-8.746,1.242-8.521,2.371-2.707,1.8-3.894,2.087,7.629,3.662,2.484,8.014c0,0,3.271.677,3.61,1.465s3.781-.449,3.781-.449a3.577,3.577,0,0,1,3.275-1.865c2.539-.113,3.836-1.242,3.836-1.41a14.346,14.346,0,0,1,3.967-1.974c1.428-.394,3.271-.565,3.33-.961s8.466-36.679,8.466-36.679Z" transform="translate(-589.106 -214.143)" opacity="0.05"/>
      <path id="Path_10296" data-name="Path 10296" d="M905.538,766c7.449,1.4,8.8-4.318,8.8-4.318s.931-5.078,1.269-5.46a.611.611,0,0,0,.058-.482h0a6.645,6.645,0,0,0-1.074-2.393c-.464-.549-.085-2.835-.085-2.835l-8.633-2.2a12.906,12.906,0,0,0-.845,2.539c-.082.806-1.355,4.443-1.221,4.953s-.549,2.072-.635,2.878-1.141,1.99-1.221,2.411a9.962,9.962,0,0,1-.467,1.117,11.2,11.2,0,0,0-.549,1.718C900.5,765.7,905.538,766,905.538,766Z" transform="translate(-667.223 -532.351)" fill="#ca8496"/>
      <path id="Path_10297" data-name="Path 10297" d="M905.507,782.91c7.449,1.4,8.8-4.318,8.8-4.318s.931-5.078,1.269-5.46a.611.611,0,0,0,.058-.482l-1.794,5.139s-1.48,3.088-6.982,2.624c-3.131-.265-4.672-.845-5.42-1.3a11.175,11.175,0,0,0-.549,1.718C900.472,782.614,905.507,782.91,905.507,782.91Z" transform="translate(-667.192 -549.263)" opacity="0.1"/>
      <path id="Path_10298" data-name="Path 10298" d="M930.54,776.55s-1.862.043-1.99-1.48Z" transform="translate(-686.426 -550.945)" opacity="0.1"/>
      <path id="Path_10299" data-name="Path 10299" d="M609.754,467.07l1.181.3-.259,1.2-1.1-.278Z" transform="translate(-423.551 -324.53)" fill="#0ab5f5"/>
      <path id="Path_10300" data-name="Path 10300" d="M609.754,467.07l1.181.3-.259,1.2-1.1-.278Z" transform="translate(-423.551 -324.53)" opacity="0.1"/>
      <rect id="Rectangle_126" data-name="Rectangle 126" width="1.477" height="1.273" transform="translate(220.89 88.13) rotate(-75.72)" fill="#3a3768"/>
      <rect id="Rectangle_127" data-name="Rectangle 127" width="1.477" height="4.221" transform="translate(215.353 86.719) rotate(-75.72)" fill="#3a3768"/>
      <rect id="Rectangle_128" data-name="Rectangle 128" width="1.477" height="1.492" transform="translate(219.441 87.764) rotate(-75.72)" fill="#3a3768"/>
      <path id="Path_10301" data-name="Path 10301" d="M836.781,314.093c-.1.046-.192.095-.287.134l.238.061-.366,1.431-1.81-.461a2.136,2.136,0,0,1,.186-2.011,2.523,2.523,0,0,1,1.526-1.117,7.935,7.935,0,0,0,1.132-.421Z" transform="translate(-621 -228.991)" fill="#0ab5f5"/>
      <path id="Path_10302" data-name="Path 10302" d="M856.38,332.634l.552.143a.7.7,0,0,0,.851-.507l.616-2.466-1.221-.305Z" transform="translate(-636.281 -241.352)" fill="#3a3768"/>
      <path id="Path_10303" data-name="Path 10303" d="M847.489,288.632a5.689,5.689,0,0,1-3.3,3.693l2.167-8.514A5.635,5.635,0,0,1,847.489,288.632Z" transform="translate(-627.811 -209.606)" fill="#3a3768"/>
      <path id="Path_10304" data-name="Path 10304" d="M809.725,329.208a.7.7,0,0,1-.5-.848l.629-2.469-4.089-1.041-12.473,48.993a8.136,8.136,0,0,1-2.658,10.443l-.29,1.141,5.533,1.419,14.621-57.431Z" transform="translate(-590.395 -238.121)" fill="#3a3768"/>
      <path id="Path_10305" data-name="Path 10305" d="M852.161,330.729a.7.7,0,0,0,.5.848l.769.2.8-3.143-1.444-.369Z" transform="translate(-633.334 -240.49)" fill="#3a3768"/>
      <path id="Path_10306" data-name="Path 10306" d="M719.762,285.258a2.548,2.548,0,0,1,1.526-1.117,8.127,8.127,0,0,0,1.129-.421l2.17-8.514a9.7,9.7,0,0,0-5.4-3.442c-4.477-1.141-8.817.711-9.686,4.135a5.653,5.653,0,0,0,1.062,4.73,8.235,8.235,0,0,0,1.382,1.474l.021.067a2.606,2.606,0,0,1-.263,3.094L684.343,278.3l-6.174,24.255a8.374,8.374,0,0,1,7.248-1.63c4.611,1.175,7.324,6.149,6.061,11.108s-6.012,8.032-10.623,6.873a8.371,8.371,0,0,1-5.606-4.9l-6.339,24.89,24.237,6.168a8.356,8.356,0,0,1-1.55-7.166c1.175-4.608,6.146-7.324,11.108-6.061a9.543,9.543,0,0,1,6.21,4.892l12.473-48.993-1.791-.461a2.136,2.136,0,0,1,.165-2.011Z" transform="translate(-506.022 -201.001)" fill="#0ab5f5"/>
      <path id="Path_10307" data-name="Path 10307" d="M841.525,319.715l.052-.2c-.095.046-.189.095-.287.137Z" transform="translate(-625.796 -234.418)" fill="#0ab5f5"/>
      <g id="Group_10450" data-name="Group 10450" transform="translate(162.888 70.425)" opacity="0.1">
        <path id="Path_10308" data-name="Path 10308" d="M727.284,287.708l-1.443-.369-4.086-1.041h0l.052-.2h0l.61-2.383a7.933,7.933,0,0,1-1.132.421,2.524,2.524,0,0,0-1.526,1.117,2.946,2.946,0,0,0-.226.482,2.93,2.93,0,0,1,.223-.482,2.548,2.548,0,0,1,1.526-1.117,8.127,8.127,0,0,0,1.129-.421l2.17-8.514a9.7,9.7,0,0,0-5.4-3.442c-4.477-1.141-8.817.711-9.686,4.135a5.653,5.653,0,0,0,1.062,4.73,8.234,8.234,0,0,0,1.382,1.474l.021.067a2.606,2.606,0,0,1-.263,3.095L684.337,278.3l-6.174,24.255a8.374,8.374,0,0,1,7.254-1.63c4.611,1.175,7.324,6.149,6.061,11.108s-6.012,8.032-10.623,6.873a8.371,8.371,0,0,1-5.606-4.9l-6.339,24.89,24.237,6.168a8.356,8.356,0,0,1-1.55-7.166c1.175-4.608,6.146-7.324,11.108-6.061a9.543,9.543,0,0,1,6.21,4.892,8.136,8.136,0,0,1-2.658,10.443l-.29,1.141,5.533,1.419L726.121,292.3l.552.143a.7.7,0,0,0,.851-.507l.616-2.478.363-1.431Zm-5.628-1.526c-.046.021-.091.046-.137.064h0Zm-2.075,1.1h0l1.81.461h0Z" transform="translate(-668.91 -271.426)"/>
        <path id="Path_10309" data-name="Path 10309" d="M847.489,288.632a5.7,5.7,0,0,0-1.132-4.822l-2.167,8.514A5.649,5.649,0,0,0,847.489,288.632Z" transform="translate(-790.699 -280.031)"/>
      </g>
      <rect id="Rectangle_129" data-name="Rectangle 129" width="1.477" height="1.273" transform="translate(221.189 86.95) rotate(-75.72)" fill="#3a3768"/>
      <rect id="Rectangle_130" data-name="Rectangle 130" width="1.477" height="4.221" transform="translate(215.653 85.539) rotate(-75.72)" fill="#3a3768"/>
      <rect id="Rectangle_131" data-name="Rectangle 131" width="1.477" height="1.492" transform="translate(219.741 86.578) rotate(-75.72)" fill="#3a3768"/>
      <path id="Path_10310" data-name="Path 10310" d="M837.762,310.234l-.287.137.235.058-.363,1.44-1.81-.461a2.118,2.118,0,0,1,.183-2.011,2.539,2.539,0,0,1,1.526-1.117,7.9,7.9,0,0,0,1.129-.421Z" transform="translate(-621.679 -226.316)" fill="#0ab5f5"/>
      <path id="Path_10311" data-name="Path 10311" d="M857.36,328.757l.555.14a.7.7,0,0,0,.861-.507l.629-2.466-1.221-.305Z" transform="translate(-636.962 -238.656)" fill="#3a3768"/>
      <path id="Path_10312" data-name="Path 10312" d="M848.489,284.755a5.675,5.675,0,0,1-3.3,3.69l2.17-8.514A5.667,5.667,0,0,1,848.489,284.755Z" transform="translate(-628.506 -206.91)" fill="#3a3768"/>
      <path id="Path_10313" data-name="Path 10313" d="M810.722,325.352a.7.7,0,0,1-.5-.851l.61-2.466L806.758,321l-12.469,48.987a8.124,8.124,0,0,1-2.658,10.44l-.29,1.141,5.536,1.41,14.618-57.431Z" transform="translate(-591.089 -235.446)" fill="#3a3768"/>
      <path id="Path_10314" data-name="Path 10314" d="M853.15,326.856a.7.7,0,0,0,.5.851l.766.2.806-3.146-1.447-.366Z" transform="translate(-634.021 -237.801)" fill="#3a3768"/>
      <path id="Path_10315" data-name="Path 10315" d="M720.752,281.38a2.539,2.539,0,0,1,1.526-1.117,7.9,7.9,0,0,0,1.129-.421l2.167-8.514a9.7,9.7,0,0,0-5.4-3.442c-4.48-1.138-8.817.711-9.689,4.138a5.65,5.65,0,0,0,1.065,4.727,8.26,8.26,0,0,0,1.382,1.477l.021.064a2.612,2.612,0,0,1-.262,3.095l-27.365-6.964-6.183,24.252a8.368,8.368,0,0,1,7.263-1.627c4.608,1.172,7.324,6.146,6.061,11.108s-6.015,8.029-10.638,6.857a8.38,8.38,0,0,1-5.6-4.907L669.9,335l24.234,6.171A8.356,8.356,0,0,1,692.587,334c1.172-4.611,6.146-7.324,11.108-6.061a9.521,9.521,0,0,1,6.213,4.907l12.469-48.987-1.81-.461a2.136,2.136,0,0,1,.183-2.02Z" transform="translate(-506.71 -198.308)" fill="#0ab5f5"/>
      <path id="Path_10316" data-name="Path 10316" d="M842.515,315.838l.049-.2c-.095.046-.189.095-.284.137Z" transform="translate(-626.484 -231.722)" fill="#0ab5f5"/>
      <path id="Path_10317" data-name="Path 10317" d="M828.316,500.27c.916,1.395,1.99,7.492,1.99,7.492a6.3,6.3,0,0,1,.677,2.582,13.28,13.28,0,0,0,.678,3.357l2.371,8.762a7.875,7.875,0,0,0,.635,3.967c.891,1.639.8,1.141.381,4.019s.507,5.545,2.029,6.409-.677,2.835-.677,2.835,9.735,2.625,11.768,1.016-1.059-9.567-1.059-9.567.51-6.686.171-7.66-1.779-9.268-1.779-9.268-.888-3.769-.549-4.4-.211-2.441-.211-2.441-1.44-2.033-1.312-2.667a3.9,3.9,0,0,0-.424-1.776s4.309-6.622,3.928-7.864a7.231,7.231,0,0,1,.168-3.217l1.2-2.057c.8-1.373,1.773-3.018,2.1-3.531a44.965,44.965,0,0,0,1.975-5.032l.4-1.147s.677,12.445,1.27,13.715,1.48,11.292,1.48,11.292a7.019,7.019,0,0,1,.424,2.792c-.085,1.566,1.355,8.38,1.355,8.38s.635,4.825.211,6.1-.085,10.626-.085,10.626a12.1,12.1,0,0,0-2.921,3.217c-.592,1.385.085,5.188.085,5.188s6.772,3.387,9.766,2.5,1.776-6.012,1.776-6.012,2.032-3.384,2.032-4.7a51.546,51.546,0,0,1,.739-5.319c2.582-4.739,1.565-16.251,1.99-17.181s-.891-4.4-1.947-5.969-.635-5.8,0-7.019-.653-5.466-.653-5.466,1.221-8.212,1.184-9.482a28.8,28.8,0,0,1,1.059-5.035s1.1-1.947.845-2.542.845-2.115.549-2.792.256-2.747.806-3.967a25.488,25.488,0,0,0,.915-3.9c.259-1.462.452-2.747.452-2.747l-6.986-5.63-17.438-4.578-6.558-2.115-6.393,10.071a25.59,25.59,0,0,0-1.242,2.267,6.7,6.7,0,0,0-.873,2.939,4.062,4.062,0,0,1-.592,2.625s-3.812,12.061-3.726,15.534-1.355,11.087-1.355,11.087S827.376,498.869,828.316,500.27Z" transform="translate(-616.572 -324.689)" fill="#ceddf9"/>
      <path id="Path_10318" data-name="Path 10318" d="M912.094,246.67c.269-.11,18.68-7.715,16.144-9.225-1.5-.9-3.357-4.7-4.627-7.675-.885-2.078-1.486-3.754-1.486-3.754s-14.777-2.625-9.488,6.433a16.784,16.784,0,0,1,1.865,4.462A10.023,10.023,0,0,1,912.094,246.67Z" transform="translate(-674.575 -169.203)" fill="#fec2be"/>
      <path id="Path_10319" data-name="Path 10319" d="M912.637,232.449a16.784,16.784,0,0,1,1.865,4.462,10.318,10.318,0,0,0,8.725-6.131,9.859,9.859,0,0,0,.385-1.01c-.885-2.078-1.486-3.754-1.486-3.754S907.348,223.391,912.637,232.449Z" transform="translate(-674.575 -169.203)" opacity="0.1"/>
      <path id="Path_10320" data-name="Path 10320" d="M885.14,204.132a10.324,10.324,0,1,0,.4-2.859A10.324,10.324,0,0,0,885.14,204.132Z" transform="translate(-656.264 -147.066)" fill="#fec2be"/>
      <path id="Path_10321" data-name="Path 10321" d="M852.5,461.782a6.319,6.319,0,0,1,1.5,2.853s5.081,3.47,4.742,1.27,2.625-11.09,2.625-11.09l-.339,12.106s16.251-.763,17.438-1.947,8.127-3.455,8.127-3.455,2.136,1.706,4.077,3c.259-1.462.452-2.747.452-2.747l-6.986-5.63-17.438-4.578-6.558-2.115-6.393,10.071A25.608,25.608,0,0,0,852.5,461.782Z" transform="translate(-633.585 -324.696)" opacity="0.1"/>
      <path id="Path_10322" data-name="Path 10322" d="M847.191,322.859c1.355.845,1.862,3.131,1.862,3.131s5.078,3.47,4.74,1.269,2.624-11.09,2.624-11.09l-.339,12.106s16.254-.757,17.435-1.947,8.127-3.47,8.127-3.47,6.012,4.825,7.111,4.4-1.947-8.633-1.947-8.633l-3.128-48.081s.845-14.307-.424-14.816a1.831,1.831,0,0,1-.534-.333c-.836-.751-1.087-2.277-1.16-3.558-.082-1.526-2.115-.763-2.115-.763l1.184,1.526-10.489,6.378-.091.055a11.6,11.6,0,0,0-1.26-.571,4.564,4.564,0,0,0-2.972-.36,2.875,2.875,0,0,0-1.111,1A12.577,12.577,0,0,0,863.274,262l-3.8,6.43s-1.947,8.545-1.947,8.89-.592,8.127-1.27,8.972-1.355,5.078-1.1,6.348-.424,6.012-.424,6.012c-2.792,2.286-4.23,10.071-4.23,10.071s-4.413,8.728-4.761,9.735S845.836,322.026,847.191,322.859Z" transform="translate(-628.81 -186.728)" fill="#fff"/>
      <path id="Path_10323" data-name="Path 10323" d="M925.94,260.069a21.439,21.439,0,0,0,4,3.662l8.579-7.248c-.836-.751-1.087-2.277-1.16-3.561-.082-1.526-2.115-.76-2.115-.76l.247.305a1.367,1.367,0,0,1-.369,2.005Z" transform="translate(-684.613 -187.482)" opacity="0.1"/>
      <path id="Path_10324" data-name="Path 10324" d="M925.94,258.963a21.44,21.44,0,0,0,4,3.662l8.579-7.248c-.836-.751-1.087-2.277-1.16-3.558-.082-1.526-2.115-.763-2.115-.763l.247.305a1.364,1.364,0,0,1-.369,2Z" transform="translate(-684.613 -186.715)" fill="#fff"/>
      <path id="Path_10325" data-name="Path 10325" d="M912.94,278.168c1.108,1.324,2.679,2.829,2.606,2.075s.937-2.417,1.581-3.162a4.685,4.685,0,0,0-3.076.085A2.85,2.85,0,0,0,912.94,278.168Z" transform="translate(-675.58 -204.778)" opacity="0.1"/>
      <path id="Path_10326" data-name="Path 10326" d="M912.39,276.883c1.108,1.328,2.676,2.829,2.6,2.078s.833-1.974,1.477-2.719a4.541,4.541,0,0,0-2.972-.357A2.838,2.838,0,0,0,912.39,276.883Z" transform="translate(-675.198 -204.003)" fill="#fff"/>
      <circle id="Ellipse_3183" data-name="Ellipse 3183" cx="0.677" cy="0.677" r="0.677" transform="translate(239.289 78.568)" fill="#ff718d"/>
      <circle id="Ellipse_3184" data-name="Ellipse 3184" cx="0.677" cy="0.677" r="0.677" transform="translate(234.153 96.852)" fill="#ff718d"/>
      <circle id="Ellipse_3185" data-name="Ellipse 3185" cx="0.677" cy="0.677" r="0.677" transform="translate(228.342 115.364)" fill="#ff718d"/>
      <circle id="Ellipse_3186" data-name="Ellipse 3186" cx="0.677" cy="0.677" r="0.677" transform="translate(228.171 135.508)" fill="#ff718d"/>
      <circle id="Ellipse_3187" data-name="Ellipse 3187" cx="0.677" cy="0.677" r="0.677" transform="translate(236.298 87.202)" fill="#ff718d"/>
      <circle id="Ellipse_3188" data-name="Ellipse 3188" cx="0.677" cy="0.677" r="0.677" transform="translate(231.727 105.995)" fill="#ff718d"/>
      <circle id="Ellipse_3189" data-name="Ellipse 3189" cx="0.677" cy="0.677" r="0.677" transform="translate(227.268 124.449)" fill="#ff718d"/>
      <circle id="Ellipse_3190" data-name="Ellipse 3190" cx="0.677" cy="0.677" r="0.677" transform="translate(228.284 137.767)" fill="#ff718d"/>
      <path id="Path_10327" data-name="Path 10327" d="M932.76,266.333s-.113-1.016,1.352.735a17.671,17.671,0,0,0,4.233,3.271s6.265,4.4,6.6,6.433,2.368,10.837,1.3,13.77-9.262,16.989-9.262,16.989a7.635,7.635,0,0,1,1.639,5.533c-.5,2.991-1.129,7.111-.848,8.014s-.339,3.159.61,3.949,1.974,2.136-1.016,3.949c0,0-.565,1.526-.058,1.865s-7.5,3.836-10.681,1.974-8.85-16.76-8.972-20.09,1.749-14.343,2.765-16.931,4.065-12.7,5.362-14.954S932.76,266.333,932.76,266.333Z" transform="translate(-678.854 -197.258)" opacity="0.1"/>
      <path id="Path_10328" data-name="Path 10328" d="M933.881,266.333s-.113-1.016,1.355.735a17.731,17.731,0,0,0,4.233,3.271s6.265,4.4,6.6,6.433,2.368,10.837,1.3,13.77-9.256,16.989-9.256,16.989a7.635,7.635,0,0,1,1.639,5.533c-.5,2.991-1.129,7.111-.848,8.014s-.339,3.159.61,3.949,1.974,2.136-1.016,3.949c0,0-.565,1.526-.058,1.865s-7.5,3.836-10.681,1.974-8.85-16.76-8.972-20.09,1.749-14.343,2.765-16.931,4.065-12.7,5.362-14.954S933.881,266.333,933.881,266.333Z" transform="translate(-679.639 -197.258)" fill="#4c4981"/>
      <path id="Path_10329" data-name="Path 10329" d="M964.985,298.48s-4.852,5.362-4.684,8.917C960.3,307.4,960.245,301.639,964.985,298.48Z" transform="translate(-708.484 -219.799)" opacity="0.1"/>
      <path id="Path_10330" data-name="Path 10330" d="M940.931,327.33c0,.168-3.274,12.357-3.1,13.882s-.961,6.036-.961,6.036l-1.526-.394s1.184-6.265,1.41-8.579S940.931,327.33,940.931,327.33Z" transform="translate(-691.144 -239.844)" opacity="0.1"/>
      <path id="Path_10331" data-name="Path 10331" d="M949.4,441.24c.113.168,7.733,8.8,5.588,9.424S949.4,441.24,949.4,441.24Z" transform="translate(-700.913 -318.992)" opacity="0.1"/>
      <path id="Path_10332" data-name="Path 10332" d="M969.93,434c.168.113,3.052,6.207,3.385,4.578s-2.481,4.459-2.933-.055Z" transform="translate(-715.178 -313.961)" opacity="0.1"/>
      <path id="Path_10333" data-name="Path 10333" d="M879.61,272.489s-3.146-1.92-7.1,2.991c0,0-2.878,1.636-3.723,2.032s-1.807,10.892-1.807,10.892-1.862,4.514-1.355,7.111-1.465,11.511-1.465,11.511-3.278,16.022-3.168,16.48,3.329-5.023,3.274-7.733,2.707-11.172,3.1-11.682,3.1-15.009,3.1-15.009,2.2-6.152,3.61-8.185,3.162-5.869,3.894-6.546a7.457,7.457,0,0,1,1.749-1.129Z" transform="translate(-639.485 -201.482)" opacity="0.1"/>
      <path id="Path_10334" data-name="Path 10334" d="M878.885,272.489s-3.528-1.92-7.477,2.991c0,0-2.881,1.636-3.726,2.032s-1.807,10.892-1.807,10.892-1.862,4.514-1.355,7.111-1.465,11.511-1.465,11.511-3.275,16.028-3.162,16.48,3.329-5.023,3.275-7.733,2.707-11.172,3.1-11.682,3.113-15.009,3.113-15.009,2.2-6.152,3.61-8.185,3.162-5.869,3.894-6.546a6.935,6.935,0,0,1,2.088-1.129Z" transform="translate(-638.72 -201.482)" fill="#4c4981"/>
      <path id="Path_10335" data-name="Path 10335" d="M836.114,382.455s-6.714-4.4-9.961-2.228-8.545,5.249-3.329,7.477,12.442,1.8,12.442,1.8Z" transform="translate(-611.44 -276.18)" fill="#fec2be"/>
      <path id="Path_10336" data-name="Path 10336" d="M885.826,518.214c1,2.136,1.831,12.933,2.386,16.354.8-1.373,1.773-3.018,2.1-3.531a44.962,44.962,0,0,0,1.974-5.032c-.638-1.55-2.4-5.994-2.4-7.629,0-1.99-3.217-4.486-3.217-4.486A3.748,3.748,0,0,0,885.826,518.214Z" transform="translate(-656.482 -369.471)" opacity="0.1"/>
      <path id="Path_10337" data-name="Path 10337" d="M934.809,632.719s-7.449-3.174-9.65-.916S934.809,632.719,934.809,632.719Z" transform="translate(-683.881 -450.836)" opacity="0.1"/>
      <path id="Path_10338" data-name="Path 10338" d="M943.67,640.81s7.535,4.233,4.953,4.941S943.67,640.81,943.67,640.81Z" transform="translate(-696.932 -457.658)" opacity="0.1"/>
      <path id="Path_10339" data-name="Path 10339" d="M869.89,628.75s3.217.211,1.99.845S869.89,628.75,869.89,628.75Z" transform="translate(-645.668 -449.278)" opacity="0.1"/>
      <path id="Path_10340" data-name="Path 10340" d="M856.71,631.94c.043.211,9.354,3.217,7.535,4.578S856.71,631.94,856.71,631.94Z" transform="translate(-636.51 -451.494)" opacity="0.1"/>
      <path id="Path_10341" data-name="Path 10341" d="M938.222,711.914c-1.395-.214-9.183-3.812-6.137-1.221A6.037,6.037,0,0,0,938.222,711.914Z" transform="translate(-688.396 -505.565)" opacity="0.1"/>
      <path id="Path_10342" data-name="Path 10342" d="M932.25,726.11a3.026,3.026,0,0,1-3.259,2.286C926.409,728.057,932.25,726.11,932.25,726.11Z" transform="translate(-686.274 -516.926)" opacity="0.1"/>
      <path id="Path_10343" data-name="Path 10343" d="M934.272,739.5c-.467-.125-6.012-2.664-6.137-1.48s5.289,3.259,5.713,2.625a2.271,2.271,0,0,0,.424-1.144Z" transform="translate(-686.137 -524.98)" opacity="0.1"/>
      <path id="Path_10344" data-name="Path 10344" d="M870.555,731.3c-.678-.043-7.019-2.075-8.295-.256Z" transform="translate(-640.366 -519.827)" opacity="0.1"/>
      <path id="Path_10345" data-name="Path 10345" d="M865.06,736.084a2.253,2.253,0,0,0-2.2-.467C861.761,736.124,865.06,736.084,865.06,736.084Z" transform="translate(-640.627 -523.43)" opacity="0.1"/>
      <path id="Path_10346" data-name="Path 10346" d="M913.35,771.88a1.9,1.9,0,0,1-1.44,1.48Z" transform="translate(-674.864 -548.728)" opacity="0.1"/>
      <path id="Path_10347" data-name="Path 10347" d="M810.382,753.739c.424,1.737,6.351,1.9,9.186,1.44s8.719-2.161,8.719-2.161,6.18-.592,8-1.352.382-2.71.382-2.71v-.183c.043-.708.171-3.275-.266-3.967-.507-.806-.211-3.43-.211-3.43s-8.762,1.694-8.932.891a4.568,4.568,0,0,0-2.158-2.2c-.632-.253-1.1,2.115-1.1,2.115s-3.967,3.388-4.233,4.614-3.052,1.862-3.052,1.862a48.018,48.018,0,0,0-5.334,1.776,2.048,2.048,0,0,0-1.166,1.645,4.58,4.58,0,0,0,.168,1.66Z" transform="translate(-604.193 -526.61)" fill="#ca8496"/>
      <path id="Path_10348" data-name="Path 10348" d="M810.4,773.605c.424,1.737,6.351,1.9,9.186,1.44s8.719-2.161,8.719-2.161,6.18-.592,8-1.352.382-2.71.382-2.71v-.183l-8.85,1.962s-4.361,1.862-7.153,1.862c-2.441,0-7.9,1-10.437-.516a4.577,4.577,0,0,0,.156,1.657Z" transform="translate(-604.215 -546.477)" opacity="0.1"/>
      <path id="Path_10349" data-name="Path 10349" d="M850.05,763s.424,2.792,2.118,3.723Z" transform="translate(-631.883 -542.558)" opacity="0.1"/>
      <path id="Path_10350" data-name="Path 10350" d="M886.46,201.264a3.029,3.029,0,0,0,.5.211,3.119,3.119,0,0,0,2.274-.751c.7-.427,1.679-.745,2.289-.189.8.723.22,2.267,1.041,2.966.519.443,1.343.29,1.92.653a2.754,2.754,0,0,1,.9,1.846c.146.687.439,1.471,1.111,1.672s1.3-.241,1.959-.217c.137,0,.305.021.391-.076a.412.412,0,0,0,.064-.305,6.524,6.524,0,0,1,.217-2.441,2.353,2.353,0,0,1,1.721-1.611c1.187-.183,2.185.858,2.884,1.831a30,30,0,0,1,2,3.223,2.079,2.079,0,0,1,.1.223,10.327,10.327,0,1,0-19.373-7.019Z" transform="translate(-657.181 -147.058)" opacity="0.1"/>
      <path id="Path_10351" data-name="Path 10351" d="M891.078,191.274c-.7-.983-1.7-2.02-2.887-1.831a2.341,2.341,0,0,0-1.718,1.608,6.466,6.466,0,0,0-.214,2.441.427.427,0,0,1-.067.305c-.095.1-.253.085-.391.079-.662-.024-1.321.406-1.959.217s-.964-.986-1.111-1.672a2.715,2.715,0,0,0-.9-1.846c-.592-.375-1.4-.211-1.92-.656-.821-.7-.241-2.243-1.041-2.966-.61-.552-1.584-.235-2.289.192a3.119,3.119,0,0,1-2.277.748c-.269-.073-.51-.226-.772-.327-1.254-.479-2.881.333-3.912-.528a3.025,3.025,0,0,1-.781-1.352,8.605,8.605,0,0,1-.571-2.158,2.885,2.885,0,0,1,.574-2.1c.671-.79,1.807-.989,2.664-1.572a6.7,6.7,0,0,0,1.7-2.008,7.5,7.5,0,0,1,1.654-2.054,2.436,2.436,0,0,1,2.481-.391,2.747,2.747,0,0,0,.815.388,1.685,1.685,0,0,0,.9-.247c2.936-1.382,6.354-1.138,9.573-.726a12.33,12.33,0,0,1,3.769.916,4.529,4.529,0,0,1,2.542,2.783c.262.995.061,2.078.378,3.052.214.665.653,1.221.916,1.889.687,1.785-.134,3.745-.482,5.624-.379,2.054-.189,4.272-1.062,6.219-.171.381-.363,1.05-.793.8-.305-.186-.629-1.27-.812-1.608a29.642,29.642,0,0,0-2.014-3.217Z" transform="translate(-644.529 -133.65)" fill="#9a5e7f"/>
      <path id="Path_10352" data-name="Path 10352" d="M905.888,315.679l1.526,4.346s-3.613,13.428-5.307,16.251-4.175,6.433-4.175,6.433a15.471,15.471,0,0,1-9.03,1.129c-4.855-.961-19.025-3.5-19.025-3.5a1.883,1.883,0,0,1-1.807-.677c-.62-.9-3.845-1.361-3.845-1.361s-3.723-5.417.848-7.675c0,0,.565,1.242,2.991.4s3.159.674,3.159.674a25.815,25.815,0,0,0,6.152.51c2.185-.281,7.675-.4,8.24-.848a.726.726,0,0,1,1.016.058,6.124,6.124,0,0,0,1.8-1.016c.452-.51,1.074.565,1.074.565s.79-.452.565-1.016.732-2.707.732-2.707a5.516,5.516,0,0,0,.171-2.542c-.281-1.129,1.41-5.188,1.41-5.188a7.182,7.182,0,0,0-.226-2.033c-.284-1.013,2.136-3.052,2.136-3.052s2.368-11.514,7.391-7.733A9.929,9.929,0,0,1,905.888,315.679Z" transform="translate(-640.739 -224.977)" opacity="0.1"/>
      <path id="Path_10353" data-name="Path 10353" d="M906.983,315.679l1.526,4.346s-3.613,13.428-5.307,16.251-4.172,6.433-4.172,6.433a15.471,15.471,0,0,1-9.03,1.129c-4.855-.961-19.019-3.5-19.019-3.5a1.878,1.878,0,0,1-1.8-.677c-.62-.9-3.842-1.361-3.842-1.361s-3.723-5.417.848-7.675c0,0,.565,1.242,2.991.4s3.159.674,3.159.674a25.815,25.815,0,0,0,6.152.51c2.185-.281,7.675-.4,8.24-.848a.726.726,0,0,1,1.016.058,6.123,6.123,0,0,0,1.8-1.016c.452-.51,1.074.565,1.074.565s.79-.452.565-1.016.732-2.707.732-2.707a5.489,5.489,0,0,0,.168-2.542c-.284-1.129,1.413-5.188,1.413-5.188a7.179,7.179,0,0,0-.226-2.033c-.284-1.013,2.136-3.052,2.136-3.052s2.368-11.514,7.391-7.733A9.9,9.9,0,0,1,906.983,315.679Z" transform="translate(-641.51 -224.977)" fill="#4c4981"/>
      <path id="Path_10354" data-name="Path 10354" d="M883.328,397.41c.055.4,1.3,1.974.845,2.258s-1.184.113-.507,1.016.61,2.255.168,2.087-1.184-2.2-1.184-2.991A8.882,8.882,0,0,1,883.328,397.41Z" transform="translate(-654.534 -288.538)" opacity="0.1"/>
      <path id="Path_10355" data-name="Path 10355" d="M939.79,394.45s.339,3.952,3.116,5.081S939.79,394.45,939.79,394.45Z" transform="translate(-694.236 -286.481)" opacity="0.1"/>
      <path id="Path_10356" data-name="Path 10356" d="M958.65,390c.168.058,3.949,2.09,2.258,3.275S958.65,390,958.65,390Z" transform="translate(-707.34 -283.389)" opacity="0.1"/>
      <path id="Path_10357" data-name="Path 10357" d="M959.39,380.77s5.53,1.129,3.662,2.087S959.39,380.77,959.39,380.77Z" transform="translate(-707.854 -276.976)" opacity="0.1"/>
      <g id="Group_10451" data-name="Group 10451" transform="translate(223.731 49.058)" opacity="0.1">
        <path id="Path_10358" data-name="Path 10358" d="M927.44,212.837a2.361,2.361,0,0,1,1.718-1.608c1.19-.183,2.188.858,2.887,1.831a30,30,0,0,1,2,3.223c.183.339.494,1.419.812,1.605.43.253.61-.415.794-.8.873-1.941.684-4.166,1.062-6.219a36.057,36.057,0,0,0,.726-3.632,17.629,17.629,0,0,1-.726,4.532c-.378,2.054-.189,4.272-1.062,6.223-.171.381-.363,1.05-.794.8-.305-.186-.629-1.266-.812-1.605a30,30,0,0,0-2-3.223c-.7-.98-1.7-2.02-2.887-1.831a2.341,2.341,0,0,0-1.718,1.608,4.476,4.476,0,0,0-.226,1.27A5.909,5.909,0,0,1,927.44,212.837Z" transform="translate(-909.215 -205.461)"/>
        <path id="Path_10359" data-name="Path 10359" d="M868.862,203.421a3.018,3.018,0,0,0,.781,1.355c1.031.861,2.658.049,3.912.528.262.1.5.253.772.327a3.131,3.131,0,0,0,2.277-.751c.7-.427,1.682-.742,2.289-.189.8.723.22,2.267,1.041,2.966.519.443,1.343.305,1.92.656a2.718,2.718,0,0,1,.9,1.831c.146.674.436,1.471,1.111,1.672s1.3-.238,1.959-.214c.137,0,.305.021.391-.079a.285.285,0,0,0,.046-.085c0,.229,0,.455.021.681a.43.43,0,0,1-.067.305c-.095.1-.253.082-.391.076-.662-.021-1.321.406-1.959.217s-.964-.983-1.111-1.672a2.642,2.642,0,0,0-.9-1.831c-.592-.36-1.4-.214-1.92-.656-.821-.7-.241-2.246-1.041-2.966-.61-.555-1.584-.238-2.289.189a3.135,3.135,0,0,1-2.277.751c-.269-.073-.51-.229-.772-.327-1.254-.479-2.881.333-3.912-.528a3.034,3.034,0,0,1-.781-1.355,8.615,8.615,0,0,1-.571-2.155,3.487,3.487,0,0,1,.018-.757,9.081,9.081,0,0,0,.552,2.011Z" transform="translate(-868.279 -201.41)"/>
      </g>
      <path id="Path_10360" data-name="Path 10360" d="M208.74,767.2s-12.9-.778-11.383,8.261a2.2,2.2,0,0,0,1.147,2.325s.021-.671,1.324-.446a6.072,6.072,0,0,0,1.4.07,2.917,2.917,0,0,0,1.712-.708h0s3.629-1.5,5.038-7.428c0,0,1.044-1.291,1-1.623l-2.176.916a3.905,3.905,0,0,1,.159,2.878s-.07-2.82-.488-2.747c-.085,0-1.132.543-1.132.543s1.282,2.747.305,4.727c0,0,.366-3.372-.714-4.529l-1.526.894s1.5,2.826.482,5.133c0,0,.259-3.537-.806-4.913l-1.389,1.083s1.407,2.783.549,4.7c0,0-.113-4.117-.848-4.428a7.991,7.991,0,0,0-1.4,1.526s.961,2.023.363,3.091c0,0-.366-2.747-.665-2.747a8.911,8.911,0,0,0-1.337,3.052,6.608,6.608,0,0,1,1.044-3.238,3.635,3.635,0,0,0-1.852.961s.186-1.285,2.151-1.4a8.458,8.458,0,0,1,1.266-1.462,7.945,7.945,0,0,0-3.137.36s1.044-1.221,3.5-.659l1.37-1.12a11.353,11.353,0,0,0-3.662.037s1.254-1.071,4.031-.29l1.492-.894a13.588,13.588,0,0,0-3.5-.305,5.37,5.37,0,0,1,3.937.064l1.065-.479s-1.605-.305-2.075-.366-.5-.18-.5-.18a5.573,5.573,0,0,1,3.018.336A13.917,13.917,0,0,0,208.74,767.2Z" transform="translate(-178.289 -545.466)" fill="#0ab5f5"/>
      <ellipse id="Ellipse_3191" data-name="Ellipse 3191" cx="9.131" cy="1.544" rx="9.131" ry="1.544" transform="translate(12.433 231.566)" fill="#0ab5f5" opacity="0.1"/>
      <path id="Path_10361" data-name="Path 10361" d="M301.245,689.148s-7.275-.439-6.409,4.66a1.245,1.245,0,0,0,.647,1.309s0-.378.748-.25a3.577,3.577,0,0,0,.79.04,1.67,1.67,0,0,0,.964-.4h0s2.039-.833,2.844-4.19c0,0,.589-.729.565-.916l-1.221.522a2.212,2.212,0,0,1,.088,1.624s-.04-1.59-.275-1.553c-.049,0-.638.305-.638.305a3.621,3.621,0,0,1,.177,2.664s.2-1.9-.4-2.554l-.87.519a3.82,3.82,0,0,1,.272,2.893s.146-2-.455-2.771l-.781.61a3.73,3.73,0,0,1,.305,2.649s-.064-2.322-.479-2.5a4.884,4.884,0,0,0-.79.851s.543,1.141.208,1.743c0,0-.208-1.547-.375-1.553a5.1,5.1,0,0,0-.754,1.727,3.723,3.723,0,0,1,.586-1.831,2.069,2.069,0,0,0-1.044.543s.107-.726,1.221-.787a4.619,4.619,0,0,1,.714-.824,4.471,4.471,0,0,0-1.77.2,1.988,1.988,0,0,1,1.971-.372l.772-.632a6.362,6.362,0,0,0-2.063.021,2.491,2.491,0,0,1,2.274-.165l.839-.5a7.54,7.54,0,0,0-1.971-.171,3.015,3.015,0,0,1,2.219.034l.61-.269s-.916-.18-1.169-.208-.281-.1-.281-.1a3.149,3.149,0,0,1,1.7.189A7.091,7.091,0,0,0,301.245,689.148Z" transform="translate(-246.057 -491.238)" fill="#0ab5f5"/>
      <ellipse id="Ellipse_3192" data-name="Ellipse 3192" cx="5.148" cy="0.87" rx="5.148" ry="0.87" transform="translate(45.041 203.453)" fill="#0ab5f5" opacity="0.1"/>
      <path id="Path_10362" data-name="Path 10362" d="M157.539,703.644s-8.783-.531-7.736,5.624a1.5,1.5,0,0,0,.781,1.581s0-.458.9-.305a4.005,4.005,0,0,0,.955.046,1.971,1.971,0,0,0,1.166-.482h0s2.469-1.019,3.43-5.054c0,0,.708-.879.681-1.1l-1.5.635a2.665,2.665,0,0,1,.107,1.956s-.049-1.917-.333-1.871c-.058,0-.769.369-.769.369a4.389,4.389,0,0,1,.214,3.217s.247-2.295-.488-3.082l-1.041.61a4.607,4.607,0,0,1,.327,3.491s.177-2.408-.546-3.357l-.946.739s.955,1.9.372,3.2c0,0-.076-2.8-.577-3.015a5.852,5.852,0,0,0-.955,1.028s.656,1.376.25,2.1c0,0-.25-1.868-.455-1.877a6.313,6.313,0,0,0-.916,2.087,4.5,4.5,0,0,1,.711-2.2,2.47,2.47,0,0,0-1.263.653s.128-.876,1.468-.952a5.839,5.839,0,0,1,.861-.995,5.41,5.41,0,0,0-2.136.244,2.4,2.4,0,0,1,2.38-.449l.934-.763a7.7,7.7,0,0,0-2.493.027s.854-.732,2.747-.2l1.016-.61a9.176,9.176,0,0,0-2.38-.208,3.645,3.645,0,0,1,2.679.043l.726-.327s-1.093-.214-1.413-.247-.339-.122-.339-.122a3.771,3.771,0,0,1,2.054.226A8.974,8.974,0,0,0,157.539,703.644Z" transform="translate(-145.274 -501.308)" fill="#0ab5f5"/>
      <ellipse id="Ellipse_3193" data-name="Ellipse 3193" cx="6.216" cy="1.05" rx="6.216" ry="1.05" transform="translate(0 209.028)" fill="#0ab5f5" opacity="0.1"/>
      <ellipse id="Ellipse_3194" data-name="Ellipse 3194" cx="9.131" cy="1.544" rx="9.131" ry="1.544" transform="translate(176.331 246.754)" fill="#0ab5f5" opacity="0.1"/>
      <path id="Path_10363" data-name="Path 10363" d="M722.79,824.383s5.209-.162,6.778-1.279,8.011-2.441,8.4-.659,7.828,8.914,1.947,8.963-13.663-.916-15.231-1.871S722.79,824.383,722.79,824.383Z" transform="translate(-543.459 -583.256)" fill="#a8a8a8"/>
      <path id="Path_10364" data-name="Path 10364" d="M740.013,837.166c-5.881.049-13.663-.916-15.228-1.868-1.193-.729-1.669-3.336-1.831-4.538h-.174s.33,4.2,1.9,5.154,9.351,1.917,15.231,1.871c1.7,0,2.283-.61,2.252-1.526C741.927,836.818,741.277,837.156,740.013,837.166Z" transform="translate(-543.452 -589.639)" opacity="0.2"/>
    </g>
    <g id="Home_Indidcator" data-name="Home Indidcator" transform="translate(-13 432)">
      <rect id="Background" width="375" height="34" transform="translate(13 346)" fill="none"/>
      <rect id="Bar" width="134" height="5" rx="2.5" transform="translate(134 366)"/>
    </g>
  </g>
</svg>
