<svg xmlns="http://www.w3.org/2000/svg" xmlns:xlink="http://www.w3.org/1999/xlink" width="375" height="812" viewBox="0 0 375 812">
  <defs>
    <clipPath id="clip-Overview_-_4">
      <rect width="375" height="812"/>
    </clipPath>
  </defs>
  <g id="Overview_-_4" data-name="Overview - 4" clip-path="url(#clip-Overview_-_4)">
    <rect width="375" height="812" fill="#fff"/>
    <g id="Status_Bar_White" data-name="Status Bar White">
      <rect id="Rectangle" width="375" height="44" fill="none"/>
      <g id="Battery" transform="translate(336 17)">
        <g id="Border" transform="translate(0 0.333)" fill="none" stroke="#000" stroke-miterlimit="10" stroke-width="1" opacity="0.35">
          <rect width="22" height="11.333" rx="2.667" stroke="none"/>
          <rect x="0.5" y="0.5" width="21" height="10.333" rx="2.167" fill="none"/>
        </g>
        <path id="Cap" d="M0,0V4A2.17,2.17,0,0,0,1.328,2,2.17,2.17,0,0,0,0,0" transform="translate(23 4)" opacity="0.4"/>
        <rect id="Capacity" width="18" height="7.333" rx="1.333" transform="translate(2 2.333)"/>
      </g>
      <path id="Wifi" d="M7.637,10.966a.313.313,0,0,1-.221-.093l-2-2.016a.313.313,0,0,1,.01-.456,3.421,3.421,0,0,1,4.419,0,.311.311,0,0,1,.1.226.315.315,0,0,1-.094.23l-2,2.016A.308.308,0,0,1,7.637,10.966Zm3.508-3.538a.312.312,0,0,1-.214-.085,4.9,4.9,0,0,0-6.585,0,.312.312,0,0,1-.214.085.308.308,0,0,1-.22-.091L2.758,6.17a.322.322,0,0,1,0-.459,7.158,7.158,0,0,1,9.752,0,.322.322,0,0,1,.1.229.326.326,0,0,1-.094.23L11.364,7.337A.309.309,0,0,1,11.145,7.428ZM13.8,4.743a.3.3,0,0,1-.214-.087,8.64,8.64,0,0,0-11.907,0,.3.3,0,0,1-.214.087.308.308,0,0,1-.22-.091L.094,3.486a.322.322,0,0,1,0-.456,10.9,10.9,0,0,1,15.08,0,.325.325,0,0,1,.1.228.319.319,0,0,1-.094.229L14.023,4.652A.307.307,0,0,1,13.8,4.743Z" transform="translate(315.694 17.331)"/>
      <path id="Cellular_Connection" data-name="Cellular Connection" d="M16,10.667H15a1,1,0,0,1-1-1V1a1,1,0,0,1,1-1h1a1,1,0,0,1,1,1V9.667A1,1,0,0,1,16,10.667Zm-4.667,0h-1a1,1,0,0,1-1-1V3.334a1,1,0,0,1,1-1h1a1,1,0,0,1,1,1V9.667A1,1,0,0,1,11.334,10.667Zm-4.667,0h-1a1,1,0,0,1-1-1v-4a1,1,0,0,1,1-1h1a1,1,0,0,1,1,1v4A1,1,0,0,1,6.666,10.667ZM2,10.667H1a1,1,0,0,1-1-1v-2a1,1,0,0,1,1-1H2a1,1,0,0,1,1,1v2A1,1,0,0,1,2,10.667Z" transform="translate(293.667 17.667)"/>
      <g id="Time_Style" data-name="Time Style" transform="translate(21 13)">
        <rect id="Time_Style_background" data-name="Time Style background" width="54" height="21" fill="rgba(0,0,0,0)"/>
        <text id="_Time" data-name="↳ Time" transform="translate(0 2)" font-size="14" font-family="SegoeUI, Segoe UI"><tspan x="14.582" y="15" letter-spacing="-0.02em">9:4</tspan><tspan y="15">1</tspan></text>
      </g>
    </g>
    <g id="pre-header" transform="translate(126 105)">
      <text id="Login_Now" data-name="Login Now" transform="translate(15 24)" font-size="26" font-family="SegoeUI, Segoe UI"><tspan x="0" y="0">Finished</tspan></text>
      <text id="Please_login_to_cont" data-name="Please login to cont" transform="translate(-41 54)" fill="#8b959a" font-size="14" font-family="SegoeUI, Segoe UI"><tspan x="0" y="0">If you see this then you are done </tspan></text>
    </g>
    <g id="Home_Indidcator" data-name="Home Indidcator" transform="translate(-13 432)">
      <rect id="Background" width="375" height="34" transform="translate(13 346)" fill="none"/>
      <rect id="Bar" width="134" height="5" rx="2.5" transform="translate(134 366)"/>
    </g>
    <g id="undraw_finish_line_katerina_limpitsouni_xy20" transform="translate(-53.841 220.32)">
      <path id="Path_10365" data-name="Path 10365" d="M361.606,167.4c-28.353-1.008-55.356-10.159-81.124-20.152s-51.325-21.111-79-26.416c-17.8-3.413-38.157-3.895-52.5,5.647-13.8,9.2-18.264,25.036-20.66,39.747-1.8,11.066-2.865,22.71,2.077,33.071,3.435,7.193,9.524,13.239,13.738,20.13,14.663,23.972,4.3,53.533-11.587,76.94-7.447,10.983-16.1,21.466-21.851,33.145s-8.411,25.08-3.378,37c4.985,11.828,16.87,20.695,29.746,26.938,26.149,12.678,56.95,16.31,87.007,18.364,66.514,4.552,133.378,2.58,200.067.609,24.681-.732,49.468-1.472,73.746-5.288,13.484-2.12,27.4-5.485,37.193-13.6,12.424-10.308,15.5-27.766,7.176-40.689-13.966-21.681-52.57-27.065-62.343-50.335-5.371-12.805.145-27.073,7.956-38.95,16.752-25.479,44.829-47.834,46.305-76.962,1.016-20-12.481-40.036-33.351-49.5-21.873-9.923-52.21-8.674-68.341,7.75C415.849,161.741,386.642,168.247,361.606,167.4Z" transform="translate(-80.684 -103.448)" fill="#0ab5f5" opacity="0.1"/>
      <path id="Path_10368" data-name="Path 10368" d="M575.824,614.474c.272,3.5,1.621,7.132,4.46,9.2s7.355,2.028,9.524-.749a10.654,10.654,0,0,0,1.581-3.439c1.827-5.774,3.124-12.091,1.122-17.808-4.517-.293-9.752-2.418-13.142,1.314A15.569,15.569,0,0,0,575.824,614.474Z" transform="translate(-345.408 -374.413)" fill="#3f3d56"/>
      <path id="Path_10369" data-name="Path 10369" d="M594,530.432c-.6,5.095-1.621,10.168-1.516,15.3.039,1.98.25,3.943.254,5.932a29.237,29.237,0,0,1-3.943,14.706,4.933,4.933,0,0,1-1.078,1.393,3.461,3.461,0,0,1-3.768.127,7.412,7.412,0,0,1-2.677-2.9c-3.264-5.59-3.356-12.385-4.648-18.724-.99-4.85-2.725-9.55-3.351-14.457-.407-3.159-.346-6.378-.995-9.5-.2-.942-.749-2.357-1.113-3.746a5.631,5.631,0,0,1-.175-3.294c.7-1.713,2.979-1.047,4.464-.942a102.755,102.755,0,0,0,15.71-.039,1.35,1.35,0,0,1,1.818.942,21.256,21.256,0,0,1,.951,3.5A38.935,38.935,0,0,1,594,530.432Z" transform="translate(-342.622 -325.693)" fill="#fabdbd"/>
      <g id="Group_10452" data-name="Group 10452" transform="translate(228.2 188.417)" opacity="0.1">
        <path id="Path_10370" data-name="Path 10370" d="M608.462,514.483a3.86,3.86,0,0,0-.81,0c-2.506.2-5.016.3-7.522.315Q604.3,514.807,608.462,514.483Z" transform="translate(-587.296 -514.308)"/>
        <path id="Path_10371" data-name="Path 10371" d="M584.85,567.889a7.413,7.413,0,0,1-2.677-2.9c-3.264-5.59-3.356-12.385-4.648-18.724-.99-4.85-2.725-9.55-3.351-14.457-.407-3.159-.346-6.378-.994-9.5-.2-.942-.749-2.357-1.113-3.746a5.632,5.632,0,0,1-.175-3.294,1.866,1.866,0,0,1,1.752-1.139c-1.108-.074-2.19.057-2.628,1.139a5.631,5.631,0,0,0,.175,3.294c.364,1.389.916,2.8,1.113,3.746.648,3.119.587,6.339.994,9.5.626,4.911,2.361,9.612,3.351,14.457,1.292,6.339,1.384,13.142,4.648,18.724a7.412,7.412,0,0,0,2.677,2.9,3.891,3.891,0,0,0,2.3.464A4.041,4.041,0,0,1,584.85,567.889Z" transform="translate(-570.833 -514.111)"/>
      </g>
      <path id="Path_10372" data-name="Path 10372" d="M639.937,546.235c-2.628,5.257-2.19,12.7-2.19,12.7.438,17.523-6.571,54.322-6.571,54.322h-6.133s-.876-40.741,0-44.246-.438-15.771-1.752-32.856a87.7,87.7,0,0,1,3.11-29.268c.491-1.752.832-2.712.832-2.712s10.076-14.895,15.771-7.885c1.314,1.63,2.011,4.92,2.252,9.073C646.035,519.07,641.952,542.2,639.937,546.235Z" transform="translate(-371.991 -314.629)" fill="#fabdbd"/>
      <path id="Path_10373" data-name="Path 10373" d="M653.954,505.371c-.241-4.153-.929-7.447-2.252-9.073a4.513,4.513,0,0,0-4.3-1.827,4.67,4.67,0,0,1,2.988,1.827c1.314,1.63,2.011,4.92,2.252,9.073.78,13.7-3.3,36.834-5.318,40.868-2.628,5.257-2.19,12.7-2.19,12.7.438,17.523-6.571,54.322-6.571,54.322h1.314s7.009-36.8,6.571-54.322c0,0-.438-7.447,2.19-12.7C650.651,542.2,654.734,519.074,653.954,505.371Z" transform="translate(-380.69 -314.633)" opacity="0.1"/>
      <path id="Path_10374" data-name="Path 10374" d="M618.337,755.822a5.7,5.7,0,0,0-1.253,1.367c-.784,1.481.329,3.251,1.52,4.429s2.628,2.44,2.628,4.118a4.106,4.106,0,0,1-2.164,3.224c-.613.385-1.384.876-1.257,1.6a1.506,1.506,0,0,0,.232.513,6.781,6.781,0,0,0,4.482,2.716,20.216,20.216,0,0,0,5.371.044,1.082,1.082,0,0,0,.736-.254,1,1,0,0,0,.2-.6,7.867,7.867,0,0,1,.438-2.747c.57-1.143,1.879-1.726,2.628-2.751,1.051-1.4.907-3.351.508-5.055-.876-3.711-2.826-7.942-5.752-10.514C623.261,748.958,620.6,753.689,618.337,755.822Z" transform="translate(-368.475 -458.788)" fill="#3f3d56"/>
      <path id="Path_10375" data-name="Path 10375" d="M478.158,230.063c2.445-3.654,1.809-8.762-.688-12.4s-6.51-5.923-10.65-7.4a29.977,29.977,0,0,0-17.471-1.174c-4.565,1.187-8.665,3.671-12.967,5.59a55.763,55.763,0,0,1-24.217,4.819c-9.248-.258-19.381-2.628-27.139,2.427-14.2,9.239-7.885,34.385-21.321,44.684-3.623,2.777-8.183,3.991-12.214,6.133s-7.85,5.87-7.754,10.435a12.141,12.141,0,0,0,2.19,6.133,28.382,28.382,0,0,0,23.888,12.836,30.419,30.419,0,0,0,24.073-12.827c1.362-1.932,2.563-4.083,4.539-5.371,3.943-2.585,9.138-.775,13.843-.39,10.474.854,20.953-7.009,23.039-17.326.876-4.4.723-9.664,4.267-12.428,2.861-2.23,6.887-1.752,10.514-2.133,6.633-.688,11.868-4.819,15.469-10.216,1.652-2.475,1.844-5.432,4.1-7.382C472.082,231.933,475.836,233.515,478.158,230.063Z" transform="translate(-215.023 -153.843)" fill="#3f3d56"/>
      <g id="Group_10453" data-name="Group 10453" transform="translate(152.805 54.426)" opacity="0.1">
        <path id="Path_10376" data-name="Path 10376" d="M462.61,233.7a55.536,55.536,0,0,0,11.465-.876c-1.043.031-2.094.031-3.141,0-7.259-.2-15.061-1.7-21.834.105C453.568,232.975,458.19,233.58,462.61,233.7Z" transform="translate(-427.034 -221.626)"/>
        <path id="Path_10377" data-name="Path 10377" d="M420.56,381.246c-1.976,1.288-3.176,3.439-4.539,5.371a30.775,30.775,0,0,1-17.291,11.92c.513.022,1.025.035,1.542.031a30.406,30.406,0,0,0,24.073-12.827c1.362-1.932,2.563-4.083,4.538-5.371l.342-.21C426.132,379.735,423.1,379.586,420.56,381.246Z" transform="translate(-398.73 -304.693)"/>
        <path id="Path_10378" data-name="Path 10378" d="M605.62,217.635c-2.493-3.619-6.51-5.923-10.65-7.4a29.977,29.977,0,0,0-17.471-1.174c-.131.031-.258.07-.385.105a33.535,33.535,0,0,1,9.533,1.945c4.14,1.476,8.157,3.781,10.65,7.4s3.132,8.762.688,12.4c-2.322,3.465-6.076,1.884-8.534,4.017-2.252,1.949-2.445,4.906-4.1,7.382-3.1,4.631-7.408,8.324-12.774,9.725,1.844-.219,3.789-.193,5.629-.386,6.633-.688,11.868-4.819,15.469-10.216,1.652-2.475,1.844-5.432,4.1-7.382,2.458-2.133,6.212-.552,8.534-4.017C608.757,226.379,608.121,221.253,605.62,217.635Z" transform="translate(-496.42 -208.252)"/>
        <path id="Path_10379" data-name="Path 10379" d="M527.982,309.243c-3.605.377-7.631-.1-10.514,2.133-3.544,2.764-3.373,8.026-4.267,12.428-1.538,7.7-7.785,14.045-15.2,16.406l.521.048c10.474.854,20.953-7.009,23.039-17.326.876-4.4.723-9.664,4.267-12.428a7.913,7.913,0,0,1,2.72-1.314C528.35,309.194,528.171,309.225,527.982,309.243Z" transform="translate(-454.512 -264.971)"/>
      </g>
      <path id="Path_10380" data-name="Path 10380" d="M602.367,180.581s-10.514,21.028-14.019,28.913-35.484,19.714-39.865,20.152a5.642,5.642,0,0,0-3.128,1.507,17.23,17.23,0,0,0-3.881,5.94s1.752,11.828-.438,31.542c-.044.381-.083.762-.118,1.13-1.91,18.759,2.09,23.183,2.09,23.183s-42.494,16.209-41.18-4.819a95.291,95.291,0,0,0-.057-15.5,65.083,65.083,0,0,0-2.515-12.2c-1.038-3.632-2.278-7.614-3.562-13.037a57.19,57.19,0,0,0-2.436-7.951c-.031-.079-.061-.158-.088-.232-2.19-5.437-4.381-7.193-5.634-7.763a18.936,18.936,0,0,1-3.364-1.893A176.955,176.955,0,0,1,463.7,212.342c-10.514-10.514-21.028-35.484-21.028-35.484s-3.067-14.457,3.943-26.285,3.943,23.218,3.943,23.218,12.7,17.085,15.771,24.971a13.176,13.176,0,0,0,6.133,7.211,72.722,72.722,0,0,1,9.7,6.063,56.636,56.636,0,0,0,6.523,4.258c4.9,2.628,10.764,5.594,15.653,6.374a14.761,14.761,0,0,0,2.309.2,2.392,2.392,0,0,0,1.928-.876c1.314-1.546,1.284-4.876.981-7.614a38.7,38.7,0,0,0-.718-4.219s14.238-8.981,13.8,1.971a12.239,12.239,0,0,0,.333,3.6,6.243,6.243,0,0,0,4.245,4.644,10.515,10.515,0,0,0,5.257.171,5.139,5.139,0,0,0,1.551-.53c1.314-.876,14.457-4.819,18.4-5.257s23.656-10.076,23.656-10.076l21.466-29.789s-.438-17.523,8.324-24.532S602.367,180.581,602.367,180.581Z" transform="translate(-270.242 -120.045)" fill="#fabdbd"/>
      <g id="Group_10454" data-name="Group 10454" transform="translate(171.756 31.312)" opacity="0.1">
        <path id="Path_10381" data-name="Path 10381" d="M667.134,395.634a87.344,87.344,0,0,0-.5,10.6c.044-2.313.2-4.955.5-7.973.035-.368.074-.749.118-1.13a171.8,171.8,0,0,0,1.1-20.323,175.959,175.959,0,0,1-1.1,17.694C667.226,394.885,667.169,395.266,667.134,395.634Z" transform="translate(-568.215 -279.854)"/>
        <path id="Path_10382" data-name="Path 10382" d="M595.038,289.07c-.293.171-.438.276-.438.276a37.529,37.529,0,0,1,.841,5.7,26.872,26.872,0,0,0-.4-5.971Z" transform="translate(-527.744 -230.551)"/>
        <path id="Path_10383" data-name="Path 10383" d="M461.764,184.013c.215-3.067.534-8.564.473-13.453-.074,6.536-.657,13.2-.657,13.2Z" transform="translate(-452.998 -163.958)"/>
        <path id="Path_10384" data-name="Path 10384" d="M578.552,466.53a2.879,2.879,0,0,1-.031.513c-1.314,21.028,41.18,4.819,41.18,4.819a7.133,7.133,0,0,1-1.108-2.225C612.192,471.914,580.029,482.507,578.552,466.53Z" transform="translate(-518.693 -330.27)"/>
        <path id="Path_10385" data-name="Path 10385" d="M729.953,182.086S719.439,203.114,715.935,211s-35.484,19.714-39.865,20.152a5.642,5.642,0,0,0-3.128,1.507,17.23,17.23,0,0,0-3.881,5.94s.105.714.232,2.072a16.287,16.287,0,0,1,3.649-5.384,5.642,5.642,0,0,1,3.128-1.507c4.381-.438,36.361-12.266,39.865-20.152s14.019-28.913,14.019-28.913,7.408-22.5,6.593-29.224C735.872,164.111,729.953,182.086,729.953,182.086Z" transform="translate(-569.585 -155.49)"/>
        <path id="Path_10386" data-name="Path 10386" d="M501.761,295.28a65.087,65.087,0,0,0-2.515-12.2c-1.038-3.632-2.278-7.614-3.562-13.037a57.2,57.2,0,0,0-2.436-7.951c-.031-.079-.061-.158-.088-.232-2.19-5.437-4.381-7.193-5.634-7.763a18.936,18.936,0,0,1-3.364-1.893,176.952,176.952,0,0,1-20.472-17.208c-10.514-10.514-21.028-35.484-21.028-35.484a39.611,39.611,0,0,1-.648-6.387,42.231,42.231,0,0,0,.648,9.016s10.514,24.971,21.028,35.484a176.949,176.949,0,0,0,20.472,17.208,18.934,18.934,0,0,0,3.391,1.893c1.249.569,3.435,2.326,5.634,7.763.026.074.057.153.088.232a57.178,57.178,0,0,1,2.423,7.951c1.284,5.423,2.523,9.406,3.562,13.037a65.087,65.087,0,0,1,2.515,12.2c.184,1.831.294,3.824.324,6.067A76.294,76.294,0,0,0,501.761,295.28Z" transform="translate(-441.989 -176.635)"/>
      </g>
      <path id="Path_10387" data-name="Path 10387" d="M610.674,343.675a26.087,26.087,0,0,0-1.752,3.452,20.855,20.855,0,0,0-.789,5.791,46.492,46.492,0,0,1-1.244,8.113,8.979,8.979,0,0,1-.438,1.437,3.8,3.8,0,0,1-.513.876,3.738,3.738,0,0,1-.815.74,9.561,9.561,0,0,1-1.485.81c-6.1,2.848-12.748,5.362-19.4,4.381a28.236,28.236,0,0,1-8.074-2.716c-2.409-1.17-5.134-2.558-7.631-1.586h0a3.842,3.842,0,0,1-1.222.381,1.161,1.161,0,0,1-.245-.022c-.824-.158-.824-2.935-1.012-3.754-.718-3.145-.828-5.7-1.257-8.429a27.664,27.664,0,0,0-1.056-4.455,52.609,52.609,0,0,1-2.282-16.507c0-.276-1.971,0-2.629-.026-.166,0-.258-.026-.219-.083a.877.877,0,0,1,.131-.149,2,2,0,0,1,.784-.39l.517-.153c2.707-.767,5.7-1.086,7.719-2.992,2.1-1.967,2.628-5.108,2.536-7.982a47.509,47.509,0,0,1-.4-5.029,14.76,14.76,0,0,0,2.309.2,2.392,2.392,0,0,0,1.927-.876,34.611,34.611,0,0,1,1.893,4.381,30.272,30.272,0,0,0,2.405,5.415,9.169,9.169,0,0,0,8.2,4.2,7.617,7.617,0,0,0,6.781-5.914c.5-2.782-.666-6.786-.64-9.677a10.514,10.514,0,0,0,5.257.171,4.751,4.751,0,0,1,.188.548c.986,3.382,2.3,7.263,5.607,8.464,2.138.771,4.666.193,6.641,1.314a4.258,4.258,0,0,1,.438.289,4.85,4.85,0,0,1,1.161,1.231,9.9,9.9,0,0,1,1.406,4.416A24.5,24.5,0,0,1,610.674,343.675Z" transform="translate(-335.759 -212.748)" fill="#0ab5f5"/>
      <path id="Path_10388" data-name="Path 10388" d="M608.692,290.827a14.93,14.93,0,0,1-13.414-1.354,38.667,38.667,0,0,0-.719-4.219s14.238-8.981,13.8,1.971A12.243,12.243,0,0,0,608.692,290.827Z" transform="translate(-355.966 -195.148)" opacity="0.1"/>
      <circle id="Ellipse_3203" data-name="Ellipse 3203" cx="14.895" cy="14.895" r="14.895" transform="translate(232.457 66.012)" fill="#fabdbd"/>
      <path id="Path_10389" data-name="Path 10389" d="M555.06,343.193s28.913-18.4,118.72,1.314,141.938,3.943,141.938,3.943v20.59s-100.758,10.952-139.309,0-93.429-17.269-112.648-.311Z" transform="translate(-333.77 -225.268)" fill="#f86d70"/>
      <path id="Path_10390" data-name="Path 10390" d="M555.06,343.193s28.913-18.4,118.72,1.314,141.938,3.943,141.938,3.943v20.59s-100.758,10.952-139.309,0-93.429-17.269-112.648-.311Z" transform="translate(-333.77 -225.268)" opacity="0.1"/>
      <path id="Path_10391" data-name="Path 10391" d="M557.06,345.193s28.037-18.4,117.844,1.314,141.062,3.943,141.062,3.943l.438,18.837s-99.882,10.952-138.433,0-92.991-18.583-112.21-1.625Z" transform="translate(-334.894 -226.392)" fill="#f86d70"/>
      <path id="Path_10392" data-name="Path 10392" d="M271.1,380.4s-28.913,18.4-118.72-1.314-85.426-3.943-85.426-3.943v-20.59s44.246-10.952,82.8,0,93.429,17.269,112.648.311Z" transform="translate(-59.475 -233.302)" fill="#f86d70"/>
      <path id="Path_10393" data-name="Path 10393" d="M271.1,380.4s-28.913,18.4-118.72-1.314-85.426-3.943-85.426-3.943v-20.59s44.246-10.952,82.8,0,93.429,17.269,112.648.311Z" transform="translate(-59.475 -233.302)" opacity="0.1"/>
      <path id="Path_10394" data-name="Path 10394" d="M270.831,380.651s-28.037,18.4-117.844-1.314-84.549-3.943-84.549-3.943L68,356.556s43.37-10.952,81.921,0,92.991,18.583,112.21,1.625Z" transform="translate(-60.081 -234.426)" fill="#f86d70"/>
      <path id="Path_10395" data-name="Path 10395" d="M567.371,243.511c-.438-2.734-1.113-6.177,1.174-7.741a4.863,4.863,0,0,1,2.712-.7c4.736-.048,9.261,3.251,13.9,2.287a7.837,7.837,0,0,0,3.067-13.962,15.746,15.746,0,0,0-6.37-2.309c-5.875-1.209-12.008-2.414-17.808-.876s-11.1,6.738-10.637,12.7c.219,2.856,1.674,5.45,3.194,7.885,1.156,1.849,5.66,10.514,7.846,10.645C567.537,251.625,567.673,245.3,567.371,243.511Z" transform="translate(-332.829 -160.138)" fill="#3f3d56"/>
      <path id="Path_10396" data-name="Path 10396" d="M613.614,461.7s-30.228,7.447-40.3,0c0,0-4.381,17.085-3.067,25.847,0,0,21.466,1.314,23.656,2.629,0,0,.438-3.5,2.628-1.752,0,0,7.447-8.762,21.028-.876C617.557,487.547,620.186,466.957,613.614,461.7Z" transform="translate(-342.164 -296.244)" fill="#0ab5f5"/>
      <path id="Path_10397" data-name="Path 10397" d="M599.568,227.623a8.7,8.7,0,0,0-.977-.613,7.82,7.82,0,0,1-4.289,12.823c-4.644.964-9.169-2.335-13.9-2.287a4.863,4.863,0,0,0-2.712.7c-2.287,1.564-1.617,5.007-1.178,7.741.289,1.787.171,8.113-2.9,7.942h-.053c.846,1.03,1.634,1.726,2.243,1.752,3.067.171,3.194-6.133,2.9-7.942-.438-2.734-1.108-6.177,1.178-7.741a4.863,4.863,0,0,1,2.712-.7c4.736-.048,9.261,3.251,13.9,2.287a7.837,7.837,0,0,0,3.067-13.962Z" transform="translate(-344.16 -164.367)" opacity="0.1"/>
      <g id="Group_10455" data-name="Group 10455" transform="translate(0.013 38.639)" opacity="0.1">
        <path id="Path_10398" data-name="Path 10398" d="M87.78,176.025s-32.755-13.773-37.048,11.066c0,0-2.239,3.868.876,7.066,0,0,.67-1.713,3.838.061a16.473,16.473,0,0,0,3.575,1.45,8.043,8.043,0,0,0,5.09-.272h0s10.772-.583,19.832-14.676c0,0,3.881-2.4,4.079-3.3l-6.492.438s.5,4.753-2.19,7.605c0,0,2.388-7.373,1.24-7.583-.232-.044-3.43.381-3.43.381s.828,8.262-3.5,12.538c0,0,4.022-8.407,2.269-12.389l-4.788.924s1.314,8.691-3.426,13.751c0,0,3.895-8.937,2.392-13.48L65.5,181.151s1.108,8.508-2.856,12.7c0,0,3.461-10.781,1.831-12.266,0,0-4.127,1.673-5.012,2.628,0,0,.657,6.133-1.866,8.324,0,0,1.551-7.447.784-7.754,0,0-4.8,3.61-6.256,6.725a18.185,18.185,0,0,1,5.651-7.447,10.086,10.086,0,0,0-5.7.8s1.66-3.159,6.856-1.66c0,0,3.851-2.664,4.622-2.628,0,0-4.915-2.19-8.468-1.923,0,0,3.807-2.19,9.673,1.472l4.574-1.656s-6.348-3.255-9.533-3.242c0,0,4.232-1.634,10.724,2.922l4.683-.959s-5.257-3.22-8.8-3.969c0,0,4.254-.67,10.155,3.75l3.207-.272s-3.881-2.282-5.055-2.839-1.121-.92-1.121-.92a15.289,15.289,0,0,1,7.522,3.619S87.749,176.432,87.78,176.025Z" transform="translate(-49.953 -172.217)" fill="#0ab5f5"/>
      </g>
      <g id="Group_10456" data-name="Group 10456" transform="translate(4.813 -0.004)" opacity="0.1">
        <path id="Path_10399" data-name="Path 10399" d="M92.728,101.768S81.1,74.927,64.414,87.237a4.968,4.968,0,0,0-3.5,4.687s1.376-.635,2.243,2.221a13.751,13.751,0,0,0,1.314,2.9,6.571,6.571,0,0,0,3.15,2.729h0s6.729,5.791,20.152,2.58c0,0,3.675.789,4.306.364l-4.1-3.443s-2.409,3.106-5.642,3.259c0,0,5.621-3.023,5.055-3.8-.114-.158-2.252-1.726-2.252-1.726s-4.219,5.38-9.2,5.463c0,0,7.18-2.707,8.407-6.067l-3.369-2.19s-4.179,5.91-9.87,6.216c0,0,7.4-3.067,9.1-6.641l-3.605-1.7S72.4,97.781,67.669,98c0,0,8.2-4.433,8.069-6.243,0,0-3.4-1.358-4.482-1.279,0,0-3.1,4.008-5.862,3.895,0,0,5.165-3.544,4.88-4.162,0,0-4.906-.587-7.548.438a14.95,14.95,0,0,1,7.6-1.2,8.211,8.211,0,0,0-3.829-2.76s2.786-.933,5.02,2.918c0,0,3.8.609,4.245,1.065,0,0-1.665-4.114-3.943-5.967,0,0,3.5.876,4.906,6.383l3.658,1.625s-1.914-5.55-3.838-7.351c0,0,3.448,1.437,4.709,7.842l3.325,2.1s-1.292-4.906-2.966-7.351c0,0,2.909,2.02,3.9,8.008l2.059,1.665s-1.008-3.566-1.389-4.565-.14-1.183-.14-1.183a12.621,12.621,0,0,1,2.405,6.435S92.491,102,92.728,101.768Z" transform="translate(-60.91 -84.006)" fill="#0ab5f5"/>
      </g>
    </g>
    <g id="button">
      <g id="Rectangle_31" data-name="Rectangle 31" transform="translate(15 667)" fill="#0ab5f5" stroke="#e2e6ea" stroke-miterlimit="10" stroke-width="1">
        <rect width="345" height="60" rx="5" stroke="none"/>
        <rect x="0.5" y="0.5" width="344" height="59" rx="4.5" fill="none"/>
      </g>
      <text id="Enter_your_full_name" data-name="Enter your full name" transform="translate(158.763 703)" fill="#fff" font-size="17" font-family="SegoeUI, Segoe UI"><tspan x="0" y="0">Sign Up</tspan></text>
    </g>
    <text id="or_Login" data-name="or Login" transform="translate(188 756)" fill="#8b959a" font-size="14" font-family="SegoeUI, Segoe UI"><tspan x="-25.628" y="0">or </tspan><tspan y="0" fill="#0ab5f5">Login</tspan></text>
  </g>
</svg>
