<svg xmlns="http://www.w3.org/2000/svg" xmlns:xlink="http://www.w3.org/1999/xlink" width="375" height="812" viewBox="0 0 375 812">
  <defs>
    <linearGradient id="linear-gradient" x1="0.5" y1="1" x2="0.5" gradientUnits="objectBoundingBox">
      <stop offset="0" stop-color="gray" stop-opacity="0.251"/>
      <stop offset="0.54" stop-color="gray" stop-opacity="0.122"/>
      <stop offset="1" stop-color="gray" stop-opacity="0.102"/>
    </linearGradient>
    <clipPath id="clip-Overview_-_1">
      <rect width="375" height="812"/>
    </clipPath>
  </defs>
  <g id="Overview_-_1" data-name="Overview - 1" clip-path="url(#clip-Overview_-_1)">
    <rect width="375" height="812" fill="#fff"/>
    <g id="Status_Bar_White" data-name="Status Bar White">
      <rect id="Rectangle" width="375" height="44" fill="none"/>
      <g id="Battery" transform="translate(336 17)">
        <g id="Border" transform="translate(0 0.333)" fill="none" stroke="#000" stroke-miterlimit="10" stroke-width="1" opacity="0.35">
          <rect width="22" height="11.333" rx="2.667" stroke="none"/>
          <rect x="0.5" y="0.5" width="21" height="10.333" rx="2.167" fill="none"/>
        </g>
        <path id="Cap" d="M0,0V4A2.17,2.17,0,0,0,1.328,2,2.17,2.17,0,0,0,0,0" transform="translate(23 4)" opacity="0.4"/>
        <rect id="Capacity" width="18" height="7.333" rx="1.333" transform="translate(2 2.333)"/>
      </g>
      <path id="Wifi" d="M7.637,10.966a.313.313,0,0,1-.221-.093l-2-2.016a.313.313,0,0,1,.01-.456,3.421,3.421,0,0,1,4.419,0,.311.311,0,0,1,.1.226.315.315,0,0,1-.094.23l-2,2.016A.308.308,0,0,1,7.637,10.966Zm3.508-3.538a.312.312,0,0,1-.214-.085,4.9,4.9,0,0,0-6.585,0,.312.312,0,0,1-.214.085.308.308,0,0,1-.22-.091L2.758,6.17a.322.322,0,0,1,0-.459,7.158,7.158,0,0,1,9.752,0,.322.322,0,0,1,.1.229.326.326,0,0,1-.094.23L11.364,7.337A.309.309,0,0,1,11.145,7.428ZM13.8,4.743a.3.3,0,0,1-.214-.087,8.64,8.64,0,0,0-11.907,0,.3.3,0,0,1-.214.087.308.308,0,0,1-.22-.091L.094,3.486a.322.322,0,0,1,0-.456,10.9,10.9,0,0,1,15.08,0,.325.325,0,0,1,.1.228.319.319,0,0,1-.094.229L14.023,4.652A.307.307,0,0,1,13.8,4.743Z" transform="translate(315.694 17.331)"/>
      <path id="Cellular_Connection" data-name="Cellular Connection" d="M16,10.667H15a1,1,0,0,1-1-1V1a1,1,0,0,1,1-1h1a1,1,0,0,1,1,1V9.667A1,1,0,0,1,16,10.667Zm-4.667,0h-1a1,1,0,0,1-1-1V3.334a1,1,0,0,1,1-1h1a1,1,0,0,1,1,1V9.667A1,1,0,0,1,11.334,10.667Zm-4.667,0h-1a1,1,0,0,1-1-1v-4a1,1,0,0,1,1-1h1a1,1,0,0,1,1,1v4A1,1,0,0,1,6.666,10.667ZM2,10.667H1a1,1,0,0,1-1-1v-2a1,1,0,0,1,1-1H2a1,1,0,0,1,1,1v2A1,1,0,0,1,2,10.667Z" transform="translate(293.667 17.667)"/>
      <g id="Time_Style" data-name="Time Style" transform="translate(21 13)">
        <rect id="Time_Style_background" data-name="Time Style background" width="54" height="21" fill="rgba(0,0,0,0)"/>
        <text id="_Time" data-name="↳ Time" transform="translate(0 2)" font-size="14" font-family="SegoeUI, Segoe UI"><tspan x="14.582" y="15" letter-spacing="-0.02em">9:4</tspan><tspan y="15">1</tspan></text>
      </g>
    </g>
    <g id="pre-header" transform="translate(59 105)">
      <text id="Login_Now" data-name="Login Now" transform="translate(76 24)" font-size="26" font-family="SegoeUI, Segoe UI"><tspan x="0" y="0">Welcome</tspan></text>
      <text id="Please_login_to_cont" data-name="Please login to cont" transform="translate(-41 54)" fill="#8b959a" font-size="14" font-family="SegoeUI, Segoe UI"><tspan x="0" y="0">A quick and short introduction about our beautiful app</tspan></text>
    </g>
    <g id="Group_10422" data-name="Group 10422" transform="translate(-9367.383 15206)">
      <g id="undraw_weather_d9t2" transform="translate(9413.383 -15002)">
        <path id="Path_78" data-name="Path 78" d="M291.876,76.681C280.611,84.4,266,83.9,253.192,79.886S228.624,68.715,216.14,63.63A122.524,122.524,0,0,0,183.6,55.325c-15.9-1.774-33.659.388-44.738,12.871-12.338,13.9-11.391,38.972,1.953,51.734,6.788,6.491,15.678,9.676,23.415,14.743s14.924,13.484,14.268,23.266c-.612,9.055-7.719,16-15.071,20.363-5.681,3.37-12.683,7.049-13.367,14.029-.661,6.752,5.223,12.045,10.843,15.052a62.69,62.69,0,0,0,59.181-.253c6.515-3.547,12.505-8.287,19.337-11.059,17.942-7.279,37.711.048,56.708,2.726a115.715,115.715,0,0,0,48.23-3.436c9.41-2.721,18.853-6.879,25.461-14.627,4.765-5.574,7.735-12.655,10.524-19.635q4.457-11.168,8.571-22.493c1.644-4.533,3.265-9.151,3.69-14,.772-8.789-2.475-17.482-6.893-24.89-10.49-17.606-28.162-29.988-47.288-33.132s-39.391,3-54.233,16.438" transform="translate(-109.719 -54.784)" fill="#3c82ff" opacity="0.1"/>
        <ellipse id="Ellipse_1" data-name="Ellipse 1" cx="44.592" cy="7.598" rx="44.592" ry="7.598" transform="translate(0 172.224)" fill="#3c82ff" opacity="0.1"/>
        <rect id="Rectangle_1" data-name="Rectangle 1" width="201.792" height="95.667" rx="30.34" transform="translate(61.396 48.002)" fill="#0ab5f5"/>
        <g id="Group_10423" data-name="Group 10423" transform="translate(60.006 65.44)" opacity="0.2">
          <path id="Path_79" data-name="Path 79" d="M322.064,368.29H289.429a7.079,7.079,0,0,1-7.079-7.079V314.489a7.076,7.076,0,0,1,7.079-7.079h32.635Z" transform="translate(-282.35 -307.41)" fill="#fff" opacity="0.2"/>
        </g>
        <g id="Group_10424" data-name="Group 10424" transform="translate(221.827 65.44)" opacity="0.2">
          <path id="Path_80" data-name="Path 80" d="M941.7,368.29H909.07V307.41H941.7a7.076,7.076,0,0,1,7.079,7.079v46.722A7.079,7.079,0,0,1,941.7,368.29Z" transform="translate(-909.07 -307.41)" fill="#fff" opacity="0.2"/>
        </g>
        <g id="Group_10425" data-name="Group 10425" transform="translate(181.086 65.438)" opacity="0.2">
          <rect id="Rectangle_2" data-name="Rectangle 2" width="39.712" height="60.88" fill="#fff" opacity="0.2"/>
        </g>
        <g id="Group_10426" data-name="Group 10426" transform="translate(140.705 65.438)" opacity="0.2">
          <rect id="Rectangle_3" data-name="Rectangle 3" width="39.712" height="60.88" fill="#fff" opacity="0.2"/>
        </g>
        <g id="Group_10427" data-name="Group 10427" transform="translate(100.325 65.438)" opacity="0.2">
          <rect id="Rectangle_4" data-name="Rectangle 4" width="39.712" height="60.88" fill="#3c82ff" opacity="0.2"/>
        </g>
        <path id="Path_81" data-name="Path 81" d="M526.245,405.54a.575.575,0,0,1-.575-.575v-1.66a.575.575,0,0,1,1.15,0v1.665a.575.575,0,0,1-.575.57Z" transform="translate(-403.26 -313.179)" fill="#fff"/>
        <path id="Path_82" data-name="Path 82" d="M511.212,411.654a.573.573,0,0,1-.405-.167l-1.176-1.178a.575.575,0,1,1,.811-.813l1.178,1.178a.575.575,0,0,1-.408.98Z" transform="translate(-391.193 -318.064)" fill="#fff"/>
        <path id="Path_83" data-name="Path 83" d="M538.859,439.3a.578.578,0,0,1-.408-.167l-1.176-1.178a.575.575,0,1,1,.813-.811l1.176,1.176a.575.575,0,0,1-.405.981Z" transform="translate(-411.732 -338.594)" fill="#fff"/>
        <path id="Path_84" data-name="Path 84" d="M544.17,426.69h-1.665a.575.575,0,1,1,0-1.15h1.665a.575.575,0,0,1,0,1.15Z" transform="translate(-415.33 -330.131)" fill="#fff"/>
        <path id="Path_85" data-name="Path 85" d="M537.753,411.722a.575.575,0,0,1-.405-.981l1.176-1.178a.575.575,0,1,1,.813.813l-1.176,1.178A.582.582,0,0,1,537.753,411.722Z" transform="translate(-411.804 -318.132)" fill="#fff"/>
        <path id="Path_86" data-name="Path 86" d="M496.267,418.826a3.04,3.04,0,0,0-5.516-1.774,4.274,4.274,0,0,0-6.139,2.3,2.86,2.86,0,1,0-.322,5.7h7.669a3.376,3.376,0,0,0,.76-.089,3.306,3.306,0,0,0,2.48-3.849A3.04,3.04,0,0,0,496.267,418.826Zm-3.8,5.019a2.047,2.047,0,0,1-.507.058h-7.682a1.71,1.71,0,0,1-.393-3.372,1.738,1.738,0,0,1,.4-.048,1.673,1.673,0,0,1,.545.091.58.58,0,0,0,.471-.046.572.572,0,0,0,.276-.383,3.126,3.126,0,0,1,5.8-.874.079.079,0,0,1,.013.025.583.583,0,0,0,.525.3h.063a2.144,2.144,0,0,1,1.834,1.013,2.224,2.224,0,0,1,.253.633,2.328,2.328,0,0,1,.058.474A2.156,2.156,0,0,1,492.467,423.845Zm1.54-4.7a3.344,3.344,0,0,0-1.773-.692,4.252,4.252,0,0,0-.57-.7,1.892,1.892,0,1,1,3.084,2.194A3.314,3.314,0,0,0,494.007,419.147Z" transform="translate(-370.307 -322.819)" fill="#fff"/>
        <g id="Group_10428" data-name="Group 10428" transform="translate(152.046 90.781)" opacity="0.5">
          <path id="Path_87" data-name="Path 87" d="M657.427,411.779a3.294,3.294,0,0,0-2.962-2.534,8.9,8.9,0,0,0-10.831,2.6,2.86,2.86,0,1,0-.327,5.7h7.674a3.363,3.363,0,0,0,.76-.089,3.306,3.306,0,0,0,2.123-1.606h.339a3.372,3.372,0,0,0,.76-.089,3.309,3.309,0,0,0,2.463-3.985Zm-5.009,4.054a2.153,2.153,0,0,1-.93.507,2.218,2.218,0,0,1-.507.058h-7.687a1.71,1.71,0,0,1-.393-3.375,1.74,1.74,0,0,1,.76,0,1.5,1.5,0,0,1,.182.053.58.58,0,0,0,.76-.431,3.134,3.134,0,0,1,3.061-2.491,2.989,2.989,0,0,1,.428.03,3.127,3.127,0,0,1,2.323,1.611.567.567,0,0,0,.522.3h.043a2.154,2.154,0,0,1,1.427,3.762Zm2.28-1.208a2.073,2.073,0,0,1-.448.058,3.259,3.259,0,0,0-.058-1.219,3.294,3.294,0,0,0-2.962-2.534,4.277,4.277,0,0,0-2.361-1.774,3.121,3.121,0,0,1,4.748.917.572.572,0,0,0,.524.3h.063a2.154,2.154,0,0,1,.507,4.249Z" transform="translate(-640.455 -407.293)" fill="#fff"/>
        </g>
        <g id="Group_10429" data-name="Group 10429" transform="translate(234.763 90.121)" opacity="0.5">
          <path id="Path_88" data-name="Path 88" d="M992,442.2l-.37-.215.37-.213a.291.291,0,1,0-.286-.507l-.372.215v-.41a.289.289,0,1,0-.575,0v.423l-.367-.213a.291.291,0,1,0-.286.507l.367.21-.367.213a.288.288,0,0,0,.149.537.253.253,0,0,0,.142-.041l.367-.21v.428a.289.289,0,0,0,.575,0V442.5l.372.213a.254.254,0,0,0,.142.041.294.294,0,0,0,.253-.144A.289.289,0,0,0,992,442.2Z" transform="translate(-982.406 -431.617)" fill="#fff"/>
          <path id="Path_89" data-name="Path 89" d="M985.17,432.883l-.37-.213.37-.215a.287.287,0,0,0-.289-.5l-.37.215v-.426a.289.289,0,0,0-.575,0v.423l-.367-.21a.291.291,0,0,0-.286.507l.367.213-.367.21a.288.288,0,0,0,.286.5l.367-.213v.431a.289.289,0,0,0,.575,0v-.431l.362.213a.3.3,0,0,0,.144.038.289.289,0,0,0,.145-.537Z" transform="translate(-977.305 -424.698)" fill="#fff"/>
          <path id="Path_90" data-name="Path 90" d="M978.364,442.2l-.37-.215.37-.213a.291.291,0,1,0-.286-.507l-.372.215v-.41a.289.289,0,1,0-.575,0v.423l-.365-.213a.292.292,0,1,0-.289.507l.367.21-.367.213a.286.286,0,0,0-.1.393.289.289,0,0,0,.253.144.278.278,0,0,0,.144-.041l.365-.21v.428a.289.289,0,0,0,.575,0V442.5l.373.213a.253.253,0,0,0,.142.041.289.289,0,0,0,.144-.537Z" transform="translate(-972.223 -431.617)" fill="#fff"/>
          <path id="Path_91" data-name="Path 91" d="M973.887,409.178a3.306,3.306,0,0,0-2.962-2.534,4.277,4.277,0,0,0-7.621.894,2.86,2.86,0,1,0-.327,5.7h.917a.575.575,0,1,0,0-1.15h-.925a1.711,1.711,0,0,1-.4-3.375,1.732,1.732,0,0,1,.942.043.575.575,0,0,0,.76-.428,3.126,3.126,0,0,1,5.812-.849.573.573,0,0,0,.522.3h.066a2.154,2.154,0,0,1,.507,4.249,2.215,2.215,0,0,1-.507.058H970.2a.575.575,0,0,0,0,1.15h.479a3.294,3.294,0,0,0,3.215-4.067Z" transform="translate(-960.125 -404.692)" fill="#fff"/>
        </g>
        <g id="Group_10430" data-name="Group 10430" transform="translate(193.888 89.585)" opacity="0.5">
          <path id="Path_92" data-name="Path 92" d="M814.578,411.071a3.368,3.368,0,0,1-.76.089h-1.31a.575.575,0,1,1,0-1.15h1.31a2.219,2.219,0,0,0,.507-.058,2.154,2.154,0,0,0-.507-4.249h-.066a.568.568,0,0,1-.522-.3,3.129,3.129,0,0,0-5.827.849.573.573,0,0,1-.76.428,1.71,1.71,0,1,0-.547,3.332h1.926a.575.575,0,0,1,0,1.15H806.1a2.861,2.861,0,1,1,.327-5.7,4.274,4.274,0,0,1,7.649-.894,3.294,3.294,0,0,1,.507,6.509Z" transform="translate(-803.237 -402.578)" fill="#fff"/>
          <path id="Path_93" data-name="Path 93" d="M778.432,374.676h.811l-1.735,4.191.415-3.02h-.773l.611-3.347h1.578Z" transform="translate(-771.236 -366.244)" fill="#fff"/>
        </g>
        <g id="Group_10431" data-name="Group 10431" transform="translate(73.606 89.514)" opacity="0.5">
          <path id="Path_94" data-name="Path 94" d="M359.029,405.152a.575.575,0,0,1-.573-.575v-1.665a.575.575,0,1,1,1.148,0v1.665A.575.575,0,0,1,359.029,405.152Z" transform="translate(-352.67 -402.299)" fill="#fff"/>
          <path id="Path_95" data-name="Path 95" d="M337.86,426.43H336.2a.575.575,0,1,1,0-1.15h1.665a.575.575,0,1,1,0,1.15Z" transform="translate(-335.62 -419.458)" fill="#fff"/>
          <path id="Path_96" data-name="Path 96" d="M359.033,444.467a.575.575,0,0,1-.573-.575v-1.665a.575.575,0,0,1,1.148,0v1.665A.575.575,0,0,1,359.033,444.467Z" transform="translate(-352.673 -431.71)" fill="#fff"/>
          <path id="Path_97" data-name="Path 97" d="M376.965,426.43h-1.66a.575.575,0,1,1,0-1.15h1.662a.575.575,0,1,1,0,1.15Z" transform="translate(-364.821 -419.458)" fill="#fff"/>
          <path id="Path_98" data-name="Path 98" d="M351.76,421.641a3.04,3.04,0,1,1,3.04-3.04A3.04,3.04,0,0,1,351.76,421.641Zm0-4.935a1.893,1.893,0,1,0,1.9,1.893A1.893,1.893,0,0,0,351.76,416.705Z" transform="translate(-345.401 -412.2)" fill="#fff"/>
          <path id="Path_99" data-name="Path 99" d="M345.8,413.2a.573.573,0,0,1-.408-.167l-.588-.588a.575.575,0,1,1,.813-.813l.588.588a.575.575,0,0,1-.405.98Z" transform="translate(-342.351 -409.143)" fill="#fff"/>
          <path id="Path_100" data-name="Path 100" d="M345.213,438.522a.575.575,0,0,1-.405-.98l.588-.588a.575.575,0,1,1,.813.813l-.588.593A.583.583,0,0,1,345.213,438.522Z" transform="translate(-342.355 -428.048)" fill="#fff"/>
          <path id="Path_101" data-name="Path 101" d="M371.119,438.522a.578.578,0,0,1-.408-.167l-.588-.588a.575.575,0,0,1,.813-.813l.588.588a.575.575,0,0,1-.405.98Z" transform="translate(-361.256 -428.048)" fill="#fff"/>
          <path id="Path_102" data-name="Path 102" d="M370.533,413.2a.575.575,0,0,1-.405-.98l.588-.588a.575.575,0,1,1,.813.813l-.588.588A.578.578,0,0,1,370.533,413.2Z" transform="translate(-361.26 -409.143)" fill="#fff"/>
        </g>
        <rect id="Rectangle_5" data-name="Rectangle 5" width="23.193" height="7.094" rx="3.547" transform="translate(68.334 67.734)" fill="#f6f7f9"/>
        <rect id="Rectangle_6" data-name="Rectangle 6" width="23.193" height="7.094" rx="3.547" transform="translate(108.638 67.734)" fill="#f6f7f9"/>
        <rect id="Rectangle_7" data-name="Rectangle 7" width="23.193" height="7.094" rx="3.547" transform="translate(148.944 67.734)" fill="#f6f7f9"/>
        <rect id="Rectangle_8" data-name="Rectangle 8" width="23.193" height="7.094" rx="3.547" transform="translate(189.251 67.734)" fill="#f6f7f9"/>
        <rect id="Rectangle_9" data-name="Rectangle 9" width="23.193" height="7.094" rx="3.547" transform="translate(230.026 67.734)" fill="#f6f7f9"/>
        <path id="Path_103" data-name="Path 103" d="M195.173,178.856s-7.56-7.727-9.927-7.838a10.547,10.547,0,0,1-4.021-1.331l-.279-.15c.253-.338.119-.516-.013-.611a.6.6,0,0,0-.139-.067l-18.024-14.5a17.326,17.326,0,0,0-.788-3.354l-.958-3.207L159,145.127s.565-1.868,0-2.8-.448-3.132-.844-8.46-2.534-5.658-2.534-5.658-8.285-5.6-9.238-5.434c-.892.152-2.083-1.6-2.24-1.842l-.018-.026a.189.189,0,0,1-.015.062q.02-.3.015-.611h0v-.222h0a12.939,12.939,0,0,1,.737-2.577c.071-.178.142-.346.213-.5a10.035,10.035,0,0,0,6.907-6.982c.015-.059.028-.119.043-.178.408.052.821.075,1.221.09h.076a3.5,3.5,0,0,1-.271-.88h-.081a3.988,3.988,0,0,1-.048-.457c.03.1.063.2.1.3a5.707,5.707,0,0,1,.41-2.717c.464-1.2,1.176-2.291,1.685-3.473a5.332,5.332,0,0,0,.524-2.547,3.056,3.056,0,0,0-.231-.919.259.259,0,0,0,0,.041v.2a2.444,2.444,0,0,0-1.176-1.458,11.517,11.517,0,0,1-1.414-.57c-1.249-.841-1.178-2.2-2.843-2.642-1.338-.353-2.754-.348-4.1-.717-2.914-.789-5.376-.3-8.194.72a16.676,16.676,0,0,0-5.756,3.594,8.321,8.321,0,0,0-2.534,6.146,4.265,4.265,0,0,0,.585,2.043,6.633,6.633,0,0,1,1.013,1.592,7.8,7.8,0,0,1-.081,2.178c0,.666.459,1.445,1.074,1.435a.724.724,0,0,0,.253-.023,1.2,1.2,0,0,0,.552-.39c.038.088.076.175.117.258.1.209.2.415.317.614-.018.111-.038.222-.063.328a4.985,4.985,0,0,1-1.279,2.17.948.948,0,0,0-.431.139h0l-.124.062-4.11,2.11h-.451a38.675,38.675,0,0,0-5.744.191c-.714.3-7.624.862-7.624.862s-3.681.219-3.491,5.676c0,0-1.391,4.626-1.8,5.395s-2.853,8.274-2.853,8.274l-2.845,14.35-.34,15.891s0,1.806-.056,3.95a42.187,42.187,0,0,1-.542,7.036h0l.253.1a1.047,1.047,0,0,1-.041.119l.223-.052,1.578.6s-3.894,4.5-1.077,5.637c1.391.56,4.687,2.183,7.669,3.682a19.913,19.913,0,0,0,.778,9.938,16.783,16.783,0,0,1,.19,5.64c-.448,2.856.038,12.3.038,12.3l-.038,16.554s.6,10.62,1.127,12.9a2.857,2.857,0,0,1-1.127,3.225s1.082,6.241,2.394,7.069c-.025.121-.056.258-.089.379a20.85,20.85,0,0,1-.991,2.988,5.409,5.409,0,0,0-.337,3.7s.073,3.042,5.48,3.664,5.184-3.225,4.733-4.688a23.579,23.579,0,0,1,.124-5.7c.015-.163.03-.32.046-.47a4.239,4.239,0,0,0,1.267-1.664c1.049-2.123,0-7.25-.76-8.935a5.126,5.126,0,0,1-.076-3.517s-.826-9.448,0-10.251.676-4.386.676-4.386l1.353-7.4,1.576-3.148.451-6.886,1.267-6.079s.524-.516.975-5.346,1.051-3.3,1.051-3.3a6.178,6.178,0,0,0,1.5,4.835l.471,8.424s.58,6.3,1.54,7.836a3.872,3.872,0,0,1,0,3.442,67.976,67.976,0,0,1,.038,7.763c-.279,1.76,1.1,5.787,1.1,5.787l.375,7.25s-2.252,6.517-1.2,8.643a7.978,7.978,0,0,1,.527,4.613,1.081,1.081,0,0,0,.223.384c-.028.111-.056.224-.081.343a20.733,20.733,0,0,0-.329,2.348s.562.774,3.078,1.721,1.953,2.565,2.328,3.591,2.929,1.938,7.961,1.718,1.839-3.917,1.839-3.917-2.627-3.772-3.529-4.286a3.371,3.371,0,0,1-.937-1.453c-.056-.129-.109-.258-.162-.4l.21-.054s1.34-10.836.365-11.868.322-8.058.322-8.058.654-2.34.355-3,.3-3.223.3-3.223.451-6.966-.378-8.568.451-10.989.451-10.989.527-8.788,1.855-11.935a12.4,12.4,0,0,0,.486-3.406c.735-.364,1.191-.642,1.191-.642s1.52-20.873.618-23.455a15.366,15.366,0,0,1-.775-5.134l1.746-6.316s1.127,3.13,1.86,3.514a6.577,6.577,0,0,1,1.634,1.925l7.715,6.262,5.972,4.448,5.3,4.451a7.655,7.655,0,0,1,.955-2.931l.187.07a8.51,8.51,0,0,0,1.915.622c-.167-.1-.079-.666.182-1.406l.226.222a43.7,43.7,0,0,0,3.476,2.939c5.6,4.355,8.543-.516,8.543-.516a23.432,23.432,0,0,0,4.206,3.037C195.231,180.608,195.173,178.856,195.173,178.856Z" transform="translate(-88.219 -83.882)" fill="url(#linear-gradient)"/>
        <path id="Path_104" data-name="Path 104" d="M234.29,708.806s.537.76,2.926,1.677,1.855,2.5,2.212,3.5,2.787,1.89,7.565,1.675,1.748-3.816,1.748-3.816-2.5-3.676-3.355-4.175a3.308,3.308,0,0,1-.892-1.414,26.407,26.407,0,0,1-.965-2.942s-7.885,1.072-8.455,1.857a3.921,3.921,0,0,0-.469,1.35,20.8,20.8,0,0,0-.317,2.288Z" transform="translate(-186.738 -535.874)" fill="#b07473"/>
        <path id="Path_105" data-name="Path 105" d="M150.014,723.964s.071,2.962,5.209,3.567,4.923-3.139,4.495-4.561a24.085,24.085,0,0,1,.119-5.559c.119-1.267.238-2.222.238-2.222s-8.635.18-8.564.643a5.794,5.794,0,0,1-.236,1.622,20.655,20.655,0,0,1-.94,2.911A5.4,5.4,0,0,0,150.014,723.964Z" transform="translate(-124.407 -544.744)" fill="#b07473"/>
        <path id="Path_106" data-name="Path 106" d="M390.742,389.821a6.845,6.845,0,0,0,1.386,1.682,41.984,41.984,0,0,0,3.306,2.866c5.321,4.244,8.108-.507,8.108-.507a22.143,22.143,0,0,0,4,2.962c1.323.535,1.267-1.178,1.267-1.178s-7.17-7.52-9.42-7.629a9.812,9.812,0,0,1-3.821-1.3c-.76-.416-1.282-.76-1.282-.76l-1.931,1.862-1.682,1.621S390.6,389.517,390.742,389.821Z" transform="translate(-302.866 -300.668)" fill="#efb7b9"/>
        <path id="Path_107" data-name="Path 107" d="M236.009,705.235a3.922,3.922,0,0,0-.469,1.35c1.328,1.933,9.225-.094,9.881-.253a26.4,26.4,0,0,1-.965-2.942S236.579,704.449,236.009,705.235Z" transform="translate(-187.681 -535.934)" opacity="0.1"/>
        <path id="Path_108" data-name="Path 108" d="M155.48,717.435a.756.756,0,0,0,.165.107c1.285.583,7.854-.015,7.854-.015a.676.676,0,0,0,.547-.134c.119-1.267.238-2.222.238-2.222s-8.635.18-8.564.644A5.794,5.794,0,0,1,155.48,717.435Z" transform="translate(-128.611 -544.729)" opacity="0.1"/>
        <path id="Path_109" data-name="Path 109" d="M143.092,402.2a16.723,16.723,0,0,1,.182,5.493c-.428,2.787.035,11.989.035,11.989l-.035,16.129s.57,10.347,1.069,12.557a2.826,2.826,0,0,1-1.069,3.142s1.069,6.352,2.354,6.937,7.854-.015,7.854-.015.785.286,1.774-1.773,0-7.064-.714-8.708a5.159,5.159,0,0,1-.071-3.425s-.785-9.2,0-9.987.641-4.282.641-4.282l1.285-7.208,1.508-3.071.428-6.709,1.214-5.921s.507-.507.927-5.212,1-3.21,1-3.21a6.092,6.092,0,0,0,1.426,4.707l.448,8.209s.552,6.136,1.464,7.634a3.863,3.863,0,0,1,0,3.354,67.667,67.667,0,0,1,.035,7.565c-.266,1.713,1.049,5.637,1.049,5.637l.357,7.066s-2.141,6.349-1.14,8.419a7.97,7.97,0,0,1,.507,4.495c.785,2.5,10.071,0,10.071,0s1.267-10.56.347-11.558.307-7.854.307-7.854.621-2.28.337-2.924.284-3.142.284-3.142.428-6.78-.357-8.348.428-10.7.428-10.7.507-8.564,1.761-11.632a12.64,12.64,0,0,0,.464-3.329c.378-7-.464-21.5-.464-21.5l-3.491-4.783-3.643-.193-3.517-.193-6.6-.35-6.522-.347-7.966-.423s-1.639,14.695-3.963,21.054a16.738,16.738,0,0,0-.737,2.726A19.876,19.876,0,0,0,143.092,402.2Z" transform="translate(-118.595 -286.935)" fill="#444053"/>
        <path id="Path_110" data-name="Path 110" d="M222.74,165.907l2.838,6.957,6.154,1.013s3.266,1.125,3.1-1.66a10.5,10.5,0,0,1,.818-4.186,14.3,14.3,0,0,1,.788-1.7s-12.63-7.119-11.933-4.71a3.154,3.154,0,0,1,.03,1.621A5.366,5.366,0,0,1,222.74,165.907Z" transform="translate(-178.163 -134.182)" fill="#efb7b9"/>
        <path id="Path_111" data-name="Path 111" d="M161.674,325.23H147.83l.712,4.852h13.416Z" transform="translate(-110.376 -241.515)" fill="#b07473"/>
        <path id="Path_112" data-name="Path 112" d="M161.674,325.23H147.83l.712,4.852h13.416Z" transform="translate(-110.376 -241.515)" opacity="0.1"/>
        <path id="Path_113" data-name="Path 113" d="M391,389.851a6.849,6.849,0,0,0,1.386,1.682c.469-1.376,1.52-3.377,2.584-4.054a2.786,2.786,0,0,0,.844-.72c-.76-.415-1.282-.76-1.282-.76l-1.931,1.862Z" transform="translate(-303.188 -300.736)" opacity="0.1"/>
        <path id="Path_114" data-name="Path 114" d="M383.71,390.12s.471.182,1.034.393c.93.352,2.111.785,1.819.606-.461-.284,1.145-4.388,2.759-5.422,1.2-.76.975-1.125.78-1.267a.482.482,0,0,0-.129-.063l-1.3-.466Z" transform="translate(-297.764 -299.165)" fill="#e1e7ef"/>
        <path id="Path_115" data-name="Path 115" d="M229.64,161.663a3.154,3.154,0,0,1,.03,1.622,9.663,9.663,0,0,0,11.115,4.789,14.313,14.313,0,0,1,.788-1.7S228.951,159.253,229.64,161.663Z" transform="translate(-183.273 -134.212)" opacity="0.1"/>
        <path id="Path_116" data-name="Path 116" d="M225.419,121.56a9.592,9.592,0,1,0,2.81-6.842A9.653,9.653,0,0,0,225.419,121.56Z" transform="translate(-180.139 -97.436)" fill="#efb7b9"/>
        <path id="Path_117" data-name="Path 117" d="M191.9,241.89l6.154.276,7.094.317,3.461.157.253-2.316,2.734-23.963.91-18.143h-2.463l-6.8-1.125-2.415-.9h0L197.682,195l-2.569,5.247-.856,24.029-2.027,15.159Z" transform="translate(-155.804 -158.747)" fill="#e1e7ef"/>
        <path id="Path_118" data-name="Path 118" d="M213.236,221.459s2.46-10.758,4.173-12.845c0,0-.641-3.694-2.06-4.175s2.169-1.178,2.169-1.178l2.194.76,2.194.9a4.964,4.964,0,0,0-1.606,3.96,5.774,5.774,0,0,0,.266,3c.588,1.5.694,13.649,0,15.255s-.588,5.138-.588,5.138l-1.439,6.9-.481,8.3-5.2,3.866-3.641-4.56Z" transform="translate(-168.735 -164.87)" opacity="0.1"/>
        <path id="Path_119" data-name="Path 119" d="M212.356,220.616s2.463-10.758,4.175-12.845c0,0-.644-3.691-2.06-4.173s2.166-1.178,2.166-1.178l2.194.76,2.194.9a4.966,4.966,0,0,0-1.6,3.96,5.789,5.789,0,0,0,.253,3c.59,1.5.7,13.649,0,15.252s-.588,5.138-.588,5.138l-1.444,6.9-.484,8.3-5.191,3.854-3.638-4.548Z" transform="translate(-168.071 -164.247)" fill="#b07473"/>
        <path id="Path_120" data-name="Path 120" d="M255.129,199.25l-5.348,1.774s2.673,1.378,2.675,5.447A12.649,12.649,0,0,0,255.129,199.25Z" transform="translate(-198.272 -162.055)" opacity="0.1"/>
        <path id="Path_121" data-name="Path 121" d="M255.129,198.4l-5.348,1.774s2.673,1.378,2.675,5.445A12.617,12.617,0,0,0,255.129,198.4Z" transform="translate(-198.272 -161.424)" fill="#e1e7ef"/>
        <path id="Path_122" data-name="Path 122" d="M221.748,178.72a24.435,24.435,0,0,0,6.266,6.98s-2.2-.816-6.266,2.28C221.748,187.988,219.227,178.925,221.748,178.72Z" transform="translate(-177.253 -146.806)" opacity="0.1"/>
        <path id="Path_123" data-name="Path 123" d="M221.748,177.88a24.471,24.471,0,0,0,6.266,6.98s-2.2-.816-6.266,2.28C221.748,187.148,219.227,178.085,221.748,177.88Z" transform="translate(-177.253 -146.182)" fill="#e1e7ef"/>
        <path id="Path_124" data-name="Path 124" d="M383.71,390.128s.471.182,1.034.393a21.647,21.647,0,0,1,5.359-6.081.483.483,0,0,0-.129-.063l-1.3-.466Z" transform="translate(-297.765 -299.177)" opacity="0.1"/>
        <path id="Path_125" data-name="Path 125" d="M241.11,266.2c.162,3.585,2.141,10.223,2.141,10.223,2.488,3.446,8,.917,9.949-.137.378-7-.464-21.5-.464-21.5L249.245,250l-3.643-.193,2.734-23.963.91-18.143h-1.361a30.2,30.2,0,0,0-1.013,5.726c.177,1.107-1.68,12.133-1.68,12.133l-2.3,14.046-.628,3.828a31.382,31.382,0,0,1-.182,6.185c-.068.788-.139,1.586-.21,2.346-.253,2.6-.507,4.778-.507,4.778C241.057,259.208,241.11,266.2,241.11,266.2Z" transform="translate(-191.81 -168.024)" opacity="0.1"/>
        <path id="Path_126" data-name="Path 126" d="M242.8,261.25c.162,3.588,2.141,10.223,2.141,10.223,3.04,4.229,10.641-.535,10.641-.535s1.444-20.337.588-22.853a15.261,15.261,0,0,1-.747-4.979l1.657-6.154s1.072,3.04,1.774,3.425a6.39,6.39,0,0,1,1.551,1.872l7.332,6.1,5.673,4.335,5.032,4.335c.375-4.495,6.316-8.936,6.316-8.936l-17.122-14.133a17.321,17.321,0,0,0-.76-3.266l-.91-3.124-1.926-2.6s.535-1.819,0-2.729-.428-3.04-.8-8.242-2.4-5.511-2.4-5.511-7.854-5.46-8.776-5.3c-.849.152-1.981-1.561-2.131-1.794l-.015-.025s-1.52,6.012-1.35,7.119-1.68,12.131-1.68,12.131l-2.3,14.046-.628,3.831c.466,1.434-.892,13.307-.892,13.307C242.747,254.257,242.8,261.25,242.8,261.25Z" transform="translate(-192.973 -163.32)" fill="#67647e"/>
        <path id="Path_127" data-name="Path 127" d="M143.21,262.8c3.068,1.581,5.913,3.088,5.913,3.088s4.748,1.571,6.674-7.348l5.531-15.164s.144-.451.372-1.206c.187-.616.431-1.437.692-2.379,1.087-3.864,2.534-9.765,2-12.08v-.18l-.109-20.727s.585-9.744.22-10.547a.42.42,0,0,0-.028-.061h0L161.328,195l-2.569,5.247-.856,24.029-2.027,15.159-7.966-.423s-1.639,14.695-3.963,21.054A16.74,16.74,0,0,0,143.21,262.8Z" transform="translate(-119.45 -158.616)" opacity="0.1"/>
        <path id="Path_128" data-name="Path 128" d="M111.58,246.828c2.678,1.1,12.774,6.456,12.774,6.456s4.748,1.573,6.674-7.348l5.523-15.164s3.889-12.1,3.068-15.665v-.18l-.109-20.73s.585-9.742.22-10.545a12.392,12.392,0,0,1-.58-4.938c.013-.1.023-.2.035-.3l-.122.066-3.907,2.055h-.428a35.533,35.533,0,0,0-5.457.188c-.679.286-7.244.839-7.244.839s-3.5.213-3.316,5.538c0,0-1.323,4.507-1.713,5.255s-2.714,8.062-2.714,8.062L111.572,214.4l-.319,15.483s-.035,9.881-.57,10.7l1.926.76S108.9,245.721,111.58,246.828Z" transform="translate(-95.109 -146.307)" fill="#67647e"/>
        <path id="Path_129" data-name="Path 129" d="M131.956,412.762l1.214,1.606s7.421,13.451-.856,11.49-7.066-8.738-7.066-8.738l.507-4.71Z" transform="translate(-105.992 -320.284)" fill="#efb7b9"/>
        <path id="Path_130" data-name="Path 130" d="M165.332,696.583a18.168,18.168,0,0,0-5.067-1.249c-2,0-4.674-.215-4.353.322s4.175.605,5.28,1.14,3.461,2,3.676,2.07S165.332,696.583,165.332,696.583Z" transform="translate(-128.914 -529.887)" opacity="0.1"/>
        <path id="Path_131" data-name="Path 131" d="M251.038,676.45c-.035.213-4.282,4.981-6.636,4.773S251.038,676.45,251.038,676.45Z" transform="translate(-193.98 -516.427)" opacity="0.1"/>
        <path id="Path_132" data-name="Path 132" d="M245.094,631.52s-4.56,11.6-6.03,12.2-1.677-1.429-.892-2S241.385,637.408,245.094,631.52Z" transform="translate(-190.016 -482.968)" opacity="0.1"/>
        <path id="Path_133" data-name="Path 133" d="M173.718,616.45s-.76,4.282,1.14,7.066S173.718,616.45,173.718,616.45Z" transform="translate(-142.116 -471.838)" opacity="0.1"/>
        <path id="Path_134" data-name="Path 134" d="M201.4,462.177c.081-.066-6.815-.357-6.815-.357A4.874,4.874,0,0,0,201.4,462.177Z" transform="translate(-157.805 -357.071)" opacity="0.1"/>
        <path id="Path_135" data-name="Path 135" d="M205.8,474.92l-4.175.393S203.082,477.1,205.8,474.92Z" transform="translate(-163.061 -366.804)" opacity="0.1"/>
        <path id="Path_136" data-name="Path 136" d="M315.55,299.31s3.747.507,4.1,1.606S315.55,299.31,315.55,299.31Z" transform="translate(-247.137 -236.381)" opacity="0.1"/>
        <path id="Path_137" data-name="Path 137" d="M311.808,332.113a8.993,8.993,0,0,0-4.244-.357c-1.639.428-3.963-.785-3.963-.785s-2.354-.071-1.89.253,1.855.177,2.64.644a6.4,6.4,0,0,0,3.37.641A33.883,33.883,0,0,1,311.808,332.113Z" transform="translate(-236.791 -259.89)" opacity="0.1"/>
        <path id="Path_138" data-name="Path 138" d="M249.87,234.657l.086,1.938s6.565-16.126,8.2-19.59.717-10.988.717-10.988l-.93-.215-2.724-4.416-.015-.025s-1.52,6.012-1.35,7.119-1.68,12.131-1.68,12.131Z" transform="translate(-198.328 -163.52)" fill="#67647e"/>
        <path id="Path_139" data-name="Path 139" d="M198,183.937s2.7,27.753,6.876,31.184l-.109-20.73s.585-9.742.22-10.545a12.392,12.392,0,0,1-.58-4.938l-.086-.238-3.907,2.055h-.428l-.253,3.7Z" transform="translate(-160.358 -146.683)" fill="#67647e"/>
        <path id="Path_140" data-name="Path 140" d="M249.87,234.657l.086,1.938s6.565-16.126,8.2-19.59.717-10.988.717-10.988l-.93-.215-2.724-4.416-.015-.025s-1.52,6.012-1.35,7.119-1.68,12.131-1.68,12.131Z" transform="translate(-198.328 -163.52)" opacity="0.1"/>
        <path id="Path_141" data-name="Path 141" d="M198,183.937s2.7,27.753,6.876,31.184l-.109-20.73s.585-9.742.22-10.545a12.392,12.392,0,0,1-.58-4.938l-.086-.238-3.907,2.055h-.428l-.253,3.7Z" transform="translate(-160.358 -146.683)" opacity="0.1"/>
        <circle id="Ellipse_2" data-name="Ellipse 2" cx="0.798" cy="0.798" r="0.798" transform="translate(50.786 75.381)" fill="#444053"/>
        <circle id="Ellipse_3" data-name="Ellipse 3" cx="0.798" cy="0.798" r="0.798" transform="translate(49.986 87.376)" fill="#444053"/>
        <path id="Path_142" data-name="Path 142" d="M225.413,121.751a9.592,9.592,0,0,0,.879,4.026l.127-.152c1.558-1.946,1.89-4.654,3.294-6.727a4.1,4.1,0,0,1,1.994-1.682,2.117,2.117,0,0,1,2.369.664c.324.461.421,1.064.76,1.52.654.859,1.908.836,2.959.676s2.247-.339,3.058.362.869,1.908,1.52,2.721a3.2,3.2,0,0,0,2.04,1.039,9.651,9.651,0,1,0-19-2.44Z" transform="translate(-180.132 -97.627)" opacity="0.1"/>
        <path id="Path_143" data-name="Path 143" d="M223.534,97.988a15.806,15.806,0,0,0-5.47,3.5,8.3,8.3,0,0,0-2.42,5.987,4.274,4.274,0,0,0,.557,1.991,6.817,6.817,0,0,1,.97,1.551,7.875,7.875,0,0,1-.076,2.121c0,.712.524,1.561,1.193,1.373a1.292,1.292,0,0,0,.618-.489c1.556-1.943,1.888-4.654,3.278-6.724a4.1,4.1,0,0,1,1.994-1.682,2.117,2.117,0,0,1,2.371.664c.324.461.418,1.064.76,1.52.651.859,1.908.836,2.957.676s2.247-.34,3.061.36.869,1.908,1.52,2.721c.8.991,2.207,1.12,3.456,1.171a4.9,4.9,0,0,1,.111-3.659c.441-1.168,1.117-2.232,1.6-3.382a5.321,5.321,0,0,0,.507-2.483,2.562,2.562,0,0,0-1.252-2.083,11.21,11.21,0,0,1-1.345-.557c-1.188-.818-1.12-2.149-2.7-2.574-1.267-.345-2.617-.339-3.9-.7C228.551,96.516,226.212,97,223.534,97.988Z" transform="translate(-172.858 -86.236)" fill="#585268"/>
        <path id="Path_144" data-name="Path 144" d="M126.355,418.31a16.439,16.439,0,0,1-2.463,2.105c-.286-.035-.712-1.928-.712-1.928Z" transform="translate(-104.495 -324.754)" opacity="0.1"/>
        <path id="Path_145" data-name="Path 145" d="M125.507,417.46a16.436,16.436,0,0,1-2.463,2.105c-.286-.035-.714-1.926-.714-1.926Z" transform="translate(-103.86 -324.123)" fill="#e1e7ef"/>
        <path id="Path_146" data-name="Path 146" d="M111.77,347.888s9.278-2.141,11.6-1.143a51.226,51.226,0,0,1-.714-6.207,40.4,40.4,0,0,0-.035-4.32s-.535-6.243.18-7.991.319-6.387.319-6.387l-10.56,5.029S112.414,346.495,111.77,347.888Z" transform="translate(-95.975 -252.965)" opacity="0.1"/>
        <path id="Path_147" data-name="Path 147" d="M110.93,347.075s9.276-2.141,11.6-1.143a51.228,51.228,0,0,1-.714-6.207,40.156,40.156,0,0,0-.035-4.307s-.535-6.245.177-7.994.322-6.385.322-6.385l-10.568,5.019S111.571,345.685,110.93,347.075Z" transform="translate(-95.348 -252.371)" fill="#67647e"/>
        <g id="Group_10432" data-name="Group 10432" transform="translate(42.91 16.067)" opacity="0.1">
          <path id="Path_148" data-name="Path 148" d="M303.566,127.607a4.926,4.926,0,0,1,.175-3.5c.441-1.171,1.117-2.232,1.6-3.382a5.321,5.321,0,0,0,.507-2.483.257.257,0,0,0,0-.041,3.063,3.063,0,0,1,.22.9,5.321,5.321,0,0,1-.507,2.483c-.484,1.15-1.158,2.212-1.6,3.382A5.656,5.656,0,0,0,303.566,127.607Z" transform="translate(-281.233 -118.2)"/>
          <path id="Path_149" data-name="Path 149" d="M222.643,136.444a1.31,1.31,0,0,0,.621-.489c1.556-1.943,1.888-4.654,3.279-6.724a4.1,4.1,0,0,1,1.991-1.682,2.118,2.118,0,0,1,2.371.664c.327.461.418,1.064.76,1.52.654.859,1.908.836,2.959.676s2.247-.34,3.061.36.869,1.908,1.52,2.721c.788.981,2.174,1.115,3.413,1.168a3.458,3.458,0,0,0,.253.859c-1.252-.051-2.66-.18-3.458-1.171-.654-.813-.737-2.042-1.52-2.721s-2.012-.522-3.061-.36-2.306.182-2.957-.676c-.34-.448-.433-1.051-.76-1.52a2.115,2.115,0,0,0-2.371-.664,4.073,4.073,0,0,0-1.994,1.682c-1.391,2.07-1.723,4.781-3.278,6.724a1.292,1.292,0,0,1-.618.489c-.669.187-1.2-.661-1.193-1.373v-.033A.882.882,0,0,0,222.643,136.444Z" transform="translate(-220.264 -125.094)"/>
          <path id="Path_150" data-name="Path 150" d="M216.441,141.326a6.643,6.643,0,0,1,.97,1.551,1.873,1.873,0,0,1,.068.507c-.218-.426-.57-.785-.823-1.2a3.916,3.916,0,0,1-.507-1.467A3.55,3.55,0,0,0,216.441,141.326Z" transform="translate(-216.15 -135.014)"/>
        </g>
        <ellipse id="Ellipse_4" data-name="Ellipse 4" cx="20.213" cy="3.101" rx="20.213" ry="3.101" transform="translate(187.778 167.444)" fill="#3c82ff" opacity="0.1"/>
        <ellipse id="Ellipse_5" data-name="Ellipse 5" cx="9.998" cy="1.535" rx="9.998" ry="1.535" transform="translate(90.045 200.322)" fill="#3c82ff" opacity="0.1"/>
        <ellipse id="Ellipse_6" data-name="Ellipse 6" cx="9.998" cy="1.535" rx="9.998" ry="1.535" transform="translate(154.803 192.4)" fill="#3c82ff" opacity="0.1"/>
        <ellipse id="Ellipse_7" data-name="Ellipse 7" cx="9.998" cy="1.535" rx="9.998" ry="1.535" transform="translate(108.028 181.318)" fill="#3c82ff" opacity="0.1"/>
        <ellipse id="Ellipse_8" data-name="Ellipse 8" cx="9.998" cy="1.535" rx="9.998" ry="1.535" transform="translate(138.441 172.113)" fill="#3c82ff" opacity="0.1"/>
        <path id="Path_151" data-name="Path 151" d="M1047.875,659s1.682,2.2-.778,5.523-4.487,6.131-3.656,8.191c0,0,3.709-6.169,6.732-6.255S1051.2,662.7,1047.875,659Z" transform="translate(-787.428 -503.351)" fill="#3c82ff"/>
        <path id="Path_152" data-name="Path 152" d="M1048.135,659a2.763,2.763,0,0,1,.344.692c2.947,3.461,4.517,6.694,1.682,6.775-2.638.073-5.8,4.794-6.562,5.984a2.621,2.621,0,0,0,.091.271s3.709-6.169,6.732-6.256S1051.457,662.7,1048.135,659Z" transform="translate(-787.688 -503.351)" opacity="0.1"/>
        <path id="Path_153" data-name="Path 153" d="M1072.7,668.542c0,.775-.089,1.4-.2,1.4s-.2-.628-.2-1.4.109-.408.218-.408S1072.7,667.782,1072.7,668.542Z" transform="translate(-809.124 -510.222)" fill="#ffd037"/>
        <path id="Path_154" data-name="Path 154" d="M1074.17,672.146c-.679.372-1.267.6-1.323.507s.458-.471,1.138-.841.413-.1.464,0S1074.852,671.777,1074.17,672.146Z" transform="translate(-809.523 -512.889)" fill="#ffd037"/>
        <path id="Path_155" data-name="Path 155" d="M1015.307,659s-1.682,2.2.778,5.523,4.487,6.131,3.679,8.191c0,0-3.712-6.169-6.732-6.255S1011.986,662.7,1015.307,659Z" transform="translate(-763.751 -503.351)" fill="#3c82ff"/>
        <path id="Path_156" data-name="Path 156" d="M1015.286,659a2.725,2.725,0,0,0-.342.692c-2.947,3.461-4.517,6.694-1.685,6.775,2.638.073,5.8,4.794,6.562,5.984a2.577,2.577,0,0,1-.089.271s-3.712-6.169-6.732-6.256S1011.964,662.7,1015.286,659Z" transform="translate(-763.729 -503.351)" opacity="0.1"/>
        <path id="Path_157" data-name="Path 157" d="M1014.07,668.542c0,.775.086,1.4.193,1.4s.2-.628.2-1.4-.109-.408-.215-.408S1014.07,667.782,1014.07,668.542Z" transform="translate(-765.64 -510.222)" fill="#ffd037"/>
        <path id="Path_158" data-name="Path 158" d="M1008.615,672.146c.679.372,1.267.6,1.325.507s-.458-.471-1.14-.841-.411-.1-.461,0S1007.936,671.777,1008.615,672.146Z" transform="translate(-761.259 -512.889)" fill="#ffd037"/>
        <ellipse id="Ellipse_9" data-name="Ellipse 9" cx="17.596" cy="2.701" rx="17.596" ry="2.701" transform="translate(238.407 181.358)" fill="#3c82ff" opacity="0.1"/>
        <path id="Path_159" data-name="Path 159" d="M1026.305,698.421l-.084.687-.119.97-.048.405-.119.97-.051.405-.116.97-1.348,11.036c-.119.986-1.73,1.753-3.674,1.753h-7c-1.943,0-3.547-.76-3.671-1.753l-1.348-11.036-.119-.97-.048-.405-.122-.97-.051-.4-.117-.97-.086-.687c-.066-.557.8-1.029,1.9-1.029h14.31C1025.5,697.392,1026.381,697.863,1026.305,698.421Z" transform="translate(-761.247 -531.461)" fill="#65617d"/>
        <path id="Path_160" data-name="Path 160" d="M977.063,649.37l-.119.968H959.237l-.117-.968Z" transform="translate(-712.088 -481.724)" fill="#9d9cb5"/>
        <path id="Path_161" data-name="Path 161" d="M977.389,654.79l-.117.973H959.9l-.119-.973Z" transform="translate(-712.581 -485.771)" fill="#9d9cb5"/>
        <path id="Path_162" data-name="Path 162" d="M977.719,660.22l-.117.97H960.567l-.117-.97Z" transform="translate(-713.081 -489.825)" fill="#9d9cb5"/>
      </g>
    </g>
    <text id="Lorem_ipsum_dolor_sit_amet_consectetur_adipiscing_elit._Suspendisse_laoreet_sollicitudin_tristique._Maecenas_eget_euismod_ligula._Ut_arcu_dolor_pretium_in_justo_porta_elementum_rhoncus_ipsum._Fusce_rutrum" data-name="Lorem ipsum dolor sit amet, consectetur adipiscing elit. Suspendisse laoreet sollicitudin tristique. Maecenas eget euismod ligula. Ut arcu dolor, pretium in justo porta, elementum rhoncus ipsum. Fusce rutrum" transform="translate(36 473)" fill="#8b959a" font-size="14" font-family="SegoeUI, Segoe UI"><tspan x="26.528" y="15">Lorem ipsum dolor sit amet, consectetur </tspan><tspan x="8.727" y="34">adipiscing elit. Suspendisse laoreet sollicitudin </tspan><tspan x="2.824" y="53">tristique. Maecenas eget euismod ligula. Ut arcu </tspan><tspan x="25.284" y="72">dolor, pretium in justo porta, elementum </tspan><tspan x="61.9" y="91">rhoncus ipsum. Fusce rutrum</tspan></text>
    <g id="overview-bar" transform="translate(70 -64)">
      <g id="Ellipse_3174" data-name="Ellipse 3174" transform="translate(91 754)" fill="#0ab5f5" stroke="#13a6dd" stroke-width="1">
        <circle cx="7" cy="7" r="7" stroke="none"/>
        <circle cx="7" cy="7" r="6.5" fill="none"/>
      </g>
      <g id="Ellipse_3175" data-name="Ellipse 3175" transform="translate(111 754)" fill="none" stroke="#13a6dd" stroke-width="1">
        <circle cx="7" cy="7" r="7" stroke="none"/>
        <circle cx="7" cy="7" r="6.5" fill="none"/>
      </g>
      <g id="Ellipse_3176" data-name="Ellipse 3176" transform="translate(131 754)" fill="none" stroke="#13a6dd" stroke-width="1">
        <circle cx="7" cy="7" r="7" stroke="none"/>
        <circle cx="7" cy="7" r="6.5" fill="none"/>
      </g>
      <g id="Ellipse_3204" data-name="Ellipse 3204" transform="translate(151 754)" fill="none" stroke="#13a6dd" stroke-width="1">
        <circle cx="7" cy="7" r="7" stroke="none"/>
        <circle cx="7" cy="7" r="6.5" fill="none"/>
      </g>
    </g>
    <g id="Home_Indidcator" data-name="Home Indidcator" transform="translate(-13 432)">
      <rect id="Background" width="375" height="34" transform="translate(13 346)" fill="none"/>
      <rect id="Bar" width="134" height="5" rx="2.5" transform="translate(134 366)"/>
    </g>
  </g>
</svg>
