<svg xmlns="http://www.w3.org/2000/svg" xmlns:xlink="http://www.w3.org/1999/xlink" width="375" height="812" viewBox="0 0 375 812">
  <defs>
    <clipPath id="clip-Overview_-_2">
      <rect width="375" height="812"/>
    </clipPath>
  </defs>
  <g id="Overview_-_2" data-name="Overview - 2" clip-path="url(#clip-Overview_-_2)">
    <rect width="375" height="812" fill="#fff"/>
    <g id="Status_Bar_White" data-name="Status Bar White">
      <rect id="Rectangle" width="375" height="44" fill="none"/>
      <g id="Battery" transform="translate(336 17)">
        <g id="Border" transform="translate(0 0.333)" fill="none" stroke="#000" stroke-miterlimit="10" stroke-width="1" opacity="0.35">
          <rect width="22" height="11.333" rx="2.667" stroke="none"/>
          <rect x="0.5" y="0.5" width="21" height="10.333" rx="2.167" fill="none"/>
        </g>
        <path id="Cap" d="M0,0V4A2.17,2.17,0,0,0,1.328,2,2.17,2.17,0,0,0,0,0" transform="translate(23 4)" opacity="0.4"/>
        <rect id="Capacity" width="18" height="7.333" rx="1.333" transform="translate(2 2.333)"/>
      </g>
      <path id="Wifi" d="M7.637,10.966a.313.313,0,0,1-.221-.093l-2-2.016a.313.313,0,0,1,.01-.456,3.421,3.421,0,0,1,4.419,0,.311.311,0,0,1,.1.226.315.315,0,0,1-.094.23l-2,2.016A.308.308,0,0,1,7.637,10.966Zm3.508-3.538a.312.312,0,0,1-.214-.085,4.9,4.9,0,0,0-6.585,0,.312.312,0,0,1-.214.085.308.308,0,0,1-.22-.091L2.758,6.17a.322.322,0,0,1,0-.459,7.158,7.158,0,0,1,9.752,0,.322.322,0,0,1,.1.229.326.326,0,0,1-.094.23L11.364,7.337A.309.309,0,0,1,11.145,7.428ZM13.8,4.743a.3.3,0,0,1-.214-.087,8.64,8.64,0,0,0-11.907,0,.3.3,0,0,1-.214.087.308.308,0,0,1-.22-.091L.094,3.486a.322.322,0,0,1,0-.456,10.9,10.9,0,0,1,15.08,0,.325.325,0,0,1,.1.228.319.319,0,0,1-.094.229L14.023,4.652A.307.307,0,0,1,13.8,4.743Z" transform="translate(315.694 17.331)"/>
      <path id="Cellular_Connection" data-name="Cellular Connection" d="M16,10.667H15a1,1,0,0,1-1-1V1a1,1,0,0,1,1-1h1a1,1,0,0,1,1,1V9.667A1,1,0,0,1,16,10.667Zm-4.667,0h-1a1,1,0,0,1-1-1V3.334a1,1,0,0,1,1-1h1a1,1,0,0,1,1,1V9.667A1,1,0,0,1,11.334,10.667Zm-4.667,0h-1a1,1,0,0,1-1-1v-4a1,1,0,0,1,1-1h1a1,1,0,0,1,1,1v4A1,1,0,0,1,6.666,10.667ZM2,10.667H1a1,1,0,0,1-1-1v-2a1,1,0,0,1,1-1H2a1,1,0,0,1,1,1v2A1,1,0,0,1,2,10.667Z" transform="translate(293.667 17.667)"/>
      <g id="Time_Style" data-name="Time Style" transform="translate(21 13)">
        <rect id="Time_Style_background" data-name="Time Style background" width="54" height="21" fill="rgba(0,0,0,0)"/>
        <text id="_Time" data-name="↳ Time" transform="translate(0 2)" font-size="14" font-family="SegoeUI, Segoe UI"><tspan x="14.582" y="15" letter-spacing="-0.02em">9:4</tspan><tspan y="15">1</tspan></text>
      </g>
    </g>
    <g id="pre-header" transform="translate(128 105)">
      <text id="Login_Now" data-name="Login Now" transform="translate(13 24)" font-size="26" font-family="SegoeUI, Segoe UI"><tspan x="0" y="0">Purpose</tspan></text>
      <text id="Please_login_to_cont" data-name="Please login to cont" transform="translate(-32 54)" fill="#8b959a" font-size="14" font-family="SegoeUI, Segoe UI"><tspan x="0" y="0">Our goal for this app creation</tspan></text>
    </g>
    <text id="Lorem_ipsum_dolor_sit_amet_consectetur_adipiscing_elit._Suspendisse_laoreet_sollicitudin_tristique._Maecenas_eget_euismod_ligula._Ut_arcu_dolor_pretium_in_justo_porta_elementum_rhoncus_ipsum._Fusce_rutrum" data-name="Lorem ipsum dolor sit amet, consectetur adipiscing elit. Suspendisse laoreet sollicitudin tristique. Maecenas eget euismod ligula. Ut arcu dolor, pretium in justo porta, elementum rhoncus ipsum. Fusce rutrum" transform="translate(36 473)" fill="#8b959a" font-size="14" font-family="SegoeUI, Segoe UI"><tspan x="26.528" y="15">Lorem ipsum dolor sit amet, consectetur </tspan><tspan x="8.727" y="34">adipiscing elit. Suspendisse laoreet sollicitudin </tspan><tspan x="2.824" y="53">tristique. Maecenas eget euismod ligula. Ut arcu </tspan><tspan x="25.284" y="72">dolor, pretium in justo porta, elementum </tspan><tspan x="61.9" y="91">rhoncus ipsum. Fusce rutrum</tspan></text>
    <g id="overview-bar" transform="translate(70 -64)">
      <g id="Ellipse_3174" data-name="Ellipse 3174" transform="translate(91 754)" fill="none" stroke="#13a6dd" stroke-width="1">
        <circle cx="7" cy="7" r="7" stroke="none"/>
        <circle cx="7" cy="7" r="6.5" fill="none"/>
      </g>
      <g id="Ellipse_3175" data-name="Ellipse 3175" transform="translate(111 754)" fill="#0ab5f5" stroke="#13a6dd" stroke-width="1">
        <circle cx="7" cy="7" r="7" stroke="none"/>
        <circle cx="7" cy="7" r="6.5" fill="none"/>
      </g>
      <g id="Ellipse_3176" data-name="Ellipse 3176" transform="translate(131 754)" fill="none" stroke="#13a6dd" stroke-width="1">
        <circle cx="7" cy="7" r="7" stroke="none"/>
        <circle cx="7" cy="7" r="6.5" fill="none"/>
      </g>
      <g id="Ellipse_3205" data-name="Ellipse 3205" transform="translate(151 754)" fill="none" stroke="#13a6dd" stroke-width="1">
        <circle cx="7" cy="7" r="7" stroke="none"/>
        <circle cx="7" cy="7" r="6.5" fill="none"/>
      </g>
    </g>
    <g id="undraw_projections_7g6a" transform="translate(48 181.145)">
      <path id="Path_10228" data-name="Path 10228" d="M718.228,375.1l2.208-.422.632-.134a18.182,18.182,0,0,1,10.977-33.731l-2.773,6.962,6.765-6.133h.049a18.185,18.185,0,0,1,11.542,22.982c-.109.328-.24.644-.365.963a21.734,21.734,0,0,0,5.255-3.666c3.019-3,4.629-7.1,6.415-12.15,3.545-10,6.947-20.132,10.2-30.29a18.176,18.176,0,0,1-8.909-21.846,15.712,15.712,0,0,1,.607-1.54q.076-.188.164-.374c.222-.48.455-.951.717-1.4.04-.073.088-.143.131-.216.228-.383.465-.753.717-1.112.094-.137.185-.27.282-.4.286-.386.58-.765.893-1.124.106-.122.216-.234.322-.352.243-.264.489-.519.744-.768.134-.131.264-.261.4-.386.033-.033.067-.07.1-.1h0a18.176,18.176,0,0,1,23.237-.96l-3.609,9.061,6.683-6.075a18.082,18.082,0,0,1,1.075,21.4h.018c-.07.109-.152.213-.228.322-.14.2-.282.4-.428.608-.188.252-.386.5-.586.738-.152.182-.3.365-.459.541-.228.255-.471.5-.714.741-.143.14-.279.289-.425.425q-.577.535-1.194,1.018c-.146.112-.3.21-.447.319-.289.213-.58.422-.881.608-.188.121-.38.231-.571.346-.276.164-.553.322-.838.471-.2.106-.4.21-.608.3-.3.14-.589.27-.887.395-.2.082-.4.167-.607.243-.337.125-.677.237-1.024.34-.173.055-.343.115-.519.164-.513.143-1.036.264-1.564.358-.1.018-.2.027-.3.046-.44.07-.881.131-1.324.17-.191.018-.386.024-.577.033-.358.021-.72.036-1.081.033-.213,0-.425,0-.638-.015-.352,0-.7-.036-1.06-.07-.21-.021-.419-.043-.629-.07-.38-.049-.759-.119-1.139-.194h-.073q-2.062,6.43-4.207,12.83a18.167,18.167,0,0,1,26.384,1.677l-6.175,7.1,8.444-3.557a18.107,18.107,0,0,1,.987,13.827,17.789,17.789,0,0,1-2.223,4.511,18.176,18.176,0,0,1-32.987-7.357c-.152.431-.3.866-.45,1.3-1.579,4.45-3.542,9.987-7.618,14.042a32.24,32.24,0,0,1-9.486,6.032q-3.217,1.473-6.525,2.734a18.225,18.225,0,0,1-8.089,2.734q-5.228,1.558-10.586,2.612l-2.227.428c-2,.38-4.049.772-6.075,1.215.3.082.607.161.887.258a18.182,18.182,0,0,1,12.463,17.481l-13.915,4.556,12.7,1.774a18.192,18.192,0,0,1-30.2,5.95l.41,1.282c.273.847.544,1.692.8,2.527,3.548,11.391,2.284,20.424-3.563,25.442l-3.289-3.839c5.689-4.884,3.712-14.686,2.029-20.1q-.389-1.233-.793-2.485c-2.305-7.171-4.921-15.3-1.874-22.869C693.32,379.85,707.129,377.219,718.228,375.1Z" transform="translate(-521.356 -220.898)" fill="#f2f2f2"/>
      <path id="Path_10229" data-name="Path 10229" d="M212.932,206.528l-1.908-1.188-.544-.349a18.182,18.182,0,0,0,1.838-35.426l.094,7.494-4.119-8.15h-.049a18.182,18.182,0,0,0-19.012,17.314c-.015.346,0,.689,0,1.03a21.588,21.588,0,0,1-3.593-5.3c-1.744-3.888-1.777-8.289-1.637-13.638.273-10.6.729-21.287,1.327-31.936a18.173,18.173,0,0,0,16.144-17.2c.027-.556.018-1.106,0-1.649a2.593,2.593,0,0,0-.021-.407c-.033-.529-.085-1.054-.164-1.567a1.833,1.833,0,0,0-.046-.252c-.076-.434-.167-.866-.27-1.294-.04-.158-.076-.319-.122-.477-.128-.462-.267-.911-.428-1.37-.055-.152-.118-.3-.176-.443-.131-.334-.27-.659-.419-.981-.076-.17-.155-.34-.237-.507-.021-.046-.039-.088-.061-.131h0a18.164,18.164,0,0,0-21.375-9.216l.125,9.75-4.073-8.055a18.073,18.073,0,0,0-8.669,19.592h-.021c.027.128.07.252.1.38.058.243.118.48.185.717q.128.456.282.911c.076.225.149.45.234.671.122.322.261.635.4.948.085.182.158.371.246.55q.346.708.75,1.376c.094.158.2.3.3.459.194.3.392.607.608.89.134.179.273.349.41.525.2.252.4.5.607.741.152.17.3.337.462.5.222.234.453.462.686.686.158.149.3.3.477.443.27.237.55.462.832.686.143.109.279.228.425.337.431.3.875.607,1.333.9.088.055.179.1.267.149.383.225.775.437,1.175.635.17.085.349.158.525.237.328.149.659.3,1,.419.2.076.4.146.607.216.337.112.674.216,1.018.3q.3.085.607.164c.374.088.753.161,1.133.228h.076q-.377,6.743-.671,13.486a18.167,18.167,0,0,0-25.232-7.9l3.214,8.809-6.61-6.348a18.125,18.125,0,0,0-5.878,12.554,17.861,17.861,0,0,0,.462,5.009,18.173,18.173,0,0,0,33.431,4.951c0,.459-.03.911-.043,1.373-.121,4.72-.273,10.595,2.081,15.84a32.113,32.113,0,0,0,6.682,9.027q2.479,2.527,5.115,4.89a18.182,18.182,0,0,0,6.564,5.467c2.883,2.22,5.865,4.307,8.948,6.233l1.926,1.2c1.728,1.072,3.5,2.172,5.243,3.32-.3-.03-.608-.064-.911-.079a18.189,18.189,0,0,0-17.9,11.846l11.357,9.243-12.5-2.9a18.192,18.192,0,0,0,26.074,16.36l-.844,1.051c-.559.7-1.115,1.385-1.658,2.072-7.393,9.362-9.45,18.252-5.789,25.029l4.453-2.406c-3.563-6.6,1.8-15.039,5.31-19.488.532-.674,1.078-1.352,1.628-2.032,4.72-5.868,10.075-12.521,9.945-20.679C234.468,219.875,222.528,212.473,212.932,206.528Z" transform="translate(-143.79 -92.063)" fill="#f2f2f2"/>
      <ellipse id="Ellipse_3177" data-name="Ellipse 3177" cx="132.738" cy="15.187" rx="132.738" ry="15.187" transform="translate(0 198.29)" fill="#f2f2f2"/>
      <rect id="Rectangle_102" data-name="Rectangle 102" width="174.379" height="209.994" rx="19.8" transform="translate(46.155)" fill="#3f3d56"/>
      <rect id="Rectangle_103" data-name="Rectangle 103" width="157.7" height="167.627" transform="translate(53.918 21.183)" fill="#302f45"/>
      <circle id="Ellipse_3178" data-name="Ellipse 3178" cx="6.139" cy="6.139" r="6.139" transform="translate(127.207 193.725)" fill="#fff"/>
      <path id="Path_10230" data-name="Path 10230" d="M573.169,110.248a2.919,2.919,0,1,1,2.919-2.919A2.919,2.919,0,0,1,573.169,110.248Z" transform="translate(-439.823 -95.048)" fill="#fff"/>
      <path id="Path_10231" data-name="Path 10231" d="M572.842,104.21a2.767,2.767,0,1,1-2.764,2.764,2.767,2.767,0,0,1,2.764-2.764m0-.3a2.215,2.215,0,1,0,.009-.006Z" transform="translate(-439.496 -94.693)" fill="#fff"/>
      <rect id="Rectangle_104" data-name="Rectangle 104" width="9.416" height="1.519" transform="translate(62.806 68.344)" fill="#3f3d56"/>
      <rect id="Rectangle_105" data-name="Rectangle 105" width="9.416" height="1.519" transform="translate(62.806 79.278)" fill="#3f3d56"/>
      <rect id="Rectangle_106" data-name="Rectangle 106" width="9.416" height="1.519" transform="translate(62.806 90.213)" fill="#3f3d56"/>
      <rect id="Rectangle_107" data-name="Rectangle 107" width="9.416" height="1.519" transform="translate(62.806 101.148)" fill="#3f3d56"/>
      <rect id="Rectangle_108" data-name="Rectangle 108" width="9.416" height="1.519" transform="translate(62.806 112.083)" fill="#3f3d56"/>
      <rect id="Rectangle_109" data-name="Rectangle 109" width="6.986" height="33.343" transform="translate(113.077 102.448)" fill="#0ab5f5" opacity="0.3"/>
      <rect id="Rectangle_110" data-name="Rectangle 110" width="9.416" height="1.519" transform="translate(62.806 123.018)" fill="#3f3d56"/>
      <rect id="Rectangle_111" data-name="Rectangle 111" width="9.416" height="1.519" transform="translate(62.806 133.953)" fill="#3f3d56"/>
      <line id="Line_1" data-name="Line 1" y1="65.306" transform="translate(75.26 69.255)" fill="none" stroke="#3f3d56" stroke-miterlimit="10" stroke-width="1"/>
      <line id="Line_2" data-name="Line 2" x2="127.423" transform="translate(75.108 69.103)" fill="none" stroke="#3f3d56" stroke-miterlimit="10" stroke-width="1"/>
      <line id="Line_3" data-name="Line 3" x2="127.119" transform="translate(75.412 80.038)" fill="none" stroke="#3f3d56" stroke-miterlimit="10" stroke-width="1"/>
      <line id="Line_4" data-name="Line 4" x2="127.119" transform="translate(75.412 90.973)" fill="none" stroke="#3f3d56" stroke-miterlimit="10" stroke-width="1"/>
      <line id="Line_5" data-name="Line 5" x2="127.119" transform="translate(75.412 101.908)" fill="none" stroke="#3f3d56" stroke-miterlimit="10" stroke-width="1"/>
      <line id="Line_6" data-name="Line 6" x2="127.119" transform="translate(75.412 112.843)" fill="none" stroke="#3f3d56" stroke-miterlimit="10" stroke-width="1"/>
      <line id="Line_7" data-name="Line 7" x2="127.119" transform="translate(75.412 123.778)" fill="none" stroke="#3f3d56" stroke-miterlimit="10" stroke-width="1"/>
      <line id="Line_8" data-name="Line 8" x2="127.423" transform="translate(75.108 134.713)" fill="none" stroke="#3f3d56" stroke-miterlimit="10" stroke-width="1"/>
      <rect id="Rectangle_112" data-name="Rectangle 112" width="6.986" height="10.631" transform="translate(83.917 123.93)" fill="#0ab5f5"/>
      <rect id="Rectangle_113" data-name="Rectangle 113" width="6.986" height="22.66" transform="translate(99.864 111.901)" fill="#0ab5f5"/>
      <rect id="Rectangle_114" data-name="Rectangle 114" width="6.986" height="43.7" transform="translate(131.757 90.86)" fill="#0ab5f5"/>
      <rect id="Rectangle_115" data-name="Rectangle 115" width="6.986" height="54.371" transform="translate(147.704 80.19)" fill="#0ab5f5"/>
      <rect id="Rectangle_116" data-name="Rectangle 116" width="6.986" height="43.7" transform="translate(163.651 90.86)" fill="#0ab5f5"/>
      <rect id="Rectangle_117" data-name="Rectangle 117" width="6.986" height="65.364" transform="translate(179.598 69.197)" fill="#0ab5f5"/>
      <path id="Path_10232" data-name="Path 10232" d="M543.348,401.238c-3.217-.835-6.543-1.68-9.829-1.176a1.88,1.88,0,0,0-1.091.44,1.321,1.321,0,0,0-.03,1.622,2.879,2.879,0,0,0,1.434.969,14.829,14.829,0,0,0,4.842.635,18.231,18.231,0,0,0,4.745-.319,1.978,1.978,0,0,0,.963-.459C545.255,402.064,544.092,401.432,543.348,401.238Z" transform="translate(-413.286 -300.791)" fill="#a0616a"/>
      <path id="Path_10233" data-name="Path 10233" d="M591.412,411.447a15.608,15.608,0,0,1-3.217-.2,21.9,21.9,0,0,1-2.794-.771l-3.308-1.072a43.29,43.29,0,0,1-5.255-1.959c-2.919-1.382-5.58-3.438-8.745-4.076-.571-.115-1.294-.118-1.589.383a1.517,1.517,0,0,0-.146.775l-.018,2.333a.686.686,0,0,0,.41.756c3,1.929,6.4,3.259,9.131,5.562.826.7,1.583,1.476,2.451,2.126a10.006,10.006,0,0,0,3.824,1.734c1.935.422,4.034.279,5.786,1.2a9.214,9.214,0,0,0,2.409,1.215,4.841,4.841,0,0,0,2.269-.337,6.886,6.886,0,0,0,3.287-1.762c1.051-1.215,1.124-2.971,1.142-4.578,0-.456.3-2.33.021-2.679-.4-.48-1.033.231-1.431.453A8.928,8.928,0,0,1,591.412,411.447Z" transform="translate(-437.099 -303.152)" fill="#e6e6f0"/>
      <path id="Path_10234" data-name="Path 10234" d="M665.59,390.86s2.026,8.642,3.511,9.993-10.531,4.325-10.531,4.325,2.561-9.459,1.346-11.078S665.59,390.86,665.59,390.86Z" transform="translate(-501.316 -294.49)" fill="#a0616a"/>
      <path id="Path_10235" data-name="Path 10235" d="M665.59,390.86s2.026,8.642,3.511,9.993-10.531,4.325-10.531,4.325,2.561-9.459,1.346-11.078S665.59,390.86,665.59,390.86Z" transform="translate(-501.316 -294.49)" opacity="0.1"/>
      <path id="Path_10236" data-name="Path 10236" d="M606.652,756.323c-.659.1-1.333,0-1.993.079a3.925,3.925,0,0,0-2.43,1.233,1.039,1.039,0,0,0-.349.768.981.981,0,0,0,.282.532,4.393,4.393,0,0,0,2.375,1.215,18.873,18.873,0,0,0,3.994.3q4.994.027,9.99.046a8.014,8.014,0,0,0-.1-3.611A2.058,2.058,0,0,0,618,756a2.356,2.356,0,0,0-.759-.492l-2.053-.981c-1.631-.781-2.922-1.361-4.556-.4C609.31,754.88,608.195,756.086,606.652,756.323Z" transform="translate(-461.846 -547.064)" fill="#3c354c"/>
      <path id="Path_10237" data-name="Path 10237" d="M606.652,756.323c-.659.1-1.333,0-1.993.079a3.925,3.925,0,0,0-2.43,1.233,1.039,1.039,0,0,0-.349.768.981.981,0,0,0,.282.532,4.393,4.393,0,0,0,2.375,1.215,18.873,18.873,0,0,0,3.994.3q4.994.027,9.99.046a8.014,8.014,0,0,0-.1-3.611A2.058,2.058,0,0,0,618,756a2.356,2.356,0,0,0-.759-.492l-2.053-.981c-1.631-.781-2.922-1.361-4.556-.4C609.31,754.88,608.195,756.086,606.652,756.323Z" transform="translate(-461.846 -547.064)" opacity="0.1"/>
      <path id="Path_10238" data-name="Path 10238" d="M637.727,776.117a2.673,2.673,0,0,1-.094,1.087,2.532,2.532,0,0,1-1.823,1.254,41.139,41.139,0,0,1-10.328,1.084,20.508,20.508,0,0,1-7.715-.832,3.458,3.458,0,0,1-1.34-.8,1.518,1.518,0,0,1-.422-1.443c.191-.644.869-.99,1.479-1.267l3.326-1.5,6.409-2.886a5.872,5.872,0,0,1,2.506-.7,7.383,7.383,0,0,1,2.952,1.112,14.1,14.1,0,0,0,2.126.863,10.1,10.1,0,0,1,2.126.571C637.967,773.289,637.672,775.09,637.727,776.117Z" transform="translate(-471.652 -558.547)" fill="#3c354c"/>
      <path id="Path_10239" data-name="Path 10239" d="M609.09,573.5A85.6,85.6,0,0,0,604.9,587.99c-.3,1.777-.474,3.569-.8,5.34a14.22,14.22,0,0,0-.437,5.042,19.709,19.709,0,0,0,1.075,3.138c.5,1.382.787,2.834,1.26,4.225.735,2.157,1.911,4.137,2.658,6.288.726,2.087,1.048,4.325,2.059,6.288a21.88,21.88,0,0,1,1.822,3.469,5.377,5.377,0,0,1-1.346,5.322c.179.811,1.124,1.215,1.9,1.519l2.84,1.048a4.57,4.57,0,0,0,3.341.334c1.537-.671,1.822-2.7,1.777-4.374a60.045,60.045,0,0,0-2.1-12.035c-.911-3.645-1.8-7.29-2.87-10.9-.446-1.488-.911-2.971-1.273-4.486a28.779,28.779,0,0,1,1.252-16.967c1.215-3.038.134-6.78.27-10.063l-4.076-.75c-.8-.146-1.777-.234-2.284.4A10.073,10.073,0,0,0,609.09,573.5Z" transform="translate(-463.017 -419.443)" fill="#575a89"/>
      <path id="Path_10240" data-name="Path 10240" d="M609.09,573.5A85.6,85.6,0,0,0,604.9,587.99c-.3,1.777-.474,3.569-.8,5.34a14.22,14.22,0,0,0-.437,5.042,19.709,19.709,0,0,0,1.075,3.138c.5,1.382.787,2.834,1.26,4.225.735,2.157,1.911,4.137,2.658,6.288.726,2.087,1.048,4.325,2.059,6.288a21.88,21.88,0,0,1,1.822,3.469,5.377,5.377,0,0,1-1.346,5.322c.179.811,1.124,1.215,1.9,1.519l2.84,1.048a4.57,4.57,0,0,0,3.341.334c1.537-.671,1.822-2.7,1.777-4.374a60.045,60.045,0,0,0-2.1-12.035c-.911-3.645-1.8-7.29-2.87-10.9-.446-1.488-.911-2.971-1.273-4.486a28.779,28.779,0,0,1,1.252-16.967c1.215-3.038.134-6.78.27-10.063l-4.076-.75c-.8-.146-1.777-.234-2.284.4A10.073,10.073,0,0,0,609.09,573.5Z" transform="translate(-463.017 -419.443)" opacity="0.1"/>
      <path id="Path_10241" data-name="Path 10241" d="M639.81,566.571a10.963,10.963,0,0,1-.887,4.253c-.4.8-.99,1.482-1.449,2.248a14.164,14.164,0,0,0-1.485,6.965c-.048,2.485.04,4.969.131,7.451a11.469,11.469,0,0,0,.234,2.281c.152.629.407,1.23.553,1.859.349,1.519.027,3.126.237,4.675a21.418,21.418,0,0,0,.963,3.429,17.5,17.5,0,0,1,.732,5.391c-.109,4.939,1.449,9.644,1.485,14.58,0,1.7-.061,3.405.082,5.1.152,1.847.556,3.663.756,5.507a1.336,1.336,0,0,1-.276,1.194,1.3,1.3,0,0,1-.829.213,9.925,9.925,0,0,1-3.129-.3c-.911-.276-1.719-.762-2.6-1.081-1.649-.607-3.694-.735-4.638-2.211a.868.868,0,0,1-.161-.425c0-.419.447-.677.659-1.042a1.63,1.63,0,0,0,.176-.768c.082-1.944-.79-3.779-1.37-5.634a38.268,38.268,0,0,1-1.142-5.525c-.608-3.855-1.215-7.791-.58-11.643a3.611,3.611,0,0,0-.228-2.782,6.348,6.348,0,0,0-.875-.787,3.393,3.393,0,0,1-1.121-2.488c0-3.038-1.385-6.075-1.519-9.113-.079-1.756.027-3.514-.055-5.27-.219-4.635-1.731-9.094-3.11-13.526a6.637,6.637,0,0,1-.4-1.977,2.3,2.3,0,0,1,.759-1.822c2.315-1.856,5.744-2.479,8.307-.984.51.3.981.653,1.519.911C633.338,566.708,636.983,565.171,639.81,566.571Z" transform="translate(-474.434 -414.691)" fill="#575a89"/>
      <circle id="Ellipse_3179" data-name="Ellipse 3179" cx="6.616" cy="6.616" r="6.616" transform="translate(154.013 90.97)" fill="#a0616a"/>
      <path id="Path_10242" data-name="Path 10242" d="M620.167,470.547a2.734,2.734,0,0,0,.981.635l2.017.911a3.7,3.7,0,0,0,1.015.377,4.121,4.121,0,0,0,1.346-.1,35.843,35.843,0,0,1,14.033.264c1.485-2.226,1.616-5.1,1.215-7.746a9.979,9.979,0,0,1-.176-4.219c.164-.586.462-1.127.629-1.713.456-1.6-.094-3.32.158-4.963.3-2.014,1.771-3.645,2.576-5.51a17.822,17.822,0,0,0,.981-3.578q.447-2.239.911-4.468a21.755,21.755,0,0,0,.607-4.978,22.472,22.472,0,0,0-1.929-7.378,4.8,4.8,0,0,0-1.777-2.618c-1.145-.653-2.588-.258-3.809.234a26.681,26.681,0,0,1-4.836,1.731c-.729.14-1.728-.112-2.388.082-.565.167-.951.929-1.285,1.394a24.7,24.7,0,0,0-3.988,8.578c-.768,3.123-.942,6.443-2.363,9.325A19.12,19.12,0,0,1,623,448.662a23.1,23.1,0,0,0-2.263,3.9,17.427,17.427,0,0,0-.8,6.877c0,.386.021.765.027,1.148q.091,3.97-.176,7.928A2.746,2.746,0,0,0,620.167,470.547Z" transform="translate(-474.298 -318.344)" fill="#e6e6f0"/>
      <path id="Path_10243" data-name="Path 10243" d="M537.115,511.726c-3.323.115-6.752.216-9.851-.993a1.884,1.884,0,0,1-.969-.668,1.326,1.326,0,0,1,.325-1.589,2.886,2.886,0,0,1,1.61-.632,14.875,14.875,0,0,1,4.86.437,18.039,18.039,0,0,1,4.556,1.343,2,2,0,0,1,.838.659C539.165,511.343,537.884,511.7,537.115,511.726Z" transform="translate(-409.118 -375.893)" fill="#a0616a"/>
      <path id="Path_10244" data-name="Path 10244" d="M620.283,481.637c.735,0,1.467-.036,2.2-.079a10.4,10.4,0,0,0,2.545-.383,10.681,10.681,0,0,0,3.326-2.032,70.946,70.946,0,0,0,8.842-8.523,11.391,11.391,0,0,0,2.248-3.372,11.565,11.565,0,0,0,.4-4.921,7.91,7.91,0,0,0-.7-3.165,3.037,3.037,0,0,0-2.126-1.637l1.145.042a6.1,6.1,0,0,0-3.788-.474,6.329,6.329,0,0,0-2.585.608,5.81,5.81,0,0,0-2.126,2.479c-1.734,3.162-2.843,6.7-5.1,9.519a5.776,5.776,0,0,1-1.027,1.045c-.061.046-.125.088-.188.131a23.107,23.107,0,0,0-2.263,3.9A17.159,17.159,0,0,0,620.283,481.637Z" transform="translate(-474.645 -340.549)" opacity="0.1"/>
      <path id="Path_10245" data-name="Path 10245" d="M596.03,453.455a2.884,2.884,0,0,1,2.6,1.658,8.164,8.164,0,0,1,.7,3.165,11.563,11.563,0,0,1-.4,4.921,11.39,11.39,0,0,1-2.248,3.372,71.156,71.156,0,0,1-8.83,8.523,10.569,10.569,0,0,1-3.326,2.032,10.4,10.4,0,0,1-2.545.383,24.19,24.19,0,0,1-9.659-1c-2.43-.872-4.669-2.372-7.229-2.53a4.369,4.369,0,0,1-1.853-.3c-1.027-.55-1.215-1.941-1.124-3.1a.832.832,0,0,1,.851-.99c5.121-.635,10.467.665,15.4-.844a28.571,28.571,0,0,0,3.284-1.315,7.291,7.291,0,0,0,1.379-.747,5.654,5.654,0,0,0,1.024-1.045c2.254-2.816,3.366-6.357,5.1-9.519a5.905,5.905,0,0,1,2.126-2.479,6.858,6.858,0,0,1,2.585-.608,6.1,6.1,0,0,1,3.788.474" transform="translate(-434.144 -337.715)" fill="#e6e6f0"/>
      <path id="Path_10246" data-name="Path 10246" d="M656.12,368.824c-.3.374-.5.829-.829,1.169a1.068,1.068,0,0,1-1.294.273c-.592-.41-.282-1.415-.741-1.968-.258-.3-.7-.4-1.015-.659-.747-.607-.547-1.871-1.215-2.579a2.354,2.354,0,0,0-2.579-.237,5.072,5.072,0,0,1-2.646.586c-1.273-.261-1.935-1.652-2.3-2.9a5,5,0,0,1,0-3.748,4.141,4.141,0,0,1,2.524-1.822,28.115,28.115,0,0,1,3.147-.547c1.394-.252,2.734-.732,4.158-.872a4.824,4.824,0,0,1,3.949,1.13c1.464,1.485,1.215,3.909,1.944,5.862.419,1.109,1.169,2.065,1.616,3.162.787,1.944.4,4.48-1.337,5.662a1.394,1.394,0,0,1-.951.3c-.72-.1-.984-1.015-.945-1.74C657.708,368.578,657.4,367.214,656.12,368.824Z" transform="translate(-490.567 -269.86)" fill="#3f3d56"/>
      <rect id="Rectangle_118" data-name="Rectangle 118" width="6.986" height="33.343" transform="translate(115.81 101.233)" fill="#0ab5f5"/>
      <path id="Path_10247" data-name="Path 10247" d="M207.423,682.351c-.911-1.674.121-3.724,1.3-5.219s2.615-3.037,2.585-4.945c-.043-2.734-2.943-4.35-5.264-5.8a25.518,25.518,0,0,1-4.723-3.8,6.924,6.924,0,0,1-1.455-1.944,7.934,7.934,0,0,1-.434-3.457q.149-5.85.577-11.688" transform="translate(-181.632 -471.783)" fill="none" stroke="#3f3d56" stroke-miterlimit="10" stroke-width="4"/>
      <path id="Path_10248" data-name="Path 10248" d="M186.86,635.477a4.253,4.253,0,0,1,2.126-3.493l.954,1.886-.027-2.284a4.252,4.252,0,1,1-3.037,3.891Z" transform="translate(-172.888 -461.972)" fill="#57b894"/>
      <path id="Path_10249" data-name="Path 10249" d="M210.8,725.572a4.252,4.252,0,1,0-.207-3.432l2.661,2.166-2.928-.677A4.215,4.215,0,0,0,210.8,725.572Z" transform="translate(-189.229 -523.215)" fill="#57b894"/>
      <path id="Path_10250" data-name="Path 10250" d="M209.542,693.006A4.253,4.253,0,0,0,214,688.945a4.2,4.2,0,0,0-.368-1.941,4.271,4.271,0,0,0-2.734-2.363l.021,1.759-.966-1.911h0a4.257,4.257,0,1,0-.4,8.5Z" transform="translate(-185.865 -498.926)" fill="#57b894"/>
      <path id="Path_10251" data-name="Path 10251" d="M175.427,670.33a4.265,4.265,0,1,0-1.883-7.979l.753,2.066-1.549-1.488a4.252,4.252,0,0,0-1.379,2.943,4.158,4.158,0,0,0,.109,1.172A4.253,4.253,0,0,0,175.427,670.33Z" transform="translate(-162.098 -483.136)" fill="#57b894"/>
      <path id="Path_10252" data-name="Path 10252" d="M187.633,641.967c.984.106,1.941.413,2.928.474a3.194,3.194,0,0,0,2.7-.942,13.518,13.518,0,0,0,.79-1.388,3.038,3.038,0,0,1,1.072-1.012,4.252,4.252,0,1,1-7.97,2.831Q187.408,641.94,187.633,641.967Z" transform="translate(-173.089 -467.327)" opacity="0.1"/>
      <path id="Path_10253" data-name="Path 10253" d="M175.71,675.931a4.264,4.264,0,0,0,4.055-6.081,3.191,3.191,0,0,0-.857.857,13.732,13.732,0,0,1-.844,1.409,3.476,3.476,0,0,1-2.828.987c-1.03-.049-2.02-.337-3.037-.431-.14,0-.286-.021-.428-.027A4.252,4.252,0,0,0,175.71,675.931Z" transform="translate(-162.381 -488.737)" opacity="0.1"/>
      <path id="Path_10254" data-name="Path 10254" d="M209.933,698.782a4.252,4.252,0,0,0,4.459-4.061,4.2,4.2,0,0,0-.368-1.941,3.5,3.5,0,0,0-.911.866c-.331.468-.538,1.005-.911,1.437a3.937,3.937,0,0,1-3.019,1.057c-1.09-.027-2.072-.282-3.123-.361A4.252,4.252,0,0,0,209.933,698.782Z" transform="translate(-186.256 -504.702)" opacity="0.1"/>
      <path id="Path_10255" data-name="Path 10255" d="M211.89,731.818a4.256,4.256,0,1,0,7.77-3.478,4.325,4.325,0,0,0-.936.832,16.805,16.805,0,0,1-1.142,1.519,5.308,5.308,0,0,1-3.53,1.242A18.825,18.825,0,0,1,211.89,731.818Z" transform="translate(-190.315 -529.46)" opacity="0.1"/>
      <path id="Path_10256" data-name="Path 10256" d="M218.228,756.31s-3.363-.1-4.377-.826-5.164-1.586-5.428-.425-5.057,5.771-1.258,5.789,8.827-.592,9.838-1.215S218.228,756.31,218.228,756.31Z" transform="translate(-186.01 -547.668)" fill="#656380"/>
      <path id="Path_10257" data-name="Path 10257" d="M207.127,764.579c3.8.03,8.827-.608,9.838-1.215.768-.471,1.078-2.157,1.179-2.934h.112s-.213,2.712-1.215,3.341-6.039,1.239-9.838,1.215c-1.1,0-1.476-.4-1.455-.978C205.891,764.354,206.31,764.573,207.127,764.579Z" transform="translate(-186.038 -551.803)" opacity="0.2"/>
    </g>
    <g id="Home_Indidcator" data-name="Home Indidcator" transform="translate(-13 432)">
      <rect id="Background" width="375" height="34" transform="translate(13 346)" fill="none"/>
      <rect id="Bar" width="134" height="5" rx="2.5" transform="translate(134 366)"/>
    </g>
  </g>
</svg>
